G04 #@! TF.FileFunction,Drawing*
%FSLAX46Y46*%
G04 Gerber Fmt 4.6, Leading zero omitted, Abs format (unit mm)*
G04 Created by KiCad (PCBNEW 4.0.7) date 05/08/19 21:53:07*
%MOMM*%
%LPD*%
G01*
G04 APERTURE LIST*
%ADD10C,0.100000*%
%ADD11C,0.300000*%
%ADD12C,0.010000*%
G04 APERTURE END LIST*
D10*
D11*
X170952735Y-94877701D02*
X170952767Y-94591986D01*
X170881355Y-94449121D01*
X170809934Y-94377685D01*
X170595664Y-94234803D01*
X170309957Y-94163344D01*
X169738529Y-94163281D01*
X169595664Y-94234693D01*
X169524227Y-94306114D01*
X169452783Y-94448963D01*
X169452751Y-94734677D01*
X169524164Y-94877543D01*
X169595586Y-94948979D01*
X169738435Y-95020424D01*
X170095578Y-95020463D01*
X170238443Y-94949050D01*
X170309878Y-94877630D01*
X170381323Y-94734780D01*
X170381355Y-94449066D01*
X170309941Y-94306201D01*
X170238521Y-94234764D01*
X170095672Y-94163320D01*
X169452917Y-93234678D02*
X169452932Y-93091821D01*
X169524377Y-92948972D01*
X169595814Y-92877551D01*
X169738679Y-92806138D01*
X170024401Y-92734741D01*
X170381544Y-92734781D01*
X170667250Y-92806240D01*
X170810099Y-92877685D01*
X170881520Y-92949122D01*
X170952932Y-93091987D01*
X170952917Y-93234844D01*
X170881473Y-93377693D01*
X170810036Y-93449114D01*
X170667171Y-93520526D01*
X170381449Y-93591924D01*
X170024306Y-93591884D01*
X169738600Y-93520424D01*
X169595751Y-93448980D01*
X169524330Y-93377543D01*
X169452917Y-93234678D01*
X170810186Y-92091971D02*
X170881622Y-92020551D01*
X170953043Y-92091987D01*
X170881607Y-92163408D01*
X170810186Y-92091971D01*
X170953043Y-92091987D01*
X169453192Y-90734678D02*
X169453161Y-91020392D01*
X169524574Y-91163257D01*
X169595995Y-91234694D01*
X169810264Y-91377575D01*
X170095972Y-91449035D01*
X170667400Y-91449098D01*
X170810264Y-91377685D01*
X170881701Y-91306265D01*
X170953145Y-91163415D01*
X170953177Y-90877701D01*
X170881764Y-90734836D01*
X170810343Y-90663399D01*
X170667494Y-90591955D01*
X170310351Y-90591916D01*
X170167486Y-90663328D01*
X170096050Y-90734749D01*
X170024606Y-90877598D01*
X170024574Y-91163312D01*
X170095987Y-91306178D01*
X170167407Y-91377614D01*
X170310257Y-91449059D01*
X169453263Y-90091821D02*
X169453373Y-89091821D01*
X170953303Y-89734844D01*
X169453468Y-88234679D02*
X169453484Y-88091822D01*
X169524929Y-87948973D01*
X169596365Y-87877552D01*
X169739230Y-87806139D01*
X170024952Y-87734742D01*
X170382095Y-87734782D01*
X170667801Y-87806241D01*
X170810650Y-87877686D01*
X170882072Y-87949123D01*
X170953484Y-88091988D01*
X170953468Y-88234845D01*
X170882024Y-88377694D01*
X170810587Y-88449115D01*
X170667723Y-88520527D01*
X170382001Y-88591925D01*
X170024858Y-88591885D01*
X169739152Y-88520425D01*
X169596302Y-88448981D01*
X169524881Y-88377544D01*
X169453468Y-88234679D01*
X170953720Y-85949131D02*
X169953720Y-85949021D01*
X170096578Y-85949036D02*
X170025157Y-85877600D01*
X169953744Y-85734735D01*
X169953767Y-85520450D01*
X170025212Y-85377600D01*
X170168077Y-85306187D01*
X170953791Y-85306274D01*
X170168077Y-85306187D02*
X170025228Y-85234742D01*
X169953815Y-85091878D01*
X169953838Y-84877593D01*
X170025283Y-84734742D01*
X170168148Y-84663330D01*
X170953862Y-84663417D01*
X170953941Y-83949131D02*
X169953941Y-83949021D01*
X170096799Y-83949036D02*
X170025378Y-83877600D01*
X169953964Y-83734735D01*
X169953988Y-83520450D01*
X170025433Y-83377600D01*
X170168298Y-83306187D01*
X170954012Y-83306274D01*
X170168298Y-83306187D02*
X170025448Y-83234742D01*
X169954035Y-83091878D01*
X169954059Y-82877593D01*
X170025504Y-82734742D01*
X170168368Y-82663330D01*
X170954082Y-82663417D01*
X168929834Y-43471049D02*
X168919834Y-134141049D01*
X159420000Y-43470000D02*
X171629834Y-43471347D01*
X159410000Y-134140000D02*
X171619834Y-134141347D01*
X168919834Y-134141049D02*
X168333538Y-133014481D01*
X168919834Y-134141049D02*
X169506379Y-133014610D01*
X168929834Y-43471049D02*
X168343289Y-44597488D01*
X168929834Y-43471049D02*
X169516130Y-44597617D01*
X130775001Y-36928571D02*
X130775001Y-37928571D01*
X130417858Y-36357143D02*
X130060715Y-37428571D01*
X130989287Y-37428571D01*
X132203572Y-36428571D02*
X131917858Y-36428571D01*
X131775001Y-36500000D01*
X131703572Y-36571429D01*
X131560715Y-36785714D01*
X131489286Y-37071429D01*
X131489286Y-37642857D01*
X131560715Y-37785714D01*
X131632143Y-37857143D01*
X131775001Y-37928571D01*
X132060715Y-37928571D01*
X132203572Y-37857143D01*
X132275001Y-37785714D01*
X132346429Y-37642857D01*
X132346429Y-37285714D01*
X132275001Y-37142857D01*
X132203572Y-37071429D01*
X132060715Y-37000000D01*
X131775001Y-37000000D01*
X131632143Y-37071429D01*
X131560715Y-37142857D01*
X131489286Y-37285714D01*
X132989286Y-37785714D02*
X133060714Y-37857143D01*
X132989286Y-37928571D01*
X132917857Y-37857143D01*
X132989286Y-37785714D01*
X132989286Y-37928571D01*
X133632143Y-36571429D02*
X133703572Y-36500000D01*
X133846429Y-36428571D01*
X134203572Y-36428571D01*
X134346429Y-36500000D01*
X134417858Y-36571429D01*
X134489286Y-36714286D01*
X134489286Y-36857143D01*
X134417858Y-37071429D01*
X133560715Y-37928571D01*
X134489286Y-37928571D01*
X135846429Y-36428571D02*
X135132143Y-36428571D01*
X135060714Y-37142857D01*
X135132143Y-37071429D01*
X135275000Y-37000000D01*
X135632143Y-37000000D01*
X135775000Y-37071429D01*
X135846429Y-37142857D01*
X135917857Y-37285714D01*
X135917857Y-37642857D01*
X135846429Y-37785714D01*
X135775000Y-37857143D01*
X135632143Y-37928571D01*
X135275000Y-37928571D01*
X135132143Y-37857143D01*
X135060714Y-37785714D01*
X136846428Y-36428571D02*
X136989285Y-36428571D01*
X137132142Y-36500000D01*
X137203571Y-36571429D01*
X137275000Y-36714286D01*
X137346428Y-37000000D01*
X137346428Y-37357143D01*
X137275000Y-37642857D01*
X137203571Y-37785714D01*
X137132142Y-37857143D01*
X136989285Y-37928571D01*
X136846428Y-37928571D01*
X136703571Y-37857143D01*
X136632142Y-37785714D01*
X136560714Y-37642857D01*
X136489285Y-37357143D01*
X136489285Y-37000000D01*
X136560714Y-36714286D01*
X136632142Y-36571429D01*
X136703571Y-36500000D01*
X136846428Y-36428571D01*
X139132142Y-37928571D02*
X139132142Y-36928571D01*
X139132142Y-37071429D02*
X139203570Y-37000000D01*
X139346428Y-36928571D01*
X139560713Y-36928571D01*
X139703570Y-37000000D01*
X139774999Y-37142857D01*
X139774999Y-37928571D01*
X139774999Y-37142857D02*
X139846428Y-37000000D01*
X139989285Y-36928571D01*
X140203570Y-36928571D01*
X140346428Y-37000000D01*
X140417856Y-37142857D01*
X140417856Y-37928571D01*
X141132142Y-37928571D02*
X141132142Y-36928571D01*
X141132142Y-37071429D02*
X141203570Y-37000000D01*
X141346428Y-36928571D01*
X141560713Y-36928571D01*
X141703570Y-37000000D01*
X141774999Y-37142857D01*
X141774999Y-37928571D01*
X141774999Y-37142857D02*
X141846428Y-37000000D01*
X141989285Y-36928571D01*
X142203570Y-36928571D01*
X142346428Y-37000000D01*
X142417856Y-37142857D01*
X142417856Y-37928571D01*
X113150000Y-38600000D02*
X159400000Y-38600000D01*
X113150000Y-43480000D02*
X113150000Y-35900000D01*
X159400000Y-43480000D02*
X159400000Y-35900000D01*
X159400000Y-38600000D02*
X158273496Y-39186421D01*
X159400000Y-38600000D02*
X158273496Y-38013579D01*
X113150000Y-38600000D02*
X114276504Y-39186421D01*
X113150000Y-38600000D02*
X114276504Y-38013579D01*
D12*
X125789000Y-143783500D02*
X125789000Y-142831000D01*
X125789000Y-142831000D02*
X125154000Y-142831000D01*
X125154000Y-142831000D02*
X125154000Y-142196000D01*
X125154000Y-142196000D02*
X125154000Y-141561000D01*
X125154000Y-141561000D02*
X125154000Y-140926000D01*
X125154000Y-140926000D02*
X125154000Y-140291000D01*
X125154000Y-140291000D02*
X125154000Y-139656000D01*
X125154000Y-139656000D02*
X125154000Y-139021000D01*
X125154000Y-139021000D02*
X125154000Y-138068500D01*
X125154000Y-138068500D02*
X125789000Y-138068500D01*
X125789000Y-138068500D02*
X125789000Y-136163500D01*
X125789000Y-136163500D02*
X130869000Y-136163500D01*
X130869000Y-136163500D02*
X130869000Y-138068500D01*
X130869000Y-138068500D02*
X131504000Y-138068500D01*
X131504000Y-138068500D02*
X131504000Y-139021000D01*
X131504000Y-139021000D02*
X131504000Y-139656000D01*
X131504000Y-139656000D02*
X131504000Y-140291000D01*
X131504000Y-140291000D02*
X131504000Y-140926000D01*
X131504000Y-140926000D02*
X131504000Y-141561000D01*
X131504000Y-141561000D02*
X131504000Y-142196000D01*
X131504000Y-142196000D02*
X131504000Y-142831000D01*
X131504000Y-142831000D02*
X130869000Y-142831000D01*
X130869000Y-142831000D02*
X130869000Y-143783500D01*
X130869000Y-143783500D02*
X125789000Y-143783500D01*
X125789000Y-142831000D02*
X130869000Y-142831000D01*
X125154000Y-142831000D02*
X131504000Y-142196000D01*
X125154000Y-142196000D02*
X131504000Y-141561000D01*
X125154000Y-141561000D02*
X131504000Y-140926000D01*
X125154000Y-140926000D02*
X131504000Y-140291000D01*
X125154000Y-140291000D02*
X131504000Y-139656000D01*
X125154000Y-139656000D02*
X131504000Y-139021000D01*
X128646500Y-131401000D02*
X128011500Y-131401000D01*
X128011500Y-131401000D02*
X128011500Y-134576000D01*
X128646500Y-131401000D02*
X128646500Y-134576000D01*
X125154000Y-139021000D02*
X131504000Y-138386000D01*
X126329000Y-134576000D02*
X126329000Y-130766000D01*
X126329000Y-130766000D02*
X125329000Y-130766000D01*
X125329000Y-134576000D02*
X125329000Y-130766000D01*
X130329000Y-134576000D02*
X130329000Y-130766000D01*
X130329000Y-130766000D02*
X131329000Y-130766000D01*
X130329000Y-134576000D02*
X130329000Y-130766000D01*
X130329000Y-130766000D02*
X131329000Y-130766000D01*
X131329000Y-134576000D02*
X131329000Y-130766000D01*
X131579000Y-134576000D02*
X125079000Y-134576000D01*
X131579000Y-136100000D02*
X125079000Y-136100000D01*
X131579000Y-134576000D02*
X131579000Y-136100000D01*
X125079000Y-134576000D02*
X125079000Y-136100000D01*
X142260320Y-143802100D02*
X142260320Y-142849600D01*
X142260320Y-142849600D02*
X141625320Y-142849600D01*
X141625320Y-142849600D02*
X141625320Y-142214600D01*
X141625320Y-142214600D02*
X141625320Y-141579600D01*
X141625320Y-141579600D02*
X141625320Y-140944600D01*
X141625320Y-140944600D02*
X141625320Y-140309600D01*
X141625320Y-140309600D02*
X141625320Y-139674600D01*
X141625320Y-139674600D02*
X141625320Y-139039600D01*
X141625320Y-139039600D02*
X141625320Y-138087100D01*
X141625320Y-138087100D02*
X142260320Y-138087100D01*
X142260320Y-138087100D02*
X142260320Y-136182100D01*
X142260320Y-136182100D02*
X147340320Y-136182100D01*
X147340320Y-136182100D02*
X147340320Y-138087100D01*
X147340320Y-138087100D02*
X147975320Y-138087100D01*
X147975320Y-138087100D02*
X147975320Y-139039600D01*
X147975320Y-139039600D02*
X147975320Y-139674600D01*
X147975320Y-139674600D02*
X147975320Y-140309600D01*
X147975320Y-140309600D02*
X147975320Y-140944600D01*
X147975320Y-140944600D02*
X147975320Y-141579600D01*
X147975320Y-141579600D02*
X147975320Y-142214600D01*
X147975320Y-142214600D02*
X147975320Y-142849600D01*
X147975320Y-142849600D02*
X147340320Y-142849600D01*
X147340320Y-142849600D02*
X147340320Y-143802100D01*
X147340320Y-143802100D02*
X142260320Y-143802100D01*
X142260320Y-142849600D02*
X147340320Y-142849600D01*
X141625320Y-142849600D02*
X147975320Y-142214600D01*
X141625320Y-142214600D02*
X147975320Y-141579600D01*
X141625320Y-141579600D02*
X147975320Y-140944600D01*
X141625320Y-140944600D02*
X147975320Y-140309600D01*
X141625320Y-140309600D02*
X147975320Y-139674600D01*
X141625320Y-139674600D02*
X147975320Y-139039600D01*
X145117820Y-131419600D02*
X144482820Y-131419600D01*
X144482820Y-131419600D02*
X144482820Y-134594600D01*
X145117820Y-131419600D02*
X145117820Y-134594600D01*
X141625320Y-139039600D02*
X147975320Y-138404600D01*
X142800320Y-134594600D02*
X142800320Y-130784600D01*
X142800320Y-130784600D02*
X141800320Y-130784600D01*
X141800320Y-134594600D02*
X141800320Y-130784600D01*
X146800320Y-134594600D02*
X146800320Y-130784600D01*
X146800320Y-130784600D02*
X147800320Y-130784600D01*
X146800320Y-134594600D02*
X146800320Y-130784600D01*
X146800320Y-130784600D02*
X147800320Y-130784600D01*
X147800320Y-134594600D02*
X147800320Y-130784600D01*
X148050320Y-134594600D02*
X141550320Y-134594600D01*
X148050320Y-136118600D02*
X141550320Y-136118600D01*
X148050320Y-134594600D02*
X148050320Y-136118600D01*
X141550320Y-134594600D02*
X141550320Y-136118600D01*
M02*
