G04 #@! TF.FileFunction,Drawing*
%FSLAX46Y46*%
G04 Gerber Fmt 4.6, Leading zero omitted, Abs format (unit mm)*
G04 Created by KiCad (PCBNEW 4.0.7) date 02/23/19 09:39:54*
%MOMM*%
%LPD*%
G01*
G04 APERTURE LIST*
%ADD10C,0.100000*%
%ADD11C,0.010000*%
G04 APERTURE END LIST*
D10*
D11*
X125789000Y-143783500D02*
X125789000Y-142831000D01*
X125789000Y-142831000D02*
X125154000Y-142831000D01*
X125154000Y-142831000D02*
X125154000Y-142196000D01*
X125154000Y-142196000D02*
X125154000Y-141561000D01*
X125154000Y-141561000D02*
X125154000Y-140926000D01*
X125154000Y-140926000D02*
X125154000Y-140291000D01*
X125154000Y-140291000D02*
X125154000Y-139656000D01*
X125154000Y-139656000D02*
X125154000Y-139021000D01*
X125154000Y-139021000D02*
X125154000Y-138068500D01*
X125154000Y-138068500D02*
X125789000Y-138068500D01*
X125789000Y-138068500D02*
X125789000Y-136163500D01*
X125789000Y-136163500D02*
X130869000Y-136163500D01*
X130869000Y-136163500D02*
X130869000Y-138068500D01*
X130869000Y-138068500D02*
X131504000Y-138068500D01*
X131504000Y-138068500D02*
X131504000Y-139021000D01*
X131504000Y-139021000D02*
X131504000Y-139656000D01*
X131504000Y-139656000D02*
X131504000Y-140291000D01*
X131504000Y-140291000D02*
X131504000Y-140926000D01*
X131504000Y-140926000D02*
X131504000Y-141561000D01*
X131504000Y-141561000D02*
X131504000Y-142196000D01*
X131504000Y-142196000D02*
X131504000Y-142831000D01*
X131504000Y-142831000D02*
X130869000Y-142831000D01*
X130869000Y-142831000D02*
X130869000Y-143783500D01*
X130869000Y-143783500D02*
X125789000Y-143783500D01*
X125789000Y-142831000D02*
X130869000Y-142831000D01*
X125154000Y-142831000D02*
X131504000Y-142196000D01*
X125154000Y-142196000D02*
X131504000Y-141561000D01*
X125154000Y-141561000D02*
X131504000Y-140926000D01*
X125154000Y-140926000D02*
X131504000Y-140291000D01*
X125154000Y-140291000D02*
X131504000Y-139656000D01*
X125154000Y-139656000D02*
X131504000Y-139021000D01*
X128646500Y-131401000D02*
X128011500Y-131401000D01*
X128011500Y-131401000D02*
X128011500Y-134576000D01*
X128646500Y-131401000D02*
X128646500Y-134576000D01*
X125154000Y-139021000D02*
X131504000Y-138386000D01*
X126329000Y-134576000D02*
X126329000Y-130766000D01*
X126329000Y-130766000D02*
X125329000Y-130766000D01*
X125329000Y-134576000D02*
X125329000Y-130766000D01*
X130329000Y-134576000D02*
X130329000Y-130766000D01*
X130329000Y-130766000D02*
X131329000Y-130766000D01*
X130329000Y-134576000D02*
X130329000Y-130766000D01*
X130329000Y-130766000D02*
X131329000Y-130766000D01*
X131329000Y-134576000D02*
X131329000Y-130766000D01*
X131579000Y-134576000D02*
X125079000Y-134576000D01*
X131579000Y-136100000D02*
X125079000Y-136100000D01*
X131579000Y-134576000D02*
X131579000Y-136100000D01*
X125079000Y-134576000D02*
X125079000Y-136100000D01*
X142260320Y-143802100D02*
X142260320Y-142849600D01*
X142260320Y-142849600D02*
X141625320Y-142849600D01*
X141625320Y-142849600D02*
X141625320Y-142214600D01*
X141625320Y-142214600D02*
X141625320Y-141579600D01*
X141625320Y-141579600D02*
X141625320Y-140944600D01*
X141625320Y-140944600D02*
X141625320Y-140309600D01*
X141625320Y-140309600D02*
X141625320Y-139674600D01*
X141625320Y-139674600D02*
X141625320Y-139039600D01*
X141625320Y-139039600D02*
X141625320Y-138087100D01*
X141625320Y-138087100D02*
X142260320Y-138087100D01*
X142260320Y-138087100D02*
X142260320Y-136182100D01*
X142260320Y-136182100D02*
X147340320Y-136182100D01*
X147340320Y-136182100D02*
X147340320Y-138087100D01*
X147340320Y-138087100D02*
X147975320Y-138087100D01*
X147975320Y-138087100D02*
X147975320Y-139039600D01*
X147975320Y-139039600D02*
X147975320Y-139674600D01*
X147975320Y-139674600D02*
X147975320Y-140309600D01*
X147975320Y-140309600D02*
X147975320Y-140944600D01*
X147975320Y-140944600D02*
X147975320Y-141579600D01*
X147975320Y-141579600D02*
X147975320Y-142214600D01*
X147975320Y-142214600D02*
X147975320Y-142849600D01*
X147975320Y-142849600D02*
X147340320Y-142849600D01*
X147340320Y-142849600D02*
X147340320Y-143802100D01*
X147340320Y-143802100D02*
X142260320Y-143802100D01*
X142260320Y-142849600D02*
X147340320Y-142849600D01*
X141625320Y-142849600D02*
X147975320Y-142214600D01*
X141625320Y-142214600D02*
X147975320Y-141579600D01*
X141625320Y-141579600D02*
X147975320Y-140944600D01*
X141625320Y-140944600D02*
X147975320Y-140309600D01*
X141625320Y-140309600D02*
X147975320Y-139674600D01*
X141625320Y-139674600D02*
X147975320Y-139039600D01*
X145117820Y-131419600D02*
X144482820Y-131419600D01*
X144482820Y-131419600D02*
X144482820Y-134594600D01*
X145117820Y-131419600D02*
X145117820Y-134594600D01*
X141625320Y-139039600D02*
X147975320Y-138404600D01*
X142800320Y-134594600D02*
X142800320Y-130784600D01*
X142800320Y-130784600D02*
X141800320Y-130784600D01*
X141800320Y-134594600D02*
X141800320Y-130784600D01*
X146800320Y-134594600D02*
X146800320Y-130784600D01*
X146800320Y-130784600D02*
X147800320Y-130784600D01*
X146800320Y-134594600D02*
X146800320Y-130784600D01*
X146800320Y-130784600D02*
X147800320Y-130784600D01*
X147800320Y-134594600D02*
X147800320Y-130784600D01*
X148050320Y-134594600D02*
X141550320Y-134594600D01*
X148050320Y-136118600D02*
X141550320Y-136118600D01*
X148050320Y-134594600D02*
X148050320Y-136118600D01*
X141550320Y-134594600D02*
X141550320Y-136118600D01*
M02*
