G04 #@! TF.FileFunction,Paste,Top*
%FSLAX46Y46*%
G04 Gerber Fmt 4.6, Leading zero omitted, Abs format (unit mm)*
G04 Created by KiCad (PCBNEW 4.0.7) date 05/08/19 21:53:06*
%MOMM*%
%LPD*%
G01*
G04 APERTURE LIST*
%ADD10C,0.100000*%
%ADD11R,0.800000X0.750000*%
%ADD12R,1.000000X1.250000*%
%ADD13R,1.250000X1.000000*%
%ADD14R,0.750000X0.800000*%
%ADD15R,0.500000X2.300000*%
%ADD16R,2.000000X2.500000*%
%ADD17R,1.300000X0.700000*%
%ADD18R,0.500000X0.900000*%
%ADD19R,0.250000X0.700000*%
%ADD20R,0.700000X0.250000*%
%ADD21R,1.035000X1.035000*%
%ADD22R,0.300000X0.500000*%
%ADD23R,0.500000X0.300000*%
%ADD24R,0.690000X0.690000*%
%ADD25R,0.900000X0.500000*%
%ADD26R,1.060000X0.650000*%
%ADD27R,0.900000X0.800000*%
%ADD28R,2.100000X1.700000*%
%ADD29R,0.800000X0.900000*%
G04 APERTURE END LIST*
D10*
D11*
X138449000Y-82486000D03*
X136949000Y-82486000D03*
D12*
X148329000Y-80416000D03*
X150329000Y-80416000D03*
X142579000Y-70656000D03*
X144579000Y-70656000D03*
X148549000Y-84106000D03*
X150549000Y-84106000D03*
D13*
X120989000Y-81026000D03*
X120989000Y-79026000D03*
D12*
X144619000Y-73926000D03*
X142619000Y-73926000D03*
D13*
X120979000Y-74286000D03*
X120979000Y-76286000D03*
D12*
X142539000Y-76596000D03*
X144539000Y-76596000D03*
D11*
X119699000Y-70226000D03*
X118199000Y-70226000D03*
X119649000Y-64326000D03*
X118149000Y-64326000D03*
D14*
X127706120Y-107352400D03*
X127706120Y-108852400D03*
X135366760Y-114428840D03*
X135366760Y-115928840D03*
D11*
X142269000Y-109026000D03*
X143769000Y-109026000D03*
D14*
X139755880Y-114428840D03*
X139755880Y-115928840D03*
X144023080Y-114439000D03*
X144023080Y-115939000D03*
D11*
X132103560Y-113926620D03*
X130603560Y-113926620D03*
X128385000Y-113042700D03*
X126885000Y-113042700D03*
D12*
X148809000Y-76506000D03*
X150809000Y-76506000D03*
D14*
X144079000Y-102726000D03*
X144079000Y-104226000D03*
D11*
X148859000Y-92326000D03*
X150359000Y-92326000D03*
X144209000Y-89446000D03*
X142709000Y-89446000D03*
X133119000Y-94106000D03*
X131619000Y-94106000D03*
X135999000Y-94056000D03*
X137499000Y-94056000D03*
D14*
X124190760Y-107372720D03*
X124190760Y-108872720D03*
D11*
X148879000Y-88296000D03*
X150379000Y-88296000D03*
X133129720Y-96418400D03*
X131629720Y-96418400D03*
D13*
X126911100Y-127568200D03*
X126911100Y-125568200D03*
D14*
X131221480Y-125825820D03*
X131221480Y-127325820D03*
X135384540Y-125602300D03*
X135384540Y-127102300D03*
X148094700Y-122936700D03*
X148094700Y-121436700D03*
X131109720Y-120545160D03*
X131109720Y-122045160D03*
D11*
X140409360Y-121798080D03*
X138909360Y-121798080D03*
D14*
X135161020Y-120489280D03*
X135161020Y-121989280D03*
D11*
X131700840Y-117579140D03*
X133200840Y-117579140D03*
D12*
X150799000Y-73926000D03*
X148799000Y-73926000D03*
D13*
X139090000Y-65820000D03*
X139090000Y-63820000D03*
D12*
X148959000Y-62786000D03*
X146959000Y-62786000D03*
D15*
X137619000Y-50996000D03*
X136819000Y-50996000D03*
X136019000Y-50996000D03*
X135219000Y-50996000D03*
X134419000Y-50996000D03*
D16*
X140469000Y-50896000D03*
X140469000Y-45396000D03*
X131569000Y-50896000D03*
X131569000Y-45396000D03*
D17*
X144360900Y-125884900D03*
X144360900Y-127784900D03*
X144322800Y-121274800D03*
X144322800Y-123174800D03*
X123090940Y-123642080D03*
X123090940Y-125542080D03*
X126796800Y-121312900D03*
X126796800Y-123212900D03*
X123035060Y-119004040D03*
X123035060Y-120904040D03*
X127939800Y-116855200D03*
X127939800Y-118755200D03*
D18*
X133219000Y-65206000D03*
X134719000Y-65206000D03*
X135267000Y-89590880D03*
X136767000Y-89590880D03*
D19*
X133779000Y-78966000D03*
X134279000Y-78966000D03*
X134779000Y-78966000D03*
X135279000Y-78966000D03*
X135779000Y-78966000D03*
X136279000Y-78966000D03*
X136779000Y-78966000D03*
X137279000Y-78966000D03*
D20*
X137929000Y-78316000D03*
X137929000Y-77816000D03*
X137929000Y-77316000D03*
X137929000Y-76816000D03*
X137929000Y-76316000D03*
X137929000Y-75816000D03*
X137929000Y-75316000D03*
X137929000Y-74816000D03*
D19*
X137279000Y-74166000D03*
X136779000Y-74166000D03*
X136279000Y-74166000D03*
X135779000Y-74166000D03*
X135279000Y-74166000D03*
X134779000Y-74166000D03*
X134279000Y-74166000D03*
X133779000Y-74166000D03*
D20*
X133129000Y-74816000D03*
X133129000Y-75316000D03*
X133129000Y-75816000D03*
X133129000Y-76316000D03*
X133129000Y-76816000D03*
X133129000Y-77316000D03*
X133129000Y-77816000D03*
X133129000Y-78316000D03*
D21*
X136391500Y-75703500D03*
X134666500Y-75703500D03*
X136391500Y-77428500D03*
X134666500Y-77428500D03*
D22*
X133109000Y-108426000D03*
X133609000Y-108426000D03*
X134109000Y-108426000D03*
X134609000Y-108426000D03*
X135109000Y-108426000D03*
X135609000Y-108426000D03*
X136109000Y-108426000D03*
X136609000Y-108426000D03*
X137109000Y-108426000D03*
X137609000Y-108426000D03*
D23*
X138359000Y-107676000D03*
X138359000Y-107176000D03*
X138359000Y-106676000D03*
X138359000Y-106176000D03*
X138359000Y-105676000D03*
X138359000Y-105176000D03*
X138359000Y-104676000D03*
X138359000Y-104176000D03*
X138359000Y-103676000D03*
X138359000Y-103176000D03*
D22*
X137609000Y-102426000D03*
X137109000Y-102426000D03*
X136609000Y-102426000D03*
X136109000Y-102426000D03*
X135609000Y-102426000D03*
X135109000Y-102426000D03*
X134609000Y-102426000D03*
X134109000Y-102426000D03*
X133609000Y-102426000D03*
X133109000Y-102426000D03*
D23*
X132359000Y-103176000D03*
X132359000Y-103676000D03*
X132359000Y-104176000D03*
X132359000Y-104676000D03*
X132359000Y-105176000D03*
X132359000Y-105676000D03*
X132359000Y-106176000D03*
X132359000Y-106676000D03*
X132359000Y-107176000D03*
X132359000Y-107676000D03*
D24*
X137084000Y-103701000D03*
X135934000Y-103701000D03*
X134784000Y-103701000D03*
X133634000Y-103701000D03*
X137084000Y-104851000D03*
X135934000Y-104851000D03*
X134784000Y-104851000D03*
X133634000Y-104851000D03*
X137084000Y-106001000D03*
X135934000Y-106001000D03*
X134784000Y-106001000D03*
X133634000Y-106001000D03*
X137084000Y-107151000D03*
X135934000Y-107151000D03*
X134784000Y-107151000D03*
X133634000Y-107151000D03*
D12*
X139220000Y-72410000D03*
X141220000Y-72410000D03*
D25*
X117690000Y-57240000D03*
X117690000Y-55740000D03*
D14*
X151610000Y-71240000D03*
X151610000Y-69740000D03*
D25*
X120050000Y-66730000D03*
X120050000Y-68230000D03*
D26*
X147400000Y-65560000D03*
X147400000Y-66510000D03*
X147400000Y-67460000D03*
X149600000Y-67460000D03*
X149600000Y-65560000D03*
D27*
X143930000Y-57340000D03*
X143930000Y-59240000D03*
X145930000Y-58290000D03*
D28*
X122690000Y-69260000D03*
X128590000Y-69260000D03*
X128590000Y-66560000D03*
X122690000Y-66560000D03*
D29*
X132020000Y-59220000D03*
X133920000Y-59220000D03*
X132970000Y-57220000D03*
X138940000Y-59230000D03*
X140840000Y-59230000D03*
X139890000Y-57230000D03*
D18*
X124220000Y-85260000D03*
X125720000Y-85260000D03*
X124240000Y-87990000D03*
X125740000Y-87990000D03*
X124260000Y-90850000D03*
X125760000Y-90850000D03*
X124240000Y-93550000D03*
X125740000Y-93550000D03*
D13*
X116560000Y-78950000D03*
X116560000Y-80950000D03*
D14*
X142750000Y-97380000D03*
X142750000Y-98880000D03*
M02*
