M48
;DRILL file {KiCad 4.0.7} date 05/08/19 21:53:50
;FORMAT={-:-/ absolute / metric / decimal}
FMAT,2
METRIC,TZ
T1C0.300
T2C0.400
T3C0.700
T4C0.800
T5C1.500
T6C3.000
%
G90
G05
M71
T1
X117.331Y-131.319
X117.331Y-132.069
X117.331Y-132.819
X118.081Y-131.319
X118.081Y-132.069
X118.081Y-132.819
X122.331Y-131.319
X122.331Y-132.069
X122.331Y-132.819
X123.081Y-131.319
X123.081Y-132.069
X123.081Y-132.819
X125.454Y-131.326
X125.454Y-132.076
X125.454Y-132.826
X126.204Y-131.326
X126.204Y-132.076
X126.204Y-132.826
X130.454Y-131.326
X130.454Y-132.076
X130.454Y-132.826
X131.204Y-131.326
X131.204Y-132.076
X131.204Y-132.826
X133.828Y-131.319
X133.828Y-132.069
X133.828Y-132.819
X134.578Y-131.319
X134.578Y-132.069
X134.578Y-132.819
X138.828Y-131.319
X138.828Y-132.069
X138.828Y-132.819
X139.578Y-131.319
X139.578Y-132.069
X139.578Y-132.819
X141.925Y-131.345
X141.925Y-132.095
X141.925Y-132.845
X142.675Y-131.345
X142.675Y-132.095
X142.675Y-132.845
X146.925Y-131.345
X146.925Y-132.095
X146.925Y-132.845
X147.675Y-131.345
X147.675Y-132.095
X147.675Y-132.845
X149.665Y-131.373
X149.665Y-132.123
X149.665Y-132.873
X150.415Y-131.373
X150.415Y-132.123
X150.415Y-132.873
X154.665Y-131.373
X154.665Y-132.123
X154.665Y-132.873
X155.415Y-131.373
X155.415Y-132.123
X155.415Y-132.873
T2
X116.689Y-77.656
X116.96Y-59.48
X117.64Y-66.87
X117.93Y-72.92
X119.089Y-77.646
X121.383Y-120.283
X126.169Y-82.706
X128.039Y-81.426
X128.359Y-111.542
X129.609Y-104.866
X129.769Y-98.446
X130.28Y-55.17
X130.37Y-77.31
X130.485Y-100.399
X130.64Y-80.75
X130.779Y-82.766
X131.125Y-107.579
X131.628Y-97.757
X131.66Y-69.51
X131.869Y-83.466
X131.93Y-73.3
X131.979Y-84.806
X132.11Y-112.558
X132.119Y-79.176
X132.119Y-86.516
X132.177Y-109.55
X132.269Y-88.176
X132.339Y-89.876
X132.695Y-99.974
X133.045Y-110.993
X133.92Y-60.81
X134.309Y-62.056
X134.6Y-109.819
X134.612Y-100.033
X134.63Y-95.341
X134.757Y-97.82
X135.087Y-110.612
X135.666Y-97.749
X135.674Y-100.261
X135.857Y-111.061
X136.059Y-56.066
X136.429Y-105.496
X136.629Y-59.806
X136.87Y-127.549
X137.312Y-121.905
X137.411Y-117.188
X138.28Y-55.91
X138.409Y-70.656
X139.229Y-81.286
X139.399Y-99.276
X139.909Y-80.196
X140.315Y-109.042
X140.37Y-60.97
X140.549Y-68.176
X140.569Y-75.336
X141.829Y-112.817
X141.869Y-80.786
X142.723Y-114.524
X142.738Y-92.613
X142.759Y-79.166
X144.02Y-92.81
X144.059Y-105.486
X144.2Y-99.49
X144.899Y-82.116
X144.979Y-85.546
X144.999Y-61.596
X145.219Y-101.116
X145.919Y-80.416
X145.979Y-75.336
X146.15Y-72.07
X146.599Y-77.846
X146.62Y-76.596
X148.153Y-114.953
X148.209Y-110.175
X148.717Y-97.414
X148.778Y-105.481
X150.444Y-94.948
X150.664Y-126.598
X152.389Y-99.506
T3
X118.869Y-88.746
X118.899Y-91.336
X118.929Y-86.156
X118.949Y-83.556
X118.979Y-93.966
T4
X121.75Y-55.74
X124.29Y-55.74
X142.499Y-64.986
X144.999Y-64.986
T5
X125.809Y-65.336
X125.809Y-70.236
T6
X118.Y-50.
X118.Y-124.
X154.5Y-50.
X154.5Y-124.
T0
M30
