G04 #@! TF.FileFunction,Other,ECO2*
%FSLAX46Y46*%
G04 Gerber Fmt 4.6, Leading zero omitted, Abs format (unit mm)*
G04 Created by KiCad (PCBNEW 4.0.7) date 04/25/19 22:47:30*
%MOMM*%
%LPD*%
G01*
G04 APERTURE LIST*
%ADD10C,0.100000*%
%ADD11C,0.300000*%
G04 APERTURE END LIST*
D10*
D11*
X164976107Y-82717958D02*
X164976139Y-83003673D01*
X165047583Y-83146522D01*
X165119020Y-83217942D01*
X165333320Y-83360776D01*
X165619043Y-83432173D01*
X166190471Y-83432110D01*
X166333320Y-83360666D01*
X166404741Y-83289229D01*
X166476155Y-83146364D01*
X166476123Y-82860650D01*
X166404678Y-82717800D01*
X166333242Y-82646380D01*
X166190377Y-82574967D01*
X165833234Y-82575006D01*
X165690385Y-82646451D01*
X165618964Y-82717887D01*
X165547551Y-82860753D01*
X165547583Y-83146467D01*
X165619027Y-83289316D01*
X165690463Y-83360737D01*
X165833328Y-83432149D01*
X166476289Y-84360649D02*
X166476304Y-84503506D01*
X166404891Y-84646371D01*
X166333470Y-84717808D01*
X166190621Y-84789253D01*
X165904915Y-84860712D01*
X165547772Y-84860752D01*
X165262050Y-84789355D01*
X165119185Y-84717942D01*
X165047748Y-84646521D01*
X164976304Y-84503672D01*
X164976289Y-84360815D01*
X165047701Y-84217950D01*
X165119122Y-84146513D01*
X165261971Y-84075069D01*
X165547677Y-84003609D01*
X165904820Y-84003569D01*
X166190542Y-84074967D01*
X166333407Y-84146379D01*
X166404844Y-84217800D01*
X166476289Y-84360649D01*
X165119272Y-85503656D02*
X165047851Y-85575092D01*
X164976415Y-85503672D01*
X165047835Y-85432235D01*
X165119272Y-85503656D01*
X164976415Y-85503672D01*
X166476564Y-86860649D02*
X166476533Y-86574935D01*
X166405088Y-86432086D01*
X166333651Y-86360665D01*
X166119350Y-86217832D01*
X165833628Y-86146434D01*
X165262200Y-86146497D01*
X165119350Y-86217942D01*
X165047929Y-86289378D01*
X164976517Y-86432244D01*
X164976549Y-86717958D01*
X165047992Y-86860807D01*
X165119429Y-86932228D01*
X165262294Y-87003640D01*
X165619437Y-87003601D01*
X165762286Y-86932157D01*
X165833706Y-86860720D01*
X165905120Y-86717855D01*
X165905088Y-86432141D01*
X165833643Y-86289291D01*
X165762207Y-86217871D01*
X165619343Y-86146458D01*
X165833817Y-87860720D02*
X165905230Y-87717854D01*
X165976651Y-87646419D01*
X166119500Y-87574974D01*
X166190928Y-87574966D01*
X166333793Y-87646379D01*
X166405230Y-87717799D01*
X166476675Y-87860649D01*
X166476706Y-88146363D01*
X166405293Y-88289228D01*
X166333872Y-88360665D01*
X166191023Y-88432109D01*
X166119595Y-88432117D01*
X165976730Y-88360705D01*
X165905293Y-88289283D01*
X165833848Y-88146434D01*
X165833817Y-87860720D01*
X165762373Y-87717870D01*
X165690936Y-87646450D01*
X165548071Y-87575037D01*
X165262357Y-87575068D01*
X165119508Y-87646513D01*
X165048087Y-87717949D01*
X164976675Y-87860815D01*
X164976706Y-88146529D01*
X165048150Y-88289378D01*
X165119587Y-88360799D01*
X165262452Y-88432211D01*
X165548166Y-88432180D01*
X165691015Y-88360736D01*
X165762436Y-88289299D01*
X165833848Y-88146434D01*
X166476840Y-89360648D02*
X166476856Y-89503505D01*
X166405443Y-89646370D01*
X166334021Y-89717807D01*
X166191172Y-89789252D01*
X165905466Y-89860711D01*
X165548323Y-89860751D01*
X165262601Y-89789354D01*
X165119736Y-89717941D01*
X165048300Y-89646520D01*
X164976856Y-89503671D01*
X164976840Y-89360814D01*
X165048252Y-89217949D01*
X165119673Y-89146512D01*
X165262523Y-89075068D01*
X165548229Y-89003608D01*
X165905372Y-89003568D01*
X166191094Y-89074966D01*
X166333958Y-89146378D01*
X166405395Y-89217799D01*
X166476840Y-89360648D01*
X164977092Y-91646528D02*
X165977092Y-91646418D01*
X165834234Y-91646433D02*
X165905671Y-91717853D01*
X165977116Y-91860704D01*
X165977139Y-92074989D01*
X165905726Y-92217853D01*
X165762877Y-92289298D01*
X164977163Y-92289385D01*
X165762877Y-92289298D02*
X165905742Y-92360711D01*
X165977187Y-92503561D01*
X165977210Y-92717846D01*
X165905797Y-92860711D01*
X165762948Y-92932155D01*
X164977234Y-92932242D01*
X164977313Y-93646528D02*
X165977313Y-93646418D01*
X165834455Y-93646433D02*
X165905892Y-93717853D01*
X165977336Y-93860704D01*
X165977360Y-94074989D01*
X165905947Y-94217853D01*
X165763098Y-94289298D01*
X164977384Y-94289385D01*
X165763098Y-94289298D02*
X165905962Y-94360711D01*
X165977407Y-94503561D01*
X165977431Y-94717846D01*
X165906018Y-94860711D01*
X165763168Y-94932155D01*
X164977454Y-94932242D01*
X164300348Y-43449460D02*
X164310348Y-134129460D01*
X159400000Y-43450000D02*
X167000348Y-43449162D01*
X159410000Y-134130000D02*
X167010348Y-134129162D01*
X164310348Y-134129460D02*
X163723803Y-133003021D01*
X164310348Y-134129460D02*
X164896645Y-133002892D01*
X164300348Y-43449460D02*
X163714051Y-44576028D01*
X164300348Y-43449460D02*
X164886893Y-44575899D01*
X130769061Y-39124828D02*
X130769277Y-40124828D01*
X130411794Y-38553477D02*
X130054883Y-39624982D01*
X130983455Y-39624782D01*
X132197524Y-38624519D02*
X131911810Y-38624581D01*
X131768968Y-38696041D01*
X131697554Y-38767485D01*
X131554744Y-38981801D01*
X131483377Y-39267532D01*
X131483500Y-39838960D01*
X131554960Y-39981801D01*
X131626403Y-40053215D01*
X131769277Y-40124612D01*
X132054991Y-40124550D01*
X132197832Y-40053091D01*
X132269246Y-39981647D01*
X132340643Y-39838774D01*
X132340566Y-39481631D01*
X132269107Y-39338790D01*
X132197662Y-39267377D01*
X132054790Y-39195979D01*
X131769076Y-39196041D01*
X131626234Y-39267501D01*
X131554821Y-39338944D01*
X131483423Y-39481817D01*
X132983531Y-39981492D02*
X133054974Y-40052906D01*
X132983562Y-40124349D01*
X132912117Y-40052937D01*
X132983531Y-39981492D01*
X132983562Y-40124349D01*
X133626125Y-38767068D02*
X133697539Y-38695624D01*
X133840380Y-38624164D01*
X134197523Y-38624087D01*
X134340396Y-38695485D01*
X134411840Y-38766898D01*
X134483299Y-38909740D01*
X134483330Y-39052597D01*
X134411948Y-39266898D01*
X133554991Y-40124226D01*
X134483562Y-40124025D01*
X135768951Y-38623747D02*
X135483237Y-38623809D01*
X135340396Y-38695269D01*
X135268982Y-38766713D01*
X135126172Y-38981029D01*
X135054804Y-39266759D01*
X135054928Y-39838187D01*
X135126388Y-39981029D01*
X135197831Y-40052443D01*
X135340705Y-40123840D01*
X135626419Y-40123778D01*
X135769260Y-40052319D01*
X135840674Y-39980875D01*
X135912071Y-39838002D01*
X135911994Y-39480859D01*
X135840535Y-39338018D01*
X135769090Y-39266605D01*
X135626218Y-39195207D01*
X135340504Y-39195269D01*
X135197661Y-39266729D01*
X135126249Y-39338172D01*
X135054851Y-39481044D01*
X136840379Y-38623515D02*
X136983236Y-38623485D01*
X137126109Y-38694883D01*
X137197553Y-38766296D01*
X137269013Y-38909138D01*
X137340503Y-39194836D01*
X137340580Y-39551979D01*
X137269214Y-39837709D01*
X137197816Y-39980581D01*
X137126402Y-40052026D01*
X136983561Y-40123485D01*
X136840704Y-40123515D01*
X136697831Y-40052118D01*
X136626387Y-39980705D01*
X136554928Y-39837863D01*
X136483437Y-39552165D01*
X136483360Y-39195022D01*
X136554727Y-38909292D01*
X136626124Y-38766420D01*
X136697538Y-38694975D01*
X136840379Y-38623515D01*
X139126418Y-40123021D02*
X139126201Y-39123021D01*
X139126232Y-39265879D02*
X139197645Y-39194435D01*
X139340487Y-39122975D01*
X139554772Y-39122929D01*
X139697645Y-39194327D01*
X139769105Y-39337168D01*
X139769275Y-40122882D01*
X139769105Y-39337168D02*
X139840503Y-39194296D01*
X139983344Y-39122836D01*
X140197629Y-39122790D01*
X140340503Y-39194188D01*
X140411962Y-39337029D01*
X140412132Y-40122743D01*
X141126418Y-40122589D02*
X141126201Y-39122589D01*
X141126232Y-39265447D02*
X141197645Y-39194003D01*
X141340487Y-39122543D01*
X141554772Y-39122496D01*
X141697645Y-39193895D01*
X141769105Y-39336736D01*
X141769275Y-40122450D01*
X141769105Y-39336736D02*
X141840503Y-39193864D01*
X141983344Y-39122404D01*
X142197629Y-39122357D01*
X142340503Y-39193756D01*
X142411962Y-39336597D01*
X142412132Y-40122311D01*
X113139421Y-40800068D02*
X159399421Y-40790068D01*
X113140000Y-43480000D02*
X113138837Y-38100068D01*
X159400000Y-43470000D02*
X159398837Y-38090068D01*
X159399421Y-40790068D02*
X158273044Y-41376732D01*
X159399421Y-40790068D02*
X158272791Y-40203891D01*
X113139421Y-40800068D02*
X114266051Y-41386245D01*
X113139421Y-40800068D02*
X114265798Y-40213404D01*
M02*
