M48
;DRILL file {KiCad 4.0.7} date 02/23/19 09:40:11
;FORMAT={-:-/ absolute / inch / decimal}
FMAT,2
INCH,TZ
T1C0.012
T2C0.016
T3C0.028
T4C0.031
T5C0.059
T6C0.118
%
G90
G05
M72
T1
X4.6193Y-5.17
X4.6193Y-5.1996
X4.6193Y-5.2291
X4.6488Y-5.17
X4.6488Y-5.1996
X4.6488Y-5.2291
X4.8162Y-5.17
X4.8162Y-5.1996
X4.8162Y-5.2291
X4.8457Y-5.17
X4.8457Y-5.1996
X4.8457Y-5.2291
X4.9391Y-5.1703
X4.9391Y-5.1998
X4.9391Y-5.2294
X4.9687Y-5.1703
X4.9687Y-5.1998
X4.9687Y-5.2294
X5.136Y-5.1703
X5.136Y-5.1998
X5.136Y-5.2294
X5.1655Y-5.1703
X5.1655Y-5.1998
X5.1655Y-5.2294
X5.2688Y-5.17
X5.2688Y-5.1996
X5.2688Y-5.2291
X5.2983Y-5.17
X5.2983Y-5.1996
X5.2983Y-5.2291
X5.4657Y-5.17
X5.4657Y-5.1996
X5.4657Y-5.2291
X5.4952Y-5.17
X5.4952Y-5.1996
X5.4952Y-5.2291
X5.5876Y-5.171
X5.5876Y-5.2006
X5.5876Y-5.2301
X5.6171Y-5.171
X5.6171Y-5.2006
X5.6171Y-5.2301
X5.7845Y-5.171
X5.7845Y-5.2006
X5.7845Y-5.2301
X5.814Y-5.171
X5.814Y-5.2006
X5.814Y-5.2301
X5.8923Y-5.1721
X5.8923Y-5.2017
X5.8923Y-5.2312
X5.9218Y-5.1721
X5.9218Y-5.2017
X5.9218Y-5.2312
X6.0892Y-5.1721
X6.0892Y-5.2017
X6.0892Y-5.2312
X6.1187Y-5.1721
X6.1187Y-5.2017
X6.1187Y-5.2312
T2
X4.5941Y-3.0573
X4.6885Y-3.0569
X4.7789Y-4.7355
X4.9673Y-3.2561
X5.0409Y-3.2057
X5.0535Y-4.3914
X5.1027Y-4.1286
X5.109Y-3.8758
X5.1366Y-3.1093
X5.1372Y-3.9527
X5.1488Y-3.2585
X5.1624Y-4.2354
X5.1822Y-3.8487
X5.1917Y-3.2861
X5.196Y-3.3388
X5.1976Y-2.8979
X5.2012Y-4.4314
X5.2015Y-3.1172
X5.2015Y-3.4061
X5.2038Y-4.313
X5.2074Y-3.4715
X5.2102Y-3.5384
X5.2242Y-3.936
X5.238Y-4.3698
X5.2835Y-2.113
X5.2878Y-2.4431
X5.2889Y-2.3561
X5.2992Y-4.3236
X5.2997Y-3.9383
X5.3004Y-3.7536
X5.3054Y-3.8512
X5.307Y-2.1542
X5.3184Y-4.3548
X5.3412Y-3.8484
X5.3415Y-3.9473
X5.3487Y-4.3725
X5.3567Y-2.2073
X5.3712Y-4.1534
X5.3791Y-2.3546
X5.3886Y-5.0216
X5.406Y-4.7994
X5.4099Y-4.6137
X5.4492Y-2.7817
X5.4815Y-3.2002
X5.4881Y-3.9085
X5.5082Y-3.1573
X5.5242Y-4.293
X5.5334Y-2.6841
X5.5342Y-2.966
X5.5838Y-4.4416
X5.5854Y-3.1806
X5.5885Y-3.4361
X5.619Y-4.5088
X5.6196Y-3.6462
X5.6204Y-3.1168
X5.6716Y-4.153
X5.7047Y-3.2329
X5.7078Y-3.368
X5.7086Y-2.425
X5.7173Y-3.9809
X5.7398Y-2.1228
X5.7448Y-3.166
X5.7472Y-2.966
X5.7539Y-2.8374
X5.7716Y-3.0648
X5.7724Y-3.0156
X5.8328Y-4.5257
X5.835Y-4.3376
X5.855Y-3.8352
X5.8574Y-4.1528
X5.923Y-3.7381
X5.9317Y-4.9842
X5.9634Y-2.618
X5.9646Y-2.4852
X5.9996Y-3.9176
T3
X4.6799Y-3.4939
X4.6811Y-3.5959
X4.6822Y-3.392
X4.683Y-3.2896
X4.6842Y-3.6994
T4
X5.6102Y-2.5585
X5.7086Y-2.5585
T5
X4.9531Y-2.5723
X4.9531Y-2.7652
T6
X4.6457Y-1.9685
X4.6457Y-4.8819
X6.0827Y-1.9685
X6.0827Y-4.8819
T0
M30
