G04 #@! TF.FileFunction,Copper,L2,Bot,Signal*
%FSLAX46Y46*%
G04 Gerber Fmt 4.6, Leading zero omitted, Abs format (unit mm)*
G04 Created by KiCad (PCBNEW 4.0.7) date 05/08/19 21:53:06*
%MOMM*%
%LPD*%
G01*
G04 APERTURE LIST*
%ADD10C,0.100000*%
%ADD11C,4.064000*%
%ADD12R,1.600000X1.600000*%
%ADD13C,1.600000*%
%ADD14R,2.000000X4.000000*%
%ADD15C,0.400000*%
%ADD16C,2.300000*%
%ADD17C,1.400000*%
%ADD18O,1.600000X1.600000*%
%ADD19C,0.600000*%
%ADD20C,0.200000*%
%ADD21C,0.254000*%
G04 APERTURE END LIST*
D10*
D11*
X154500000Y-124000000D03*
X118000000Y-124000000D03*
X154500000Y-50000000D03*
X118000000Y-50000000D03*
D12*
X142499000Y-64986000D03*
D13*
X144999000Y-64986000D03*
D14*
X130829000Y-132076000D03*
D15*
X131204000Y-132826000D03*
X130454000Y-132826000D03*
X131204000Y-132076000D03*
X130454000Y-132076000D03*
X131204000Y-131326000D03*
X130454000Y-131326000D03*
D14*
X125829000Y-132076000D03*
D15*
X125454000Y-132826000D03*
X126204000Y-132826000D03*
X125454000Y-132076000D03*
X126204000Y-132076000D03*
X125454000Y-131326000D03*
X126204000Y-131326000D03*
D14*
X147300320Y-132094600D03*
D15*
X147675320Y-132844600D03*
X146925320Y-132844600D03*
X147675320Y-132094600D03*
X146925320Y-132094600D03*
X147675320Y-131344600D03*
X146925320Y-131344600D03*
D14*
X142300320Y-132094600D03*
D15*
X141925320Y-132844600D03*
X142675320Y-132844600D03*
X141925320Y-132094600D03*
X142675320Y-132094600D03*
X141925320Y-131344600D03*
X142675320Y-131344600D03*
D14*
X122705500Y-132069200D03*
D15*
X123080500Y-132819200D03*
X122330500Y-132819200D03*
X123080500Y-132069200D03*
X122330500Y-132069200D03*
X123080500Y-131319200D03*
X122330500Y-131319200D03*
D14*
X117705500Y-132069200D03*
D15*
X117330500Y-132819200D03*
X118080500Y-132819200D03*
X117330500Y-132069200D03*
X118080500Y-132069200D03*
X117330500Y-131319200D03*
X118080500Y-131319200D03*
D14*
X139202800Y-132069200D03*
D15*
X139577800Y-132819200D03*
X138827800Y-132819200D03*
X139577800Y-132069200D03*
X138827800Y-132069200D03*
X139577800Y-131319200D03*
X138827800Y-131319200D03*
D14*
X134202800Y-132069200D03*
D15*
X133827800Y-132819200D03*
X134577800Y-132819200D03*
X133827800Y-132069200D03*
X134577800Y-132069200D03*
X133827800Y-131319200D03*
X134577800Y-131319200D03*
D14*
X155039700Y-132122540D03*
D15*
X155414700Y-132872540D03*
X154664700Y-132872540D03*
X155414700Y-132122540D03*
X154664700Y-132122540D03*
X155414700Y-131372540D03*
X154664700Y-131372540D03*
D14*
X150039700Y-132122540D03*
D15*
X149664700Y-132872540D03*
X150414700Y-132872540D03*
X149664700Y-132122540D03*
X150414700Y-132122540D03*
X149664700Y-131372540D03*
X150414700Y-131372540D03*
D16*
X125809000Y-70236000D03*
X125809000Y-65336000D03*
D17*
X118949000Y-83556000D03*
X118929000Y-86156000D03*
X118869000Y-88746000D03*
X118899000Y-91336000D03*
X118979000Y-93966000D03*
D12*
X124290000Y-55740000D03*
D18*
X121750000Y-55740000D03*
D19*
X130484880Y-100398580D03*
X145919000Y-80416000D03*
X145219000Y-101116000D03*
X144979000Y-85546000D03*
X132119000Y-79176000D03*
X142759000Y-79166000D03*
X140370000Y-60970000D03*
X133920000Y-60810000D03*
X117930000Y-72920000D03*
X116960000Y-59480000D03*
X117640000Y-66870000D03*
X138409000Y-70656000D03*
X146599000Y-77846000D03*
X140549000Y-68176000D03*
X130779000Y-82766000D03*
X126169000Y-82706000D03*
X145979000Y-75336000D03*
X140569000Y-75336000D03*
X144200000Y-99490000D03*
X139399000Y-99276000D03*
X152389000Y-99506000D03*
X142722600Y-114523520D03*
X134599680Y-109819440D03*
X141828520Y-112816640D03*
X135856980Y-111061500D03*
X132176520Y-109550200D03*
X132110480Y-112557560D03*
X131627880Y-97756980D03*
X132694680Y-99974400D03*
X136629000Y-59806000D03*
X136059000Y-56066000D03*
X144899000Y-82116000D03*
X139229000Y-81286000D03*
X141869000Y-80786000D03*
X139909000Y-80196000D03*
X129609000Y-104866000D03*
X129769000Y-98446000D03*
X128039000Y-81426000D03*
X130370000Y-77310000D03*
X133045200Y-110992920D03*
X121383120Y-120282680D03*
X136870440Y-127548640D03*
X135087360Y-110611920D03*
X140314680Y-109042200D03*
X150664120Y-126598440D03*
X130280000Y-55170000D03*
X138280000Y-55910000D03*
X131660000Y-69510000D03*
X130640000Y-80750000D03*
X116689000Y-77656000D03*
X119089000Y-77646000D03*
X146620000Y-76596000D03*
X146150000Y-72070000D03*
X137312400Y-121904760D03*
X137411460Y-117187980D03*
X148209000Y-110175040D03*
X148153120Y-114952780D03*
X148717000Y-97414080D03*
X148777960Y-105481120D03*
X150444200Y-94947740D03*
X142737840Y-92613480D03*
X134630160Y-95341440D03*
X136429000Y-105496000D03*
X144059000Y-105486000D03*
X144999000Y-61596000D03*
X134309000Y-62056000D03*
X132119000Y-86516000D03*
X131124960Y-107579160D03*
X128358900Y-111541560D03*
X134757160Y-97820480D03*
X134612380Y-100032820D03*
X135666480Y-97749360D03*
X135674100Y-100261420D03*
X131979000Y-84806000D03*
X132269000Y-88176000D03*
X132339000Y-89876000D03*
X131869000Y-83466000D03*
X131930000Y-73300000D03*
X144020000Y-92810000D03*
D20*
X130484880Y-100398580D02*
X132006340Y-100398580D01*
X132723760Y-101116000D02*
X145219000Y-101116000D01*
X132006340Y-100398580D02*
X132723760Y-101116000D01*
X130484880Y-100398580D02*
X130482340Y-100398580D01*
X145889000Y-84636000D02*
X144979000Y-85546000D01*
X145889000Y-80446000D02*
X145889000Y-84636000D01*
X145889000Y-80446000D02*
X145919000Y-80416000D01*
X145219000Y-101116000D02*
X145069000Y-101266000D01*
X142749000Y-79176000D02*
X132119000Y-79176000D01*
X142759000Y-79166000D02*
X142749000Y-79176000D01*
X134080000Y-60970000D02*
X140370000Y-60970000D01*
X133920000Y-60810000D02*
X134080000Y-60970000D01*
X117420000Y-61970000D02*
X116680000Y-61970000D01*
X115500000Y-70490000D02*
X117930000Y-72920000D01*
X115500000Y-63890000D02*
X115500000Y-70490000D01*
X117420000Y-61970000D02*
X117640000Y-61970000D01*
X115500000Y-63150000D02*
X115500000Y-63890000D01*
X116680000Y-61970000D02*
X115500000Y-63150000D01*
X116960000Y-59480000D02*
X117640000Y-60160000D01*
X117640000Y-60160000D02*
X117640000Y-61970000D01*
X117640000Y-61970000D02*
X117640000Y-66870000D01*
X127019000Y-82766000D02*
X127019000Y-80386000D01*
X127790000Y-79615000D02*
X127019000Y-80386000D01*
X127790000Y-75955000D02*
X127790000Y-79615000D01*
X133229000Y-70516000D02*
X127790000Y-75955000D01*
X134699000Y-70516000D02*
X133229000Y-70516000D01*
X138269000Y-70516000D02*
X134699000Y-70516000D01*
X138269000Y-70516000D02*
X138409000Y-70656000D01*
X147489000Y-76956000D02*
X147489000Y-69856000D01*
X146599000Y-77846000D02*
X147489000Y-76956000D01*
X145809000Y-68176000D02*
X140549000Y-68176000D01*
X147489000Y-69856000D02*
X145809000Y-68176000D01*
X126229000Y-82766000D02*
X127019000Y-82766000D01*
X127019000Y-82766000D02*
X130779000Y-82766000D01*
X126169000Y-82706000D02*
X126229000Y-82766000D01*
X140569000Y-75336000D02*
X145979000Y-75336000D01*
X144140000Y-99430000D02*
X144140000Y-99506000D01*
X144184000Y-99474000D02*
X144140000Y-99430000D01*
X144184000Y-99506000D02*
X144184000Y-99474000D01*
X144200000Y-99490000D02*
X144184000Y-99506000D01*
X139629000Y-99506000D02*
X144140000Y-99506000D01*
X139399000Y-99276000D02*
X139629000Y-99506000D01*
X144140000Y-99506000D02*
X152389000Y-99506000D01*
X142722600Y-111455200D02*
X142722600Y-114523520D01*
X141147800Y-109880400D02*
X142722600Y-111455200D01*
X134660640Y-109880400D02*
X141147800Y-109880400D01*
X134599680Y-109819440D02*
X134660640Y-109880400D01*
X136423400Y-112816640D02*
X141828520Y-112816640D01*
X135793480Y-112186720D02*
X136423400Y-112816640D01*
X135793480Y-111125000D02*
X135793480Y-112186720D01*
X135856980Y-111061500D02*
X135793480Y-111125000D01*
X132176520Y-112491520D02*
X132176520Y-109550200D01*
X132110480Y-112557560D02*
X132176520Y-112491520D01*
X131627880Y-98907600D02*
X131627880Y-97756980D01*
X132694680Y-99974400D02*
X131627880Y-98907600D01*
X136629000Y-56636000D02*
X136629000Y-59806000D01*
X136059000Y-56066000D02*
X136629000Y-56636000D01*
X144809000Y-82206000D02*
X144899000Y-82116000D01*
X140149000Y-82206000D02*
X144809000Y-82206000D01*
X139229000Y-81286000D02*
X140149000Y-82206000D01*
X140499000Y-80786000D02*
X141869000Y-80786000D01*
X139909000Y-80196000D02*
X140499000Y-80786000D01*
X129619000Y-104856000D02*
X129609000Y-104866000D01*
X129619000Y-98596000D02*
X129619000Y-104856000D01*
X129769000Y-98446000D02*
X129619000Y-98596000D01*
X130370000Y-77310000D02*
X130370000Y-77530000D01*
X129250000Y-80215000D02*
X128039000Y-81426000D01*
X129250000Y-78650000D02*
X129250000Y-80215000D01*
X130370000Y-77530000D02*
X129250000Y-78650000D01*
X130370000Y-77330000D02*
X130370000Y-77310000D01*
X133045200Y-110992920D02*
X133075680Y-111023400D01*
X133075680Y-111023400D02*
X133075680Y-114833400D01*
X133075680Y-114833400D02*
X130088640Y-117820440D01*
X130088640Y-117820440D02*
X126705360Y-117820440D01*
X126705360Y-117820440D02*
X121383120Y-120282680D01*
X134635240Y-124927360D02*
X136870440Y-127548640D01*
X134635240Y-111531400D02*
X134635240Y-124927360D01*
X135087360Y-110611920D02*
X134635240Y-111531400D01*
X140314680Y-109042200D02*
X140317220Y-109039660D01*
X140317220Y-109039660D02*
X143710660Y-109039660D01*
X143710660Y-109039660D02*
X146380200Y-111709200D01*
X146380200Y-111709200D02*
X146380200Y-116128800D01*
X146380200Y-116128800D02*
X150664120Y-121472720D01*
X150664120Y-121472720D02*
X150664120Y-126598440D01*
X137540000Y-55170000D02*
X130280000Y-55170000D01*
X138280000Y-55910000D02*
X137540000Y-55170000D01*
X137600000Y-62056000D02*
X137600000Y-69050000D01*
X137140000Y-69510000D02*
X131660000Y-69510000D01*
X137600000Y-69050000D02*
X137140000Y-69510000D01*
X142190000Y-94020000D02*
X142773400Y-94020000D01*
X141190000Y-93020000D02*
X142190000Y-94020000D01*
X141190000Y-88700000D02*
X141190000Y-93020000D01*
X139740000Y-87250000D02*
X141190000Y-88700000D01*
X137140000Y-87250000D02*
X139740000Y-87250000D01*
X130640000Y-80750000D02*
X137140000Y-87250000D01*
X119079000Y-77656000D02*
X116689000Y-77656000D01*
X119089000Y-77646000D02*
X119079000Y-77656000D01*
X146750000Y-72670000D02*
X146150000Y-72070000D01*
X146750000Y-76466000D02*
X146750000Y-72670000D01*
X146750000Y-76466000D02*
X146620000Y-76596000D01*
X150039700Y-132122540D02*
X150039700Y-129418080D01*
X150037800Y-129509520D02*
X150037800Y-129418080D01*
X150037800Y-129419980D02*
X150037800Y-129509520D01*
X150039700Y-129418080D02*
X150037800Y-129419980D01*
X147300320Y-132094600D02*
X147300320Y-129549520D01*
X147300320Y-129549520D02*
X147431760Y-129418080D01*
X142300320Y-132094600D02*
X142300320Y-129581280D01*
X142300320Y-129581280D02*
X142463520Y-129418080D01*
X134202800Y-132069200D02*
X134202800Y-129473320D01*
X134202800Y-129473320D02*
X134147560Y-129418080D01*
X139202800Y-132069200D02*
X139202800Y-129563500D01*
X139202800Y-129563500D02*
X139057380Y-129418080D01*
X130829000Y-132076000D02*
X130829000Y-129739340D01*
X130829000Y-129739340D02*
X130507740Y-129418080D01*
X125829000Y-132076000D02*
X125829000Y-129588200D01*
X125829000Y-129588200D02*
X125658880Y-129418080D01*
X122705500Y-132069200D02*
X122705500Y-129578740D01*
X122705500Y-129578740D02*
X122544840Y-129418080D01*
X117705500Y-132069200D02*
X117705500Y-129647320D01*
X117705500Y-129647320D02*
X117934740Y-129418080D01*
X117934740Y-129418080D02*
X122544840Y-129418080D01*
X155011120Y-130032760D02*
X155011120Y-132093960D01*
X154396440Y-129418080D02*
X155011120Y-130032760D01*
X150037800Y-129418080D02*
X154396440Y-129418080D01*
X147431760Y-129418080D02*
X150037800Y-129418080D01*
X142463520Y-129418080D02*
X147431760Y-129418080D01*
X139057380Y-129418080D02*
X142463520Y-129418080D01*
X130507740Y-129418080D02*
X134147560Y-129418080D01*
X134147560Y-129418080D02*
X139057380Y-129418080D01*
X125658880Y-129418080D02*
X126149100Y-129418080D01*
X126149100Y-129418080D02*
X130507740Y-129418080D01*
X122544840Y-129418080D02*
X125658880Y-129418080D01*
X155011120Y-132093960D02*
X155039700Y-132122540D01*
X137312400Y-117287040D02*
X137312400Y-121904760D01*
X137411460Y-117187980D02*
X137312400Y-117287040D01*
X148209000Y-114896900D02*
X148209000Y-110175040D01*
X148153120Y-114952780D02*
X148209000Y-114896900D01*
X144059000Y-105486000D02*
X148773080Y-105486000D01*
X148704300Y-97345500D02*
X142773400Y-97345500D01*
X148704300Y-97401380D02*
X148704300Y-97345500D01*
X148717000Y-97414080D02*
X148704300Y-97401380D01*
X148773080Y-105486000D02*
X148777960Y-105481120D01*
X150444200Y-94947740D02*
X142984220Y-94947740D01*
X142984220Y-94947740D02*
X142773400Y-94736920D01*
X142737840Y-92613480D02*
X142773400Y-92649040D01*
X142773400Y-92649040D02*
X142773400Y-94020000D01*
X142773400Y-94020000D02*
X142773400Y-94736920D01*
X142773400Y-94736920D02*
X142773400Y-96177100D01*
X142773400Y-96177100D02*
X142773400Y-97345500D01*
X134630160Y-95341440D02*
X136634220Y-97345500D01*
X136634220Y-97345500D02*
X142773400Y-97345500D01*
X144049000Y-105496000D02*
X136429000Y-105496000D01*
X144059000Y-105486000D02*
X144049000Y-105496000D01*
X144539000Y-62056000D02*
X137600000Y-62056000D01*
X137600000Y-62056000D02*
X134309000Y-62056000D01*
X144539000Y-62056000D02*
X144999000Y-61596000D01*
X120969000Y-88746000D02*
X118869000Y-88746000D01*
X122479000Y-87236000D02*
X120969000Y-88746000D01*
X131399000Y-87236000D02*
X122479000Y-87236000D01*
X132119000Y-86516000D02*
X131399000Y-87236000D01*
X131124960Y-108775500D02*
X131124960Y-107579160D01*
X128358900Y-111541560D02*
X131124960Y-108775500D01*
X134757160Y-99888040D02*
X134757160Y-97820480D01*
X134612380Y-100032820D02*
X134757160Y-99888040D01*
X135666480Y-100253800D02*
X135666480Y-97749360D01*
X135674100Y-100261420D02*
X135666480Y-100253800D01*
X121349000Y-86156000D02*
X118929000Y-86156000D01*
X121959000Y-85546000D02*
X121349000Y-86156000D01*
X131239000Y-85546000D02*
X121959000Y-85546000D01*
X131979000Y-84806000D02*
X131239000Y-85546000D01*
X121419000Y-91336000D02*
X118899000Y-91336000D01*
X123239000Y-89516000D02*
X121419000Y-91336000D01*
X130929000Y-89516000D02*
X123239000Y-89516000D01*
X132269000Y-88176000D02*
X130929000Y-89516000D01*
X121519000Y-93966000D02*
X118979000Y-93966000D01*
X124049000Y-91436000D02*
X121519000Y-93966000D01*
X130779000Y-91436000D02*
X124049000Y-91436000D01*
X132339000Y-89876000D02*
X130779000Y-91436000D01*
X118949000Y-83556000D02*
X131779000Y-83556000D01*
X131779000Y-83556000D02*
X131869000Y-83466000D01*
X131930000Y-73300000D02*
X131350000Y-73880000D01*
X131350000Y-73880000D02*
X131350000Y-79650000D01*
X131350000Y-79650000D02*
X137290000Y-85590000D01*
X137290000Y-85590000D02*
X142160000Y-85590000D01*
X142160000Y-85590000D02*
X144020000Y-87450000D01*
X144020000Y-87450000D02*
X144020000Y-92810000D01*
D21*
G36*
X158700400Y-133422320D02*
X156674700Y-133422320D01*
X156674700Y-132408290D01*
X156515950Y-132249540D01*
X156251418Y-132249540D01*
X156260150Y-132222673D01*
X156242292Y-131995540D01*
X156515950Y-131995540D01*
X156674700Y-131836790D01*
X156674700Y-129996231D01*
X156578027Y-129762842D01*
X156399399Y-129584213D01*
X156166010Y-129487540D01*
X155325450Y-129487540D01*
X155166700Y-129646290D01*
X155166700Y-130560157D01*
X155034746Y-130614813D01*
X154912700Y-130575148D01*
X154912700Y-129646290D01*
X154753950Y-129487540D01*
X153913390Y-129487540D01*
X153680001Y-129584213D01*
X153501373Y-129762842D01*
X153404700Y-129996231D01*
X153404700Y-131836790D01*
X153563450Y-131995540D01*
X153827982Y-131995540D01*
X153819250Y-132022407D01*
X153837108Y-132249540D01*
X153563450Y-132249540D01*
X153404700Y-132408290D01*
X153404700Y-133422320D01*
X151674700Y-133422320D01*
X151674700Y-132408290D01*
X151515950Y-132249540D01*
X151251418Y-132249540D01*
X151260150Y-132222673D01*
X151242292Y-131995540D01*
X151515950Y-131995540D01*
X151674700Y-131836790D01*
X151674700Y-129996231D01*
X151578027Y-129762842D01*
X151399399Y-129584213D01*
X151166010Y-129487540D01*
X150325450Y-129487540D01*
X150166700Y-129646290D01*
X150166700Y-130560157D01*
X150034746Y-130614813D01*
X149912700Y-130575148D01*
X149912700Y-129646290D01*
X149753950Y-129487540D01*
X148913390Y-129487540D01*
X148685628Y-129581882D01*
X148660019Y-129556273D01*
X148426630Y-129459600D01*
X147586070Y-129459600D01*
X147427320Y-129618350D01*
X147427320Y-130532217D01*
X147295366Y-130586873D01*
X147173320Y-130547208D01*
X147173320Y-129618350D01*
X147014570Y-129459600D01*
X146174010Y-129459600D01*
X145940621Y-129556273D01*
X145761993Y-129734902D01*
X145665320Y-129968291D01*
X145665320Y-131808850D01*
X145824070Y-131967600D01*
X146088602Y-131967600D01*
X146079870Y-131994467D01*
X146097728Y-132221600D01*
X145824070Y-132221600D01*
X145665320Y-132380350D01*
X145665320Y-133422320D01*
X143935320Y-133422320D01*
X143935320Y-132380350D01*
X143776570Y-132221600D01*
X143512038Y-132221600D01*
X143520770Y-132194733D01*
X143502912Y-131967600D01*
X143776570Y-131967600D01*
X143935320Y-131808850D01*
X143935320Y-129968291D01*
X143838647Y-129734902D01*
X143660019Y-129556273D01*
X143426630Y-129459600D01*
X142586070Y-129459600D01*
X142427320Y-129618350D01*
X142427320Y-130532217D01*
X142295366Y-130586873D01*
X142173320Y-130547208D01*
X142173320Y-129618350D01*
X142014570Y-129459600D01*
X141174010Y-129459600D01*
X140940621Y-129556273D01*
X140761993Y-129734902D01*
X140756821Y-129747389D01*
X140741127Y-129709502D01*
X140562499Y-129530873D01*
X140329110Y-129434200D01*
X139488550Y-129434200D01*
X139329800Y-129592950D01*
X139329800Y-130506817D01*
X139197846Y-130561473D01*
X139075800Y-130521808D01*
X139075800Y-129592950D01*
X138917050Y-129434200D01*
X138076490Y-129434200D01*
X137843101Y-129530873D01*
X137664473Y-129709502D01*
X137567800Y-129942891D01*
X137567800Y-131783450D01*
X137726550Y-131942200D01*
X137991082Y-131942200D01*
X137982350Y-131969067D01*
X138000208Y-132196200D01*
X137726550Y-132196200D01*
X137567800Y-132354950D01*
X137567800Y-133422320D01*
X135837800Y-133422320D01*
X135837800Y-132354950D01*
X135679050Y-132196200D01*
X135414518Y-132196200D01*
X135423250Y-132169333D01*
X135405392Y-131942200D01*
X135679050Y-131942200D01*
X135837800Y-131783450D01*
X135837800Y-129942891D01*
X135741127Y-129709502D01*
X135562499Y-129530873D01*
X135329110Y-129434200D01*
X134488550Y-129434200D01*
X134329800Y-129592950D01*
X134329800Y-130506817D01*
X134197846Y-130561473D01*
X134075800Y-130521808D01*
X134075800Y-129592950D01*
X133917050Y-129434200D01*
X133076490Y-129434200D01*
X132843101Y-129530873D01*
X132664473Y-129709502D01*
X132567800Y-129942891D01*
X132567800Y-131783450D01*
X132726550Y-131942200D01*
X132991082Y-131942200D01*
X132982350Y-131969067D01*
X133000208Y-132196200D01*
X132726550Y-132196200D01*
X132567800Y-132354950D01*
X132567800Y-133422320D01*
X132464000Y-133422320D01*
X132464000Y-132361750D01*
X132305250Y-132203000D01*
X132040718Y-132203000D01*
X132049450Y-132176133D01*
X132031592Y-131949000D01*
X132305250Y-131949000D01*
X132464000Y-131790250D01*
X132464000Y-129949691D01*
X132367327Y-129716302D01*
X132188699Y-129537673D01*
X131955310Y-129441000D01*
X131114750Y-129441000D01*
X130956000Y-129599750D01*
X130956000Y-130513617D01*
X130824046Y-130568273D01*
X130702000Y-130528608D01*
X130702000Y-129599750D01*
X130543250Y-129441000D01*
X129702690Y-129441000D01*
X129469301Y-129537673D01*
X129290673Y-129716302D01*
X129194000Y-129949691D01*
X129194000Y-131790250D01*
X129352750Y-131949000D01*
X129617282Y-131949000D01*
X129608550Y-131975867D01*
X129626408Y-132203000D01*
X129352750Y-132203000D01*
X129194000Y-132361750D01*
X129194000Y-133422320D01*
X127464000Y-133422320D01*
X127464000Y-132361750D01*
X127305250Y-132203000D01*
X127040718Y-132203000D01*
X127049450Y-132176133D01*
X127031592Y-131949000D01*
X127305250Y-131949000D01*
X127464000Y-131790250D01*
X127464000Y-129949691D01*
X127367327Y-129716302D01*
X127188699Y-129537673D01*
X126955310Y-129441000D01*
X126114750Y-129441000D01*
X125956000Y-129599750D01*
X125956000Y-130513617D01*
X125824046Y-130568273D01*
X125702000Y-130528608D01*
X125702000Y-129599750D01*
X125543250Y-129441000D01*
X124702690Y-129441000D01*
X124469301Y-129537673D01*
X124290673Y-129716302D01*
X124268658Y-129769450D01*
X124243827Y-129709502D01*
X124065199Y-129530873D01*
X123831810Y-129434200D01*
X122991250Y-129434200D01*
X122832500Y-129592950D01*
X122832500Y-130506817D01*
X122700546Y-130561473D01*
X122578500Y-130521808D01*
X122578500Y-129592950D01*
X122419750Y-129434200D01*
X121579190Y-129434200D01*
X121345801Y-129530873D01*
X121167173Y-129709502D01*
X121070500Y-129942891D01*
X121070500Y-131783450D01*
X121229250Y-131942200D01*
X121493782Y-131942200D01*
X121485050Y-131969067D01*
X121502908Y-132196200D01*
X121229250Y-132196200D01*
X121070500Y-132354950D01*
X121070500Y-133422320D01*
X119340500Y-133422320D01*
X119340500Y-132354950D01*
X119181750Y-132196200D01*
X118917218Y-132196200D01*
X118925950Y-132169333D01*
X118908092Y-131942200D01*
X119181750Y-131942200D01*
X119340500Y-131783450D01*
X119340500Y-129942891D01*
X119243827Y-129709502D01*
X119065199Y-129530873D01*
X118831810Y-129434200D01*
X117991250Y-129434200D01*
X117832500Y-129592950D01*
X117832500Y-130506817D01*
X117700546Y-130561473D01*
X117578500Y-130521808D01*
X117578500Y-129592950D01*
X117419750Y-129434200D01*
X116579190Y-129434200D01*
X116345801Y-129530873D01*
X116167173Y-129709502D01*
X116070500Y-129942891D01*
X116070500Y-131783450D01*
X116229250Y-131942200D01*
X116493782Y-131942200D01*
X116485050Y-131969067D01*
X116502908Y-132196200D01*
X116229250Y-132196200D01*
X116070500Y-132354950D01*
X116070500Y-133422320D01*
X113841600Y-133422320D01*
X113841600Y-124528172D01*
X115332538Y-124528172D01*
X115737709Y-125508761D01*
X116487293Y-126259655D01*
X117467173Y-126666536D01*
X118528172Y-126667462D01*
X119508761Y-126262291D01*
X120259655Y-125512707D01*
X120666536Y-124532827D01*
X120667462Y-123471828D01*
X120262291Y-122491239D01*
X119512707Y-121740345D01*
X118532827Y-121333464D01*
X117471828Y-121332538D01*
X116491239Y-121737709D01*
X115740345Y-122487293D01*
X115333464Y-123467173D01*
X115332538Y-124528172D01*
X113841600Y-124528172D01*
X113841600Y-120467847D01*
X120447958Y-120467847D01*
X120590003Y-120811623D01*
X120852793Y-121074872D01*
X121196321Y-121217518D01*
X121568287Y-121217842D01*
X121912063Y-121075797D01*
X122175312Y-120813007D01*
X122220015Y-120705350D01*
X126867140Y-118555440D01*
X130088640Y-118555440D01*
X130369912Y-118499491D01*
X130608363Y-118340163D01*
X133595403Y-115353124D01*
X133754731Y-115114673D01*
X133768939Y-115043243D01*
X133810680Y-114833400D01*
X133810680Y-111549912D01*
X133837392Y-111523247D01*
X133980038Y-111179719D01*
X133980362Y-110807753D01*
X133838317Y-110463977D01*
X133575527Y-110200728D01*
X133231999Y-110058082D01*
X132978124Y-110057861D01*
X133000237Y-110004607D01*
X133664518Y-110004607D01*
X133806563Y-110348383D01*
X134069353Y-110611632D01*
X134152330Y-110646087D01*
X134152198Y-110797087D01*
X134163642Y-110824785D01*
X133975664Y-111207078D01*
X133969492Y-111230218D01*
X133956189Y-111250128D01*
X133932738Y-111368022D01*
X133901759Y-111484174D01*
X133904912Y-111507912D01*
X133900240Y-111531400D01*
X133900240Y-124927360D01*
X133922635Y-125039944D01*
X133936035Y-125153934D01*
X133950432Y-125179690D01*
X133956189Y-125208632D01*
X134019957Y-125304067D01*
X134075964Y-125404262D01*
X135935408Y-127584882D01*
X135935278Y-127733807D01*
X136077323Y-128077583D01*
X136340113Y-128340832D01*
X136683641Y-128483478D01*
X137055607Y-128483802D01*
X137399383Y-128341757D01*
X137662632Y-128078967D01*
X137805278Y-127735439D01*
X137805602Y-127363473D01*
X137663557Y-127019697D01*
X137400767Y-126756448D01*
X137057239Y-126613802D01*
X137039215Y-126613786D01*
X135370240Y-124656534D01*
X135370240Y-112802926D01*
X135903676Y-113336363D01*
X136142127Y-113495691D01*
X136188794Y-113504973D01*
X136423400Y-113551640D01*
X141241101Y-113551640D01*
X141298193Y-113608832D01*
X141641721Y-113751478D01*
X141987600Y-113751779D01*
X141987600Y-113936101D01*
X141930408Y-113993193D01*
X141787762Y-114336721D01*
X141787438Y-114708687D01*
X141929483Y-115052463D01*
X142192273Y-115315712D01*
X142535801Y-115458358D01*
X142907767Y-115458682D01*
X143251543Y-115316637D01*
X143514792Y-115053847D01*
X143657438Y-114710319D01*
X143657762Y-114338353D01*
X143515717Y-113994577D01*
X143457600Y-113936358D01*
X143457600Y-111455200D01*
X143401651Y-111173928D01*
X143242324Y-110935477D01*
X142081506Y-109774660D01*
X143406214Y-109774660D01*
X145645200Y-112013647D01*
X145645200Y-116128800D01*
X145665456Y-116230634D01*
X145674446Y-116334070D01*
X145693212Y-116370169D01*
X145701149Y-116410072D01*
X145758832Y-116496401D01*
X145806722Y-116588525D01*
X149929120Y-121730958D01*
X149929120Y-126011021D01*
X149871928Y-126068113D01*
X149729282Y-126411641D01*
X149728958Y-126783607D01*
X149871003Y-127127383D01*
X150133793Y-127390632D01*
X150477321Y-127533278D01*
X150849287Y-127533602D01*
X151193063Y-127391557D01*
X151456312Y-127128767D01*
X151598958Y-126785239D01*
X151599282Y-126413273D01*
X151457237Y-126069497D01*
X151399120Y-126011278D01*
X151399120Y-124528172D01*
X151832538Y-124528172D01*
X152237709Y-125508761D01*
X152987293Y-126259655D01*
X153967173Y-126666536D01*
X155028172Y-126667462D01*
X156008761Y-126262291D01*
X156759655Y-125512707D01*
X157166536Y-124532827D01*
X157167462Y-123471828D01*
X156762291Y-122491239D01*
X156012707Y-121740345D01*
X155032827Y-121333464D01*
X153971828Y-121332538D01*
X152991239Y-121737709D01*
X152240345Y-122487293D01*
X151833464Y-123467173D01*
X151832538Y-124528172D01*
X151399120Y-124528172D01*
X151399120Y-121472720D01*
X151378862Y-121370877D01*
X151369873Y-121267449D01*
X151351108Y-121231352D01*
X151343171Y-121191448D01*
X151285489Y-121105120D01*
X151237598Y-121012994D01*
X147115200Y-115870563D01*
X147115200Y-111709200D01*
X147059251Y-111427928D01*
X147011453Y-111356393D01*
X146899924Y-111189477D01*
X144230383Y-108519937D01*
X143991932Y-108360609D01*
X143710660Y-108304660D01*
X140899564Y-108304660D01*
X140845007Y-108250008D01*
X140501479Y-108107362D01*
X140129513Y-108107038D01*
X139785737Y-108249083D01*
X139522488Y-108511873D01*
X139379842Y-108855401D01*
X139379589Y-109145400D01*
X135247953Y-109145400D01*
X135130007Y-109027248D01*
X134786479Y-108884602D01*
X134414513Y-108884278D01*
X134070737Y-109026323D01*
X133807488Y-109289113D01*
X133664842Y-109632641D01*
X133664518Y-110004607D01*
X133000237Y-110004607D01*
X133111358Y-109736999D01*
X133111682Y-109365033D01*
X132969637Y-109021257D01*
X132706847Y-108758008D01*
X132363319Y-108615362D01*
X131991353Y-108615038D01*
X131859960Y-108669328D01*
X131859960Y-108166579D01*
X131917152Y-108109487D01*
X132059798Y-107765959D01*
X132060122Y-107393993D01*
X131918077Y-107050217D01*
X131655287Y-106786968D01*
X131311759Y-106644322D01*
X130939793Y-106643998D01*
X130596017Y-106786043D01*
X130332768Y-107048833D01*
X130190122Y-107392361D01*
X130189798Y-107764327D01*
X130331843Y-108108103D01*
X130389960Y-108166322D01*
X130389960Y-108471053D01*
X128254545Y-110606468D01*
X128173733Y-110606398D01*
X127829957Y-110748443D01*
X127566708Y-111011233D01*
X127424062Y-111354761D01*
X127423738Y-111726727D01*
X127565783Y-112070503D01*
X127828573Y-112333752D01*
X128172101Y-112476398D01*
X128544067Y-112476722D01*
X128887843Y-112334677D01*
X129151092Y-112071887D01*
X129293738Y-111728359D01*
X129293810Y-111646096D01*
X131241390Y-109698517D01*
X131241358Y-109735367D01*
X131383403Y-110079143D01*
X131441520Y-110137362D01*
X131441520Y-111904216D01*
X131318288Y-112027233D01*
X131175642Y-112370761D01*
X131175318Y-112742727D01*
X131317363Y-113086503D01*
X131580153Y-113349752D01*
X131923681Y-113492398D01*
X132295647Y-113492722D01*
X132340680Y-113474115D01*
X132340680Y-114528953D01*
X129784194Y-117085440D01*
X126705360Y-117085440D01*
X126690491Y-117088398D01*
X126675520Y-117086047D01*
X126550376Y-117116269D01*
X126424088Y-117141389D01*
X126411486Y-117149810D01*
X126396751Y-117153368D01*
X121613860Y-119366088D01*
X121569919Y-119347842D01*
X121197953Y-119347518D01*
X120854177Y-119489563D01*
X120590928Y-119752353D01*
X120448282Y-120095881D01*
X120447958Y-120467847D01*
X113841600Y-120467847D01*
X113841600Y-105051167D01*
X128673838Y-105051167D01*
X128815883Y-105394943D01*
X129078673Y-105658192D01*
X129422201Y-105800838D01*
X129794167Y-105801162D01*
X130137943Y-105659117D01*
X130401192Y-105396327D01*
X130543838Y-105052799D01*
X130544162Y-104680833D01*
X130402117Y-104337057D01*
X130354000Y-104288856D01*
X130354000Y-101333467D01*
X130670047Y-101333742D01*
X131013823Y-101191697D01*
X131072042Y-101133580D01*
X131701894Y-101133580D01*
X132204036Y-101635723D01*
X132428528Y-101785723D01*
X132442488Y-101795051D01*
X132723760Y-101851000D01*
X144631581Y-101851000D01*
X144688673Y-101908192D01*
X145032201Y-102050838D01*
X145404167Y-102051162D01*
X145747943Y-101909117D01*
X146011192Y-101646327D01*
X146153838Y-101302799D01*
X146154162Y-100930833D01*
X146012117Y-100587057D01*
X145749327Y-100323808D01*
X145549904Y-100241000D01*
X151801581Y-100241000D01*
X151858673Y-100298192D01*
X152202201Y-100440838D01*
X152574167Y-100441162D01*
X152917943Y-100299117D01*
X153181192Y-100036327D01*
X153323838Y-99692799D01*
X153324162Y-99320833D01*
X153182117Y-98977057D01*
X152919327Y-98713808D01*
X152575799Y-98571162D01*
X152203833Y-98570838D01*
X151860057Y-98712883D01*
X151801838Y-98771000D01*
X144803391Y-98771000D01*
X144730327Y-98697808D01*
X144386799Y-98555162D01*
X144014833Y-98554838D01*
X143671057Y-98696883D01*
X143596811Y-98771000D01*
X140202010Y-98771000D01*
X140192117Y-98747057D01*
X139929327Y-98483808D01*
X139585799Y-98341162D01*
X139213833Y-98340838D01*
X138870057Y-98482883D01*
X138606808Y-98745673D01*
X138464162Y-99089201D01*
X138463838Y-99461167D01*
X138605883Y-99804943D01*
X138868673Y-100068192D01*
X139212201Y-100210838D01*
X139478533Y-100211070D01*
X139629000Y-100241000D01*
X143628553Y-100241000D01*
X143669673Y-100282192D01*
X143907628Y-100381000D01*
X136608997Y-100381000D01*
X136609262Y-100076253D01*
X136467217Y-99732477D01*
X136401480Y-99666625D01*
X136401480Y-98336779D01*
X136458672Y-98279687D01*
X136601318Y-97936159D01*
X136601642Y-97564193D01*
X136459597Y-97220417D01*
X136196807Y-96957168D01*
X135853279Y-96814522D01*
X135481313Y-96814198D01*
X135137537Y-96956243D01*
X135130618Y-96963150D01*
X134943959Y-96885642D01*
X134571993Y-96885318D01*
X134228217Y-97027363D01*
X133964968Y-97290153D01*
X133822322Y-97633681D01*
X133821998Y-98005647D01*
X133964043Y-98349423D01*
X134022160Y-98407642D01*
X134022160Y-99300873D01*
X133820188Y-99502493D01*
X133677542Y-99846021D01*
X133677218Y-100217987D01*
X133744573Y-100381000D01*
X133538248Y-100381000D01*
X133629518Y-100161199D01*
X133629842Y-99789233D01*
X133487797Y-99445457D01*
X133225007Y-99182208D01*
X132881479Y-99039562D01*
X132799217Y-99039490D01*
X132362880Y-98603154D01*
X132362880Y-98344399D01*
X132420072Y-98287307D01*
X132562718Y-97943779D01*
X132563042Y-97571813D01*
X132420997Y-97228037D01*
X132158207Y-96964788D01*
X131814679Y-96822142D01*
X131442713Y-96821818D01*
X131098937Y-96963863D01*
X130835688Y-97226653D01*
X130693042Y-97570181D01*
X130692718Y-97942147D01*
X130834763Y-98285923D01*
X130892880Y-98344142D01*
X130892880Y-98907600D01*
X130930750Y-99097982D01*
X130948829Y-99188872D01*
X131108157Y-99427323D01*
X131344414Y-99663580D01*
X131072299Y-99663580D01*
X131015207Y-99606388D01*
X130671679Y-99463742D01*
X130354000Y-99463465D01*
X130354000Y-99183158D01*
X130561192Y-98976327D01*
X130703838Y-98632799D01*
X130704162Y-98260833D01*
X130562117Y-97917057D01*
X130299327Y-97653808D01*
X129955799Y-97511162D01*
X129583833Y-97510838D01*
X129240057Y-97652883D01*
X128976808Y-97915673D01*
X128834162Y-98259201D01*
X128833838Y-98631167D01*
X128884000Y-98752569D01*
X128884000Y-104268598D01*
X128816808Y-104335673D01*
X128674162Y-104679201D01*
X128673838Y-105051167D01*
X113841600Y-105051167D01*
X113841600Y-89010383D01*
X117533769Y-89010383D01*
X117736582Y-89501229D01*
X118111796Y-89877098D01*
X118521845Y-90047365D01*
X118143771Y-90203582D01*
X117767902Y-90578796D01*
X117564232Y-91069287D01*
X117563769Y-91600383D01*
X117766582Y-92091229D01*
X118141796Y-92467098D01*
X118625067Y-92667770D01*
X118223771Y-92833582D01*
X117847902Y-93208796D01*
X117644232Y-93699287D01*
X117643769Y-94230383D01*
X117846582Y-94721229D01*
X118221796Y-95097098D01*
X118712287Y-95300768D01*
X119243383Y-95301231D01*
X119734229Y-95098418D01*
X120110098Y-94723204D01*
X120119318Y-94701000D01*
X121519000Y-94701000D01*
X121800272Y-94645051D01*
X122038723Y-94485723D01*
X124353447Y-92171000D01*
X130779000Y-92171000D01*
X131060272Y-92115051D01*
X131298723Y-91955723D01*
X132443355Y-90811092D01*
X132524167Y-90811162D01*
X132867943Y-90669117D01*
X133131192Y-90406327D01*
X133273838Y-90062799D01*
X133274162Y-89690833D01*
X133132117Y-89347057D01*
X132869327Y-89083808D01*
X132695279Y-89011537D01*
X132797943Y-88969117D01*
X133061192Y-88706327D01*
X133203838Y-88362799D01*
X133204162Y-87990833D01*
X133062117Y-87647057D01*
X132799327Y-87383808D01*
X132633662Y-87315018D01*
X132647943Y-87309117D01*
X132911192Y-87046327D01*
X133053838Y-86702799D01*
X133054162Y-86330833D01*
X132912117Y-85987057D01*
X132649327Y-85723808D01*
X132428295Y-85632027D01*
X132507943Y-85599117D01*
X132771192Y-85336327D01*
X132913838Y-84992799D01*
X132914162Y-84620833D01*
X132772117Y-84277057D01*
X132576387Y-84080985D01*
X132661192Y-83996327D01*
X132803838Y-83652799D01*
X132804162Y-83280833D01*
X132662117Y-82937057D01*
X132399327Y-82673808D01*
X132055799Y-82531162D01*
X131693508Y-82530846D01*
X131572117Y-82237057D01*
X131309327Y-81973808D01*
X130965799Y-81831162D01*
X130593833Y-81830838D01*
X130250057Y-81972883D01*
X130191838Y-82031000D01*
X128756389Y-82031000D01*
X128831192Y-81956327D01*
X128973838Y-81612799D01*
X128973910Y-81530537D01*
X129769724Y-80734723D01*
X129929051Y-80496272D01*
X129985000Y-80215000D01*
X129985000Y-78954446D01*
X130615000Y-78324447D01*
X130615000Y-79650000D01*
X130638263Y-79766949D01*
X130670949Y-79931272D01*
X130830277Y-80169723D01*
X136770277Y-86109724D01*
X136942877Y-86225051D01*
X137008728Y-86269051D01*
X137290000Y-86325000D01*
X141855554Y-86325000D01*
X143285000Y-87754447D01*
X143285000Y-92222581D01*
X143227808Y-92279673D01*
X143085162Y-92623201D01*
X143084838Y-92995167D01*
X143226883Y-93338943D01*
X143489673Y-93602192D01*
X143833201Y-93744838D01*
X144205167Y-93745162D01*
X144548943Y-93603117D01*
X144812192Y-93340327D01*
X144954838Y-92996799D01*
X144955162Y-92624833D01*
X144813117Y-92281057D01*
X144755000Y-92222838D01*
X144755000Y-87450000D01*
X144699051Y-87168728D01*
X144539723Y-86930276D01*
X142679723Y-85070277D01*
X142441272Y-84910949D01*
X142160000Y-84855000D01*
X137594447Y-84855000D01*
X132678280Y-79938833D01*
X132706162Y-79911000D01*
X139014939Y-79911000D01*
X138974162Y-80009201D01*
X138973839Y-80379759D01*
X138700057Y-80492883D01*
X138436808Y-80755673D01*
X138294162Y-81099201D01*
X138293838Y-81471167D01*
X138435883Y-81814943D01*
X138698673Y-82078192D01*
X139042201Y-82220838D01*
X139124463Y-82220910D01*
X139629276Y-82725723D01*
X139867727Y-82885051D01*
X139898475Y-82891167D01*
X140149000Y-82941000D01*
X144447683Y-82941000D01*
X144712201Y-83050838D01*
X145084167Y-83051162D01*
X145154000Y-83022308D01*
X145154000Y-84331553D01*
X144874645Y-84610908D01*
X144793833Y-84610838D01*
X144450057Y-84752883D01*
X144186808Y-85015673D01*
X144044162Y-85359201D01*
X144043838Y-85731167D01*
X144185883Y-86074943D01*
X144448673Y-86338192D01*
X144792201Y-86480838D01*
X145164167Y-86481162D01*
X145507943Y-86339117D01*
X145771192Y-86076327D01*
X145913838Y-85732799D01*
X145913910Y-85650537D01*
X146408723Y-85155724D01*
X146568051Y-84917272D01*
X146578061Y-84866949D01*
X146624000Y-84636000D01*
X146624000Y-81033367D01*
X146711192Y-80946327D01*
X146853838Y-80602799D01*
X146854162Y-80230833D01*
X146712117Y-79887057D01*
X146449327Y-79623808D01*
X146105799Y-79481162D01*
X145733833Y-79480838D01*
X145390057Y-79622883D01*
X145126808Y-79885673D01*
X144984162Y-80229201D01*
X144983838Y-80601167D01*
X145125883Y-80944943D01*
X145154000Y-80973109D01*
X145154000Y-81209482D01*
X145085799Y-81181162D01*
X144713833Y-81180838D01*
X144370057Y-81322883D01*
X144221681Y-81471000D01*
X142506249Y-81471000D01*
X142661192Y-81316327D01*
X142803838Y-80972799D01*
X142804162Y-80600833D01*
X142662117Y-80257057D01*
X142459422Y-80054008D01*
X142572201Y-80100838D01*
X142944167Y-80101162D01*
X143287943Y-79959117D01*
X143551192Y-79696327D01*
X143693838Y-79352799D01*
X143694162Y-78980833D01*
X143552117Y-78637057D01*
X143289327Y-78373808D01*
X142945799Y-78231162D01*
X142573833Y-78230838D01*
X142230057Y-78372883D01*
X142161821Y-78441000D01*
X132706419Y-78441000D01*
X132649327Y-78383808D01*
X132305799Y-78241162D01*
X132085000Y-78240970D01*
X132085000Y-74235136D01*
X132115167Y-74235162D01*
X132458943Y-74093117D01*
X132722192Y-73830327D01*
X132864838Y-73486799D01*
X132865162Y-73114833D01*
X132723117Y-72771057D01*
X132460327Y-72507808D01*
X132330534Y-72453913D01*
X133533447Y-71251000D01*
X137681825Y-71251000D01*
X137878673Y-71448192D01*
X138222201Y-71590838D01*
X138594167Y-71591162D01*
X138937943Y-71449117D01*
X139201192Y-71186327D01*
X139343838Y-70842799D01*
X139344162Y-70470833D01*
X139202117Y-70127057D01*
X138939327Y-69863808D01*
X138595799Y-69721162D01*
X138223833Y-69720838D01*
X138078229Y-69781000D01*
X133229000Y-69781000D01*
X132947728Y-69836949D01*
X132709277Y-69996276D01*
X127270277Y-75435277D01*
X127110949Y-75673728D01*
X127055000Y-75955000D01*
X127055000Y-79310553D01*
X126499277Y-79866277D01*
X126339949Y-80104728D01*
X126284000Y-80386000D01*
X126284000Y-81771099D01*
X125983833Y-81770838D01*
X125640057Y-81912883D01*
X125376808Y-82175673D01*
X125234162Y-82519201D01*
X125233899Y-82821000D01*
X120089776Y-82821000D01*
X120081418Y-82800771D01*
X119706204Y-82424902D01*
X119215713Y-82221232D01*
X118684617Y-82220769D01*
X118193771Y-82423582D01*
X117817902Y-82798796D01*
X117614232Y-83289287D01*
X117613769Y-83820383D01*
X117816582Y-84311229D01*
X118191796Y-84687098D01*
X118588978Y-84852022D01*
X118173771Y-85023582D01*
X117797902Y-85398796D01*
X117594232Y-85889287D01*
X117593769Y-86420383D01*
X117796582Y-86911229D01*
X118171796Y-87287098D01*
X118536956Y-87438726D01*
X118113771Y-87613582D01*
X117737902Y-87988796D01*
X117534232Y-88479287D01*
X117533769Y-89010383D01*
X113841600Y-89010383D01*
X113841600Y-63150000D01*
X114765000Y-63150000D01*
X114765000Y-70490000D01*
X114785412Y-70592616D01*
X114820949Y-70771272D01*
X114980277Y-71009723D01*
X116994908Y-73024355D01*
X116994838Y-73105167D01*
X117136883Y-73448943D01*
X117399673Y-73712192D01*
X117743201Y-73854838D01*
X118115167Y-73855162D01*
X118458943Y-73713117D01*
X118722192Y-73450327D01*
X118864838Y-73106799D01*
X118865162Y-72734833D01*
X118723117Y-72391057D01*
X118460327Y-72127808D01*
X118116799Y-71985162D01*
X118034537Y-71985090D01*
X116638948Y-70589501D01*
X124023691Y-70589501D01*
X124294868Y-71245800D01*
X124796559Y-71748367D01*
X125452384Y-72020689D01*
X126162501Y-72021309D01*
X126818800Y-71750132D01*
X127321367Y-71248441D01*
X127593689Y-70592616D01*
X127594309Y-69882499D01*
X127323132Y-69226200D01*
X126821441Y-68723633D01*
X126165616Y-68451311D01*
X125455499Y-68450691D01*
X124799200Y-68721868D01*
X124296633Y-69223559D01*
X124024311Y-69879384D01*
X124023691Y-70589501D01*
X116638948Y-70589501D01*
X116235000Y-70185554D01*
X116235000Y-68361167D01*
X139613838Y-68361167D01*
X139755883Y-68704943D01*
X140018673Y-68968192D01*
X140362201Y-69110838D01*
X140734167Y-69111162D01*
X141077943Y-68969117D01*
X141136162Y-68911000D01*
X145504554Y-68911000D01*
X146754000Y-70160447D01*
X146754000Y-74788908D01*
X146509327Y-74543808D01*
X146165799Y-74401162D01*
X145793833Y-74400838D01*
X145450057Y-74542883D01*
X145391838Y-74601000D01*
X141156419Y-74601000D01*
X141099327Y-74543808D01*
X140755799Y-74401162D01*
X140383833Y-74400838D01*
X140040057Y-74542883D01*
X139776808Y-74805673D01*
X139634162Y-75149201D01*
X139633838Y-75521167D01*
X139775883Y-75864943D01*
X140038673Y-76128192D01*
X140382201Y-76270838D01*
X140754167Y-76271162D01*
X141097943Y-76129117D01*
X141156162Y-76071000D01*
X145391581Y-76071000D01*
X145448673Y-76128192D01*
X145792201Y-76270838D01*
X146164167Y-76271162D01*
X146507943Y-76129117D01*
X146754000Y-75883489D01*
X146754000Y-76651553D01*
X146494645Y-76910908D01*
X146413833Y-76910838D01*
X146070057Y-77052883D01*
X145806808Y-77315673D01*
X145664162Y-77659201D01*
X145663838Y-78031167D01*
X145805883Y-78374943D01*
X146068673Y-78638192D01*
X146412201Y-78780838D01*
X146784167Y-78781162D01*
X147127943Y-78639117D01*
X147391192Y-78376327D01*
X147533838Y-78032799D01*
X147533910Y-77950537D01*
X148008723Y-77475724D01*
X148168051Y-77237272D01*
X148224000Y-76956000D01*
X148224000Y-69856000D01*
X148168051Y-69574728D01*
X148008724Y-69336277D01*
X146328723Y-67656277D01*
X146090272Y-67496949D01*
X145809000Y-67441000D01*
X141136419Y-67441000D01*
X141079327Y-67383808D01*
X140735799Y-67241162D01*
X140363833Y-67240838D01*
X140020057Y-67382883D01*
X139756808Y-67645673D01*
X139614162Y-67989201D01*
X139613838Y-68361167D01*
X116235000Y-68361167D01*
X116235000Y-63454446D01*
X116905000Y-62784446D01*
X116905000Y-66282581D01*
X116847808Y-66339673D01*
X116705162Y-66683201D01*
X116704838Y-67055167D01*
X116846883Y-67398943D01*
X117109673Y-67662192D01*
X117453201Y-67804838D01*
X117825167Y-67805162D01*
X118168943Y-67663117D01*
X118432192Y-67400327D01*
X118574838Y-67056799D01*
X118575162Y-66684833D01*
X118433117Y-66341057D01*
X118375000Y-66282838D01*
X118375000Y-65689501D01*
X124023691Y-65689501D01*
X124294868Y-66345800D01*
X124796559Y-66848367D01*
X125452384Y-67120689D01*
X126162501Y-67121309D01*
X126818800Y-66850132D01*
X127321367Y-66348441D01*
X127593689Y-65692616D01*
X127594309Y-64982499D01*
X127323132Y-64326200D01*
X127183177Y-64186000D01*
X141051560Y-64186000D01*
X141051560Y-65786000D01*
X141095838Y-66021317D01*
X141234910Y-66237441D01*
X141447110Y-66382431D01*
X141699000Y-66433440D01*
X143299000Y-66433440D01*
X143534317Y-66389162D01*
X143750441Y-66250090D01*
X143895431Y-66037890D01*
X143904370Y-65993745D01*
X144170861Y-65993745D01*
X144244995Y-66239864D01*
X144782223Y-66432965D01*
X145352454Y-66405778D01*
X145753005Y-66239864D01*
X145827139Y-65993745D01*
X144999000Y-65165605D01*
X144170861Y-65993745D01*
X143904370Y-65993745D01*
X143943646Y-65799799D01*
X143991255Y-65814139D01*
X144819395Y-64986000D01*
X145178605Y-64986000D01*
X146006745Y-65814139D01*
X146252864Y-65740005D01*
X146445965Y-65202777D01*
X146418778Y-64632546D01*
X146252864Y-64231995D01*
X146006745Y-64157861D01*
X145178605Y-64986000D01*
X144819395Y-64986000D01*
X143991255Y-64157861D01*
X143943833Y-64172145D01*
X143907351Y-63978255D01*
X144170861Y-63978255D01*
X144999000Y-64806395D01*
X145827139Y-63978255D01*
X145753005Y-63732136D01*
X145215777Y-63539035D01*
X144645546Y-63566222D01*
X144244995Y-63732136D01*
X144170861Y-63978255D01*
X143907351Y-63978255D01*
X143902162Y-63950683D01*
X143763090Y-63734559D01*
X143550890Y-63589569D01*
X143299000Y-63538560D01*
X141699000Y-63538560D01*
X141463683Y-63582838D01*
X141247559Y-63721910D01*
X141102569Y-63934110D01*
X141051560Y-64186000D01*
X127183177Y-64186000D01*
X126821441Y-63823633D01*
X126165616Y-63551311D01*
X125455499Y-63550691D01*
X124799200Y-63821868D01*
X124296633Y-64323559D01*
X124024311Y-64979384D01*
X124023691Y-65689501D01*
X118375000Y-65689501D01*
X118375000Y-60995167D01*
X132984838Y-60995167D01*
X133126883Y-61338943D01*
X133389673Y-61602192D01*
X133733201Y-61744838D01*
X134105167Y-61745162D01*
X134202367Y-61705000D01*
X139782581Y-61705000D01*
X139839673Y-61762192D01*
X140183201Y-61904838D01*
X140555167Y-61905162D01*
X140898943Y-61763117D01*
X141162192Y-61500327D01*
X141304838Y-61156799D01*
X141305162Y-60784833D01*
X141163117Y-60441057D01*
X140900327Y-60177808D01*
X140556799Y-60035162D01*
X140184833Y-60034838D01*
X139841057Y-60176883D01*
X139782838Y-60235000D01*
X137463267Y-60235000D01*
X137563838Y-59992799D01*
X137564162Y-59620833D01*
X137422117Y-59277057D01*
X137364000Y-59218838D01*
X137364000Y-56636000D01*
X137308051Y-56354728D01*
X137264234Y-56289151D01*
X137148724Y-56116277D01*
X136994092Y-55961645D01*
X136994162Y-55880833D01*
X136852117Y-55537057D01*
X136589327Y-55273808D01*
X136245799Y-55131162D01*
X135873833Y-55130838D01*
X135530057Y-55272883D01*
X135266808Y-55535673D01*
X135124162Y-55879201D01*
X135123838Y-56251167D01*
X135265883Y-56594943D01*
X135528673Y-56858192D01*
X135872201Y-57000838D01*
X135894000Y-57000857D01*
X135894000Y-59218581D01*
X135836808Y-59275673D01*
X135694162Y-59619201D01*
X135693838Y-59991167D01*
X135794587Y-60235000D01*
X134667140Y-60235000D01*
X134450327Y-60017808D01*
X134106799Y-59875162D01*
X133734833Y-59874838D01*
X133391057Y-60016883D01*
X133127808Y-60279673D01*
X132985162Y-60623201D01*
X132984838Y-60995167D01*
X118375000Y-60995167D01*
X118375000Y-60160000D01*
X118319051Y-59878728D01*
X118270456Y-59806000D01*
X118159723Y-59640276D01*
X117895092Y-59375645D01*
X117895162Y-59294833D01*
X117753117Y-58951057D01*
X117490327Y-58687808D01*
X117146799Y-58545162D01*
X116774833Y-58544838D01*
X116431057Y-58686883D01*
X116167808Y-58949673D01*
X116025162Y-59293201D01*
X116024838Y-59665167D01*
X116166883Y-60008943D01*
X116429673Y-60272192D01*
X116773201Y-60414838D01*
X116855463Y-60414910D01*
X116905000Y-60464447D01*
X116905000Y-61235000D01*
X116680000Y-61235000D01*
X116398728Y-61290949D01*
X116160277Y-61450277D01*
X114980277Y-62630277D01*
X114820949Y-62868728D01*
X114765000Y-63150000D01*
X113841600Y-63150000D01*
X113841600Y-55740000D01*
X120286887Y-55740000D01*
X120396120Y-56289151D01*
X120707189Y-56754698D01*
X121172736Y-57065767D01*
X121721887Y-57175000D01*
X121778113Y-57175000D01*
X122327264Y-57065767D01*
X122792811Y-56754698D01*
X122855000Y-56661626D01*
X122855000Y-56666310D01*
X122951673Y-56899699D01*
X123130302Y-57078327D01*
X123363691Y-57175000D01*
X124004250Y-57175000D01*
X124163000Y-57016250D01*
X124163000Y-55867000D01*
X124417000Y-55867000D01*
X124417000Y-57016250D01*
X124575750Y-57175000D01*
X125216309Y-57175000D01*
X125449698Y-57078327D01*
X125628327Y-56899699D01*
X125725000Y-56666310D01*
X125725000Y-56025750D01*
X125566250Y-55867000D01*
X124417000Y-55867000D01*
X124163000Y-55867000D01*
X124143000Y-55867000D01*
X124143000Y-55613000D01*
X124163000Y-55613000D01*
X124163000Y-54463750D01*
X124417000Y-54463750D01*
X124417000Y-55613000D01*
X125566250Y-55613000D01*
X125725000Y-55454250D01*
X125725000Y-54813690D01*
X125628327Y-54580301D01*
X125449698Y-54401673D01*
X125216309Y-54305000D01*
X124575750Y-54305000D01*
X124417000Y-54463750D01*
X124163000Y-54463750D01*
X124004250Y-54305000D01*
X123363691Y-54305000D01*
X123130302Y-54401673D01*
X122951673Y-54580301D01*
X122855000Y-54813690D01*
X122855000Y-54818374D01*
X122792811Y-54725302D01*
X122327264Y-54414233D01*
X121778113Y-54305000D01*
X121721887Y-54305000D01*
X121172736Y-54414233D01*
X120707189Y-54725302D01*
X120396120Y-55190849D01*
X120286887Y-55740000D01*
X113841600Y-55740000D01*
X113841600Y-50528172D01*
X115332538Y-50528172D01*
X115737709Y-51508761D01*
X116487293Y-52259655D01*
X117467173Y-52666536D01*
X118528172Y-52667462D01*
X119508761Y-52262291D01*
X120259655Y-51512707D01*
X120666536Y-50532827D01*
X120666540Y-50528172D01*
X151832538Y-50528172D01*
X152237709Y-51508761D01*
X152987293Y-52259655D01*
X153967173Y-52666536D01*
X155028172Y-52667462D01*
X156008761Y-52262291D01*
X156759655Y-51512707D01*
X157166536Y-50532827D01*
X157167462Y-49471828D01*
X156762291Y-48491239D01*
X156012707Y-47740345D01*
X155032827Y-47333464D01*
X153971828Y-47332538D01*
X152991239Y-47737709D01*
X152240345Y-48487293D01*
X151833464Y-49467173D01*
X151832538Y-50528172D01*
X120666540Y-50528172D01*
X120667462Y-49471828D01*
X120311723Y-48610873D01*
X132733812Y-48610873D01*
X132898646Y-49009800D01*
X133203595Y-49315282D01*
X133602233Y-49480811D01*
X134033873Y-49481188D01*
X134432800Y-49316354D01*
X134738282Y-49011405D01*
X134903811Y-48612767D01*
X134903812Y-48610873D01*
X137133812Y-48610873D01*
X137298646Y-49009800D01*
X137603595Y-49315282D01*
X138002233Y-49480811D01*
X138433873Y-49481188D01*
X138832800Y-49316354D01*
X139138282Y-49011405D01*
X139303811Y-48612767D01*
X139304188Y-48181127D01*
X139139354Y-47782200D01*
X138834405Y-47476718D01*
X138435767Y-47311189D01*
X138004127Y-47310812D01*
X137605200Y-47475646D01*
X137299718Y-47780595D01*
X137134189Y-48179233D01*
X137133812Y-48610873D01*
X134903812Y-48610873D01*
X134904188Y-48181127D01*
X134739354Y-47782200D01*
X134434405Y-47476718D01*
X134035767Y-47311189D01*
X133604127Y-47310812D01*
X133205200Y-47475646D01*
X132899718Y-47780595D01*
X132734189Y-48179233D01*
X132733812Y-48610873D01*
X120311723Y-48610873D01*
X120262291Y-48491239D01*
X119512707Y-47740345D01*
X118532827Y-47333464D01*
X117471828Y-47332538D01*
X116491239Y-47737709D01*
X115740345Y-48487293D01*
X115333464Y-49467173D01*
X115332538Y-50528172D01*
X113841600Y-50528172D01*
X113841600Y-44184640D01*
X158700400Y-44184640D01*
X158700400Y-133422320D01*
X158700400Y-133422320D01*
G37*
X158700400Y-133422320D02*
X156674700Y-133422320D01*
X156674700Y-132408290D01*
X156515950Y-132249540D01*
X156251418Y-132249540D01*
X156260150Y-132222673D01*
X156242292Y-131995540D01*
X156515950Y-131995540D01*
X156674700Y-131836790D01*
X156674700Y-129996231D01*
X156578027Y-129762842D01*
X156399399Y-129584213D01*
X156166010Y-129487540D01*
X155325450Y-129487540D01*
X155166700Y-129646290D01*
X155166700Y-130560157D01*
X155034746Y-130614813D01*
X154912700Y-130575148D01*
X154912700Y-129646290D01*
X154753950Y-129487540D01*
X153913390Y-129487540D01*
X153680001Y-129584213D01*
X153501373Y-129762842D01*
X153404700Y-129996231D01*
X153404700Y-131836790D01*
X153563450Y-131995540D01*
X153827982Y-131995540D01*
X153819250Y-132022407D01*
X153837108Y-132249540D01*
X153563450Y-132249540D01*
X153404700Y-132408290D01*
X153404700Y-133422320D01*
X151674700Y-133422320D01*
X151674700Y-132408290D01*
X151515950Y-132249540D01*
X151251418Y-132249540D01*
X151260150Y-132222673D01*
X151242292Y-131995540D01*
X151515950Y-131995540D01*
X151674700Y-131836790D01*
X151674700Y-129996231D01*
X151578027Y-129762842D01*
X151399399Y-129584213D01*
X151166010Y-129487540D01*
X150325450Y-129487540D01*
X150166700Y-129646290D01*
X150166700Y-130560157D01*
X150034746Y-130614813D01*
X149912700Y-130575148D01*
X149912700Y-129646290D01*
X149753950Y-129487540D01*
X148913390Y-129487540D01*
X148685628Y-129581882D01*
X148660019Y-129556273D01*
X148426630Y-129459600D01*
X147586070Y-129459600D01*
X147427320Y-129618350D01*
X147427320Y-130532217D01*
X147295366Y-130586873D01*
X147173320Y-130547208D01*
X147173320Y-129618350D01*
X147014570Y-129459600D01*
X146174010Y-129459600D01*
X145940621Y-129556273D01*
X145761993Y-129734902D01*
X145665320Y-129968291D01*
X145665320Y-131808850D01*
X145824070Y-131967600D01*
X146088602Y-131967600D01*
X146079870Y-131994467D01*
X146097728Y-132221600D01*
X145824070Y-132221600D01*
X145665320Y-132380350D01*
X145665320Y-133422320D01*
X143935320Y-133422320D01*
X143935320Y-132380350D01*
X143776570Y-132221600D01*
X143512038Y-132221600D01*
X143520770Y-132194733D01*
X143502912Y-131967600D01*
X143776570Y-131967600D01*
X143935320Y-131808850D01*
X143935320Y-129968291D01*
X143838647Y-129734902D01*
X143660019Y-129556273D01*
X143426630Y-129459600D01*
X142586070Y-129459600D01*
X142427320Y-129618350D01*
X142427320Y-130532217D01*
X142295366Y-130586873D01*
X142173320Y-130547208D01*
X142173320Y-129618350D01*
X142014570Y-129459600D01*
X141174010Y-129459600D01*
X140940621Y-129556273D01*
X140761993Y-129734902D01*
X140756821Y-129747389D01*
X140741127Y-129709502D01*
X140562499Y-129530873D01*
X140329110Y-129434200D01*
X139488550Y-129434200D01*
X139329800Y-129592950D01*
X139329800Y-130506817D01*
X139197846Y-130561473D01*
X139075800Y-130521808D01*
X139075800Y-129592950D01*
X138917050Y-129434200D01*
X138076490Y-129434200D01*
X137843101Y-129530873D01*
X137664473Y-129709502D01*
X137567800Y-129942891D01*
X137567800Y-131783450D01*
X137726550Y-131942200D01*
X137991082Y-131942200D01*
X137982350Y-131969067D01*
X138000208Y-132196200D01*
X137726550Y-132196200D01*
X137567800Y-132354950D01*
X137567800Y-133422320D01*
X135837800Y-133422320D01*
X135837800Y-132354950D01*
X135679050Y-132196200D01*
X135414518Y-132196200D01*
X135423250Y-132169333D01*
X135405392Y-131942200D01*
X135679050Y-131942200D01*
X135837800Y-131783450D01*
X135837800Y-129942891D01*
X135741127Y-129709502D01*
X135562499Y-129530873D01*
X135329110Y-129434200D01*
X134488550Y-129434200D01*
X134329800Y-129592950D01*
X134329800Y-130506817D01*
X134197846Y-130561473D01*
X134075800Y-130521808D01*
X134075800Y-129592950D01*
X133917050Y-129434200D01*
X133076490Y-129434200D01*
X132843101Y-129530873D01*
X132664473Y-129709502D01*
X132567800Y-129942891D01*
X132567800Y-131783450D01*
X132726550Y-131942200D01*
X132991082Y-131942200D01*
X132982350Y-131969067D01*
X133000208Y-132196200D01*
X132726550Y-132196200D01*
X132567800Y-132354950D01*
X132567800Y-133422320D01*
X132464000Y-133422320D01*
X132464000Y-132361750D01*
X132305250Y-132203000D01*
X132040718Y-132203000D01*
X132049450Y-132176133D01*
X132031592Y-131949000D01*
X132305250Y-131949000D01*
X132464000Y-131790250D01*
X132464000Y-129949691D01*
X132367327Y-129716302D01*
X132188699Y-129537673D01*
X131955310Y-129441000D01*
X131114750Y-129441000D01*
X130956000Y-129599750D01*
X130956000Y-130513617D01*
X130824046Y-130568273D01*
X130702000Y-130528608D01*
X130702000Y-129599750D01*
X130543250Y-129441000D01*
X129702690Y-129441000D01*
X129469301Y-129537673D01*
X129290673Y-129716302D01*
X129194000Y-129949691D01*
X129194000Y-131790250D01*
X129352750Y-131949000D01*
X129617282Y-131949000D01*
X129608550Y-131975867D01*
X129626408Y-132203000D01*
X129352750Y-132203000D01*
X129194000Y-132361750D01*
X129194000Y-133422320D01*
X127464000Y-133422320D01*
X127464000Y-132361750D01*
X127305250Y-132203000D01*
X127040718Y-132203000D01*
X127049450Y-132176133D01*
X127031592Y-131949000D01*
X127305250Y-131949000D01*
X127464000Y-131790250D01*
X127464000Y-129949691D01*
X127367327Y-129716302D01*
X127188699Y-129537673D01*
X126955310Y-129441000D01*
X126114750Y-129441000D01*
X125956000Y-129599750D01*
X125956000Y-130513617D01*
X125824046Y-130568273D01*
X125702000Y-130528608D01*
X125702000Y-129599750D01*
X125543250Y-129441000D01*
X124702690Y-129441000D01*
X124469301Y-129537673D01*
X124290673Y-129716302D01*
X124268658Y-129769450D01*
X124243827Y-129709502D01*
X124065199Y-129530873D01*
X123831810Y-129434200D01*
X122991250Y-129434200D01*
X122832500Y-129592950D01*
X122832500Y-130506817D01*
X122700546Y-130561473D01*
X122578500Y-130521808D01*
X122578500Y-129592950D01*
X122419750Y-129434200D01*
X121579190Y-129434200D01*
X121345801Y-129530873D01*
X121167173Y-129709502D01*
X121070500Y-129942891D01*
X121070500Y-131783450D01*
X121229250Y-131942200D01*
X121493782Y-131942200D01*
X121485050Y-131969067D01*
X121502908Y-132196200D01*
X121229250Y-132196200D01*
X121070500Y-132354950D01*
X121070500Y-133422320D01*
X119340500Y-133422320D01*
X119340500Y-132354950D01*
X119181750Y-132196200D01*
X118917218Y-132196200D01*
X118925950Y-132169333D01*
X118908092Y-131942200D01*
X119181750Y-131942200D01*
X119340500Y-131783450D01*
X119340500Y-129942891D01*
X119243827Y-129709502D01*
X119065199Y-129530873D01*
X118831810Y-129434200D01*
X117991250Y-129434200D01*
X117832500Y-129592950D01*
X117832500Y-130506817D01*
X117700546Y-130561473D01*
X117578500Y-130521808D01*
X117578500Y-129592950D01*
X117419750Y-129434200D01*
X116579190Y-129434200D01*
X116345801Y-129530873D01*
X116167173Y-129709502D01*
X116070500Y-129942891D01*
X116070500Y-131783450D01*
X116229250Y-131942200D01*
X116493782Y-131942200D01*
X116485050Y-131969067D01*
X116502908Y-132196200D01*
X116229250Y-132196200D01*
X116070500Y-132354950D01*
X116070500Y-133422320D01*
X113841600Y-133422320D01*
X113841600Y-124528172D01*
X115332538Y-124528172D01*
X115737709Y-125508761D01*
X116487293Y-126259655D01*
X117467173Y-126666536D01*
X118528172Y-126667462D01*
X119508761Y-126262291D01*
X120259655Y-125512707D01*
X120666536Y-124532827D01*
X120667462Y-123471828D01*
X120262291Y-122491239D01*
X119512707Y-121740345D01*
X118532827Y-121333464D01*
X117471828Y-121332538D01*
X116491239Y-121737709D01*
X115740345Y-122487293D01*
X115333464Y-123467173D01*
X115332538Y-124528172D01*
X113841600Y-124528172D01*
X113841600Y-120467847D01*
X120447958Y-120467847D01*
X120590003Y-120811623D01*
X120852793Y-121074872D01*
X121196321Y-121217518D01*
X121568287Y-121217842D01*
X121912063Y-121075797D01*
X122175312Y-120813007D01*
X122220015Y-120705350D01*
X126867140Y-118555440D01*
X130088640Y-118555440D01*
X130369912Y-118499491D01*
X130608363Y-118340163D01*
X133595403Y-115353124D01*
X133754731Y-115114673D01*
X133768939Y-115043243D01*
X133810680Y-114833400D01*
X133810680Y-111549912D01*
X133837392Y-111523247D01*
X133980038Y-111179719D01*
X133980362Y-110807753D01*
X133838317Y-110463977D01*
X133575527Y-110200728D01*
X133231999Y-110058082D01*
X132978124Y-110057861D01*
X133000237Y-110004607D01*
X133664518Y-110004607D01*
X133806563Y-110348383D01*
X134069353Y-110611632D01*
X134152330Y-110646087D01*
X134152198Y-110797087D01*
X134163642Y-110824785D01*
X133975664Y-111207078D01*
X133969492Y-111230218D01*
X133956189Y-111250128D01*
X133932738Y-111368022D01*
X133901759Y-111484174D01*
X133904912Y-111507912D01*
X133900240Y-111531400D01*
X133900240Y-124927360D01*
X133922635Y-125039944D01*
X133936035Y-125153934D01*
X133950432Y-125179690D01*
X133956189Y-125208632D01*
X134019957Y-125304067D01*
X134075964Y-125404262D01*
X135935408Y-127584882D01*
X135935278Y-127733807D01*
X136077323Y-128077583D01*
X136340113Y-128340832D01*
X136683641Y-128483478D01*
X137055607Y-128483802D01*
X137399383Y-128341757D01*
X137662632Y-128078967D01*
X137805278Y-127735439D01*
X137805602Y-127363473D01*
X137663557Y-127019697D01*
X137400767Y-126756448D01*
X137057239Y-126613802D01*
X137039215Y-126613786D01*
X135370240Y-124656534D01*
X135370240Y-112802926D01*
X135903676Y-113336363D01*
X136142127Y-113495691D01*
X136188794Y-113504973D01*
X136423400Y-113551640D01*
X141241101Y-113551640D01*
X141298193Y-113608832D01*
X141641721Y-113751478D01*
X141987600Y-113751779D01*
X141987600Y-113936101D01*
X141930408Y-113993193D01*
X141787762Y-114336721D01*
X141787438Y-114708687D01*
X141929483Y-115052463D01*
X142192273Y-115315712D01*
X142535801Y-115458358D01*
X142907767Y-115458682D01*
X143251543Y-115316637D01*
X143514792Y-115053847D01*
X143657438Y-114710319D01*
X143657762Y-114338353D01*
X143515717Y-113994577D01*
X143457600Y-113936358D01*
X143457600Y-111455200D01*
X143401651Y-111173928D01*
X143242324Y-110935477D01*
X142081506Y-109774660D01*
X143406214Y-109774660D01*
X145645200Y-112013647D01*
X145645200Y-116128800D01*
X145665456Y-116230634D01*
X145674446Y-116334070D01*
X145693212Y-116370169D01*
X145701149Y-116410072D01*
X145758832Y-116496401D01*
X145806722Y-116588525D01*
X149929120Y-121730958D01*
X149929120Y-126011021D01*
X149871928Y-126068113D01*
X149729282Y-126411641D01*
X149728958Y-126783607D01*
X149871003Y-127127383D01*
X150133793Y-127390632D01*
X150477321Y-127533278D01*
X150849287Y-127533602D01*
X151193063Y-127391557D01*
X151456312Y-127128767D01*
X151598958Y-126785239D01*
X151599282Y-126413273D01*
X151457237Y-126069497D01*
X151399120Y-126011278D01*
X151399120Y-124528172D01*
X151832538Y-124528172D01*
X152237709Y-125508761D01*
X152987293Y-126259655D01*
X153967173Y-126666536D01*
X155028172Y-126667462D01*
X156008761Y-126262291D01*
X156759655Y-125512707D01*
X157166536Y-124532827D01*
X157167462Y-123471828D01*
X156762291Y-122491239D01*
X156012707Y-121740345D01*
X155032827Y-121333464D01*
X153971828Y-121332538D01*
X152991239Y-121737709D01*
X152240345Y-122487293D01*
X151833464Y-123467173D01*
X151832538Y-124528172D01*
X151399120Y-124528172D01*
X151399120Y-121472720D01*
X151378862Y-121370877D01*
X151369873Y-121267449D01*
X151351108Y-121231352D01*
X151343171Y-121191448D01*
X151285489Y-121105120D01*
X151237598Y-121012994D01*
X147115200Y-115870563D01*
X147115200Y-111709200D01*
X147059251Y-111427928D01*
X147011453Y-111356393D01*
X146899924Y-111189477D01*
X144230383Y-108519937D01*
X143991932Y-108360609D01*
X143710660Y-108304660D01*
X140899564Y-108304660D01*
X140845007Y-108250008D01*
X140501479Y-108107362D01*
X140129513Y-108107038D01*
X139785737Y-108249083D01*
X139522488Y-108511873D01*
X139379842Y-108855401D01*
X139379589Y-109145400D01*
X135247953Y-109145400D01*
X135130007Y-109027248D01*
X134786479Y-108884602D01*
X134414513Y-108884278D01*
X134070737Y-109026323D01*
X133807488Y-109289113D01*
X133664842Y-109632641D01*
X133664518Y-110004607D01*
X133000237Y-110004607D01*
X133111358Y-109736999D01*
X133111682Y-109365033D01*
X132969637Y-109021257D01*
X132706847Y-108758008D01*
X132363319Y-108615362D01*
X131991353Y-108615038D01*
X131859960Y-108669328D01*
X131859960Y-108166579D01*
X131917152Y-108109487D01*
X132059798Y-107765959D01*
X132060122Y-107393993D01*
X131918077Y-107050217D01*
X131655287Y-106786968D01*
X131311759Y-106644322D01*
X130939793Y-106643998D01*
X130596017Y-106786043D01*
X130332768Y-107048833D01*
X130190122Y-107392361D01*
X130189798Y-107764327D01*
X130331843Y-108108103D01*
X130389960Y-108166322D01*
X130389960Y-108471053D01*
X128254545Y-110606468D01*
X128173733Y-110606398D01*
X127829957Y-110748443D01*
X127566708Y-111011233D01*
X127424062Y-111354761D01*
X127423738Y-111726727D01*
X127565783Y-112070503D01*
X127828573Y-112333752D01*
X128172101Y-112476398D01*
X128544067Y-112476722D01*
X128887843Y-112334677D01*
X129151092Y-112071887D01*
X129293738Y-111728359D01*
X129293810Y-111646096D01*
X131241390Y-109698517D01*
X131241358Y-109735367D01*
X131383403Y-110079143D01*
X131441520Y-110137362D01*
X131441520Y-111904216D01*
X131318288Y-112027233D01*
X131175642Y-112370761D01*
X131175318Y-112742727D01*
X131317363Y-113086503D01*
X131580153Y-113349752D01*
X131923681Y-113492398D01*
X132295647Y-113492722D01*
X132340680Y-113474115D01*
X132340680Y-114528953D01*
X129784194Y-117085440D01*
X126705360Y-117085440D01*
X126690491Y-117088398D01*
X126675520Y-117086047D01*
X126550376Y-117116269D01*
X126424088Y-117141389D01*
X126411486Y-117149810D01*
X126396751Y-117153368D01*
X121613860Y-119366088D01*
X121569919Y-119347842D01*
X121197953Y-119347518D01*
X120854177Y-119489563D01*
X120590928Y-119752353D01*
X120448282Y-120095881D01*
X120447958Y-120467847D01*
X113841600Y-120467847D01*
X113841600Y-105051167D01*
X128673838Y-105051167D01*
X128815883Y-105394943D01*
X129078673Y-105658192D01*
X129422201Y-105800838D01*
X129794167Y-105801162D01*
X130137943Y-105659117D01*
X130401192Y-105396327D01*
X130543838Y-105052799D01*
X130544162Y-104680833D01*
X130402117Y-104337057D01*
X130354000Y-104288856D01*
X130354000Y-101333467D01*
X130670047Y-101333742D01*
X131013823Y-101191697D01*
X131072042Y-101133580D01*
X131701894Y-101133580D01*
X132204036Y-101635723D01*
X132428528Y-101785723D01*
X132442488Y-101795051D01*
X132723760Y-101851000D01*
X144631581Y-101851000D01*
X144688673Y-101908192D01*
X145032201Y-102050838D01*
X145404167Y-102051162D01*
X145747943Y-101909117D01*
X146011192Y-101646327D01*
X146153838Y-101302799D01*
X146154162Y-100930833D01*
X146012117Y-100587057D01*
X145749327Y-100323808D01*
X145549904Y-100241000D01*
X151801581Y-100241000D01*
X151858673Y-100298192D01*
X152202201Y-100440838D01*
X152574167Y-100441162D01*
X152917943Y-100299117D01*
X153181192Y-100036327D01*
X153323838Y-99692799D01*
X153324162Y-99320833D01*
X153182117Y-98977057D01*
X152919327Y-98713808D01*
X152575799Y-98571162D01*
X152203833Y-98570838D01*
X151860057Y-98712883D01*
X151801838Y-98771000D01*
X144803391Y-98771000D01*
X144730327Y-98697808D01*
X144386799Y-98555162D01*
X144014833Y-98554838D01*
X143671057Y-98696883D01*
X143596811Y-98771000D01*
X140202010Y-98771000D01*
X140192117Y-98747057D01*
X139929327Y-98483808D01*
X139585799Y-98341162D01*
X139213833Y-98340838D01*
X138870057Y-98482883D01*
X138606808Y-98745673D01*
X138464162Y-99089201D01*
X138463838Y-99461167D01*
X138605883Y-99804943D01*
X138868673Y-100068192D01*
X139212201Y-100210838D01*
X139478533Y-100211070D01*
X139629000Y-100241000D01*
X143628553Y-100241000D01*
X143669673Y-100282192D01*
X143907628Y-100381000D01*
X136608997Y-100381000D01*
X136609262Y-100076253D01*
X136467217Y-99732477D01*
X136401480Y-99666625D01*
X136401480Y-98336779D01*
X136458672Y-98279687D01*
X136601318Y-97936159D01*
X136601642Y-97564193D01*
X136459597Y-97220417D01*
X136196807Y-96957168D01*
X135853279Y-96814522D01*
X135481313Y-96814198D01*
X135137537Y-96956243D01*
X135130618Y-96963150D01*
X134943959Y-96885642D01*
X134571993Y-96885318D01*
X134228217Y-97027363D01*
X133964968Y-97290153D01*
X133822322Y-97633681D01*
X133821998Y-98005647D01*
X133964043Y-98349423D01*
X134022160Y-98407642D01*
X134022160Y-99300873D01*
X133820188Y-99502493D01*
X133677542Y-99846021D01*
X133677218Y-100217987D01*
X133744573Y-100381000D01*
X133538248Y-100381000D01*
X133629518Y-100161199D01*
X133629842Y-99789233D01*
X133487797Y-99445457D01*
X133225007Y-99182208D01*
X132881479Y-99039562D01*
X132799217Y-99039490D01*
X132362880Y-98603154D01*
X132362880Y-98344399D01*
X132420072Y-98287307D01*
X132562718Y-97943779D01*
X132563042Y-97571813D01*
X132420997Y-97228037D01*
X132158207Y-96964788D01*
X131814679Y-96822142D01*
X131442713Y-96821818D01*
X131098937Y-96963863D01*
X130835688Y-97226653D01*
X130693042Y-97570181D01*
X130692718Y-97942147D01*
X130834763Y-98285923D01*
X130892880Y-98344142D01*
X130892880Y-98907600D01*
X130930750Y-99097982D01*
X130948829Y-99188872D01*
X131108157Y-99427323D01*
X131344414Y-99663580D01*
X131072299Y-99663580D01*
X131015207Y-99606388D01*
X130671679Y-99463742D01*
X130354000Y-99463465D01*
X130354000Y-99183158D01*
X130561192Y-98976327D01*
X130703838Y-98632799D01*
X130704162Y-98260833D01*
X130562117Y-97917057D01*
X130299327Y-97653808D01*
X129955799Y-97511162D01*
X129583833Y-97510838D01*
X129240057Y-97652883D01*
X128976808Y-97915673D01*
X128834162Y-98259201D01*
X128833838Y-98631167D01*
X128884000Y-98752569D01*
X128884000Y-104268598D01*
X128816808Y-104335673D01*
X128674162Y-104679201D01*
X128673838Y-105051167D01*
X113841600Y-105051167D01*
X113841600Y-89010383D01*
X117533769Y-89010383D01*
X117736582Y-89501229D01*
X118111796Y-89877098D01*
X118521845Y-90047365D01*
X118143771Y-90203582D01*
X117767902Y-90578796D01*
X117564232Y-91069287D01*
X117563769Y-91600383D01*
X117766582Y-92091229D01*
X118141796Y-92467098D01*
X118625067Y-92667770D01*
X118223771Y-92833582D01*
X117847902Y-93208796D01*
X117644232Y-93699287D01*
X117643769Y-94230383D01*
X117846582Y-94721229D01*
X118221796Y-95097098D01*
X118712287Y-95300768D01*
X119243383Y-95301231D01*
X119734229Y-95098418D01*
X120110098Y-94723204D01*
X120119318Y-94701000D01*
X121519000Y-94701000D01*
X121800272Y-94645051D01*
X122038723Y-94485723D01*
X124353447Y-92171000D01*
X130779000Y-92171000D01*
X131060272Y-92115051D01*
X131298723Y-91955723D01*
X132443355Y-90811092D01*
X132524167Y-90811162D01*
X132867943Y-90669117D01*
X133131192Y-90406327D01*
X133273838Y-90062799D01*
X133274162Y-89690833D01*
X133132117Y-89347057D01*
X132869327Y-89083808D01*
X132695279Y-89011537D01*
X132797943Y-88969117D01*
X133061192Y-88706327D01*
X133203838Y-88362799D01*
X133204162Y-87990833D01*
X133062117Y-87647057D01*
X132799327Y-87383808D01*
X132633662Y-87315018D01*
X132647943Y-87309117D01*
X132911192Y-87046327D01*
X133053838Y-86702799D01*
X133054162Y-86330833D01*
X132912117Y-85987057D01*
X132649327Y-85723808D01*
X132428295Y-85632027D01*
X132507943Y-85599117D01*
X132771192Y-85336327D01*
X132913838Y-84992799D01*
X132914162Y-84620833D01*
X132772117Y-84277057D01*
X132576387Y-84080985D01*
X132661192Y-83996327D01*
X132803838Y-83652799D01*
X132804162Y-83280833D01*
X132662117Y-82937057D01*
X132399327Y-82673808D01*
X132055799Y-82531162D01*
X131693508Y-82530846D01*
X131572117Y-82237057D01*
X131309327Y-81973808D01*
X130965799Y-81831162D01*
X130593833Y-81830838D01*
X130250057Y-81972883D01*
X130191838Y-82031000D01*
X128756389Y-82031000D01*
X128831192Y-81956327D01*
X128973838Y-81612799D01*
X128973910Y-81530537D01*
X129769724Y-80734723D01*
X129929051Y-80496272D01*
X129985000Y-80215000D01*
X129985000Y-78954446D01*
X130615000Y-78324447D01*
X130615000Y-79650000D01*
X130638263Y-79766949D01*
X130670949Y-79931272D01*
X130830277Y-80169723D01*
X136770277Y-86109724D01*
X136942877Y-86225051D01*
X137008728Y-86269051D01*
X137290000Y-86325000D01*
X141855554Y-86325000D01*
X143285000Y-87754447D01*
X143285000Y-92222581D01*
X143227808Y-92279673D01*
X143085162Y-92623201D01*
X143084838Y-92995167D01*
X143226883Y-93338943D01*
X143489673Y-93602192D01*
X143833201Y-93744838D01*
X144205167Y-93745162D01*
X144548943Y-93603117D01*
X144812192Y-93340327D01*
X144954838Y-92996799D01*
X144955162Y-92624833D01*
X144813117Y-92281057D01*
X144755000Y-92222838D01*
X144755000Y-87450000D01*
X144699051Y-87168728D01*
X144539723Y-86930276D01*
X142679723Y-85070277D01*
X142441272Y-84910949D01*
X142160000Y-84855000D01*
X137594447Y-84855000D01*
X132678280Y-79938833D01*
X132706162Y-79911000D01*
X139014939Y-79911000D01*
X138974162Y-80009201D01*
X138973839Y-80379759D01*
X138700057Y-80492883D01*
X138436808Y-80755673D01*
X138294162Y-81099201D01*
X138293838Y-81471167D01*
X138435883Y-81814943D01*
X138698673Y-82078192D01*
X139042201Y-82220838D01*
X139124463Y-82220910D01*
X139629276Y-82725723D01*
X139867727Y-82885051D01*
X139898475Y-82891167D01*
X140149000Y-82941000D01*
X144447683Y-82941000D01*
X144712201Y-83050838D01*
X145084167Y-83051162D01*
X145154000Y-83022308D01*
X145154000Y-84331553D01*
X144874645Y-84610908D01*
X144793833Y-84610838D01*
X144450057Y-84752883D01*
X144186808Y-85015673D01*
X144044162Y-85359201D01*
X144043838Y-85731167D01*
X144185883Y-86074943D01*
X144448673Y-86338192D01*
X144792201Y-86480838D01*
X145164167Y-86481162D01*
X145507943Y-86339117D01*
X145771192Y-86076327D01*
X145913838Y-85732799D01*
X145913910Y-85650537D01*
X146408723Y-85155724D01*
X146568051Y-84917272D01*
X146578061Y-84866949D01*
X146624000Y-84636000D01*
X146624000Y-81033367D01*
X146711192Y-80946327D01*
X146853838Y-80602799D01*
X146854162Y-80230833D01*
X146712117Y-79887057D01*
X146449327Y-79623808D01*
X146105799Y-79481162D01*
X145733833Y-79480838D01*
X145390057Y-79622883D01*
X145126808Y-79885673D01*
X144984162Y-80229201D01*
X144983838Y-80601167D01*
X145125883Y-80944943D01*
X145154000Y-80973109D01*
X145154000Y-81209482D01*
X145085799Y-81181162D01*
X144713833Y-81180838D01*
X144370057Y-81322883D01*
X144221681Y-81471000D01*
X142506249Y-81471000D01*
X142661192Y-81316327D01*
X142803838Y-80972799D01*
X142804162Y-80600833D01*
X142662117Y-80257057D01*
X142459422Y-80054008D01*
X142572201Y-80100838D01*
X142944167Y-80101162D01*
X143287943Y-79959117D01*
X143551192Y-79696327D01*
X143693838Y-79352799D01*
X143694162Y-78980833D01*
X143552117Y-78637057D01*
X143289327Y-78373808D01*
X142945799Y-78231162D01*
X142573833Y-78230838D01*
X142230057Y-78372883D01*
X142161821Y-78441000D01*
X132706419Y-78441000D01*
X132649327Y-78383808D01*
X132305799Y-78241162D01*
X132085000Y-78240970D01*
X132085000Y-74235136D01*
X132115167Y-74235162D01*
X132458943Y-74093117D01*
X132722192Y-73830327D01*
X132864838Y-73486799D01*
X132865162Y-73114833D01*
X132723117Y-72771057D01*
X132460327Y-72507808D01*
X132330534Y-72453913D01*
X133533447Y-71251000D01*
X137681825Y-71251000D01*
X137878673Y-71448192D01*
X138222201Y-71590838D01*
X138594167Y-71591162D01*
X138937943Y-71449117D01*
X139201192Y-71186327D01*
X139343838Y-70842799D01*
X139344162Y-70470833D01*
X139202117Y-70127057D01*
X138939327Y-69863808D01*
X138595799Y-69721162D01*
X138223833Y-69720838D01*
X138078229Y-69781000D01*
X133229000Y-69781000D01*
X132947728Y-69836949D01*
X132709277Y-69996276D01*
X127270277Y-75435277D01*
X127110949Y-75673728D01*
X127055000Y-75955000D01*
X127055000Y-79310553D01*
X126499277Y-79866277D01*
X126339949Y-80104728D01*
X126284000Y-80386000D01*
X126284000Y-81771099D01*
X125983833Y-81770838D01*
X125640057Y-81912883D01*
X125376808Y-82175673D01*
X125234162Y-82519201D01*
X125233899Y-82821000D01*
X120089776Y-82821000D01*
X120081418Y-82800771D01*
X119706204Y-82424902D01*
X119215713Y-82221232D01*
X118684617Y-82220769D01*
X118193771Y-82423582D01*
X117817902Y-82798796D01*
X117614232Y-83289287D01*
X117613769Y-83820383D01*
X117816582Y-84311229D01*
X118191796Y-84687098D01*
X118588978Y-84852022D01*
X118173771Y-85023582D01*
X117797902Y-85398796D01*
X117594232Y-85889287D01*
X117593769Y-86420383D01*
X117796582Y-86911229D01*
X118171796Y-87287098D01*
X118536956Y-87438726D01*
X118113771Y-87613582D01*
X117737902Y-87988796D01*
X117534232Y-88479287D01*
X117533769Y-89010383D01*
X113841600Y-89010383D01*
X113841600Y-63150000D01*
X114765000Y-63150000D01*
X114765000Y-70490000D01*
X114785412Y-70592616D01*
X114820949Y-70771272D01*
X114980277Y-71009723D01*
X116994908Y-73024355D01*
X116994838Y-73105167D01*
X117136883Y-73448943D01*
X117399673Y-73712192D01*
X117743201Y-73854838D01*
X118115167Y-73855162D01*
X118458943Y-73713117D01*
X118722192Y-73450327D01*
X118864838Y-73106799D01*
X118865162Y-72734833D01*
X118723117Y-72391057D01*
X118460327Y-72127808D01*
X118116799Y-71985162D01*
X118034537Y-71985090D01*
X116638948Y-70589501D01*
X124023691Y-70589501D01*
X124294868Y-71245800D01*
X124796559Y-71748367D01*
X125452384Y-72020689D01*
X126162501Y-72021309D01*
X126818800Y-71750132D01*
X127321367Y-71248441D01*
X127593689Y-70592616D01*
X127594309Y-69882499D01*
X127323132Y-69226200D01*
X126821441Y-68723633D01*
X126165616Y-68451311D01*
X125455499Y-68450691D01*
X124799200Y-68721868D01*
X124296633Y-69223559D01*
X124024311Y-69879384D01*
X124023691Y-70589501D01*
X116638948Y-70589501D01*
X116235000Y-70185554D01*
X116235000Y-68361167D01*
X139613838Y-68361167D01*
X139755883Y-68704943D01*
X140018673Y-68968192D01*
X140362201Y-69110838D01*
X140734167Y-69111162D01*
X141077943Y-68969117D01*
X141136162Y-68911000D01*
X145504554Y-68911000D01*
X146754000Y-70160447D01*
X146754000Y-74788908D01*
X146509327Y-74543808D01*
X146165799Y-74401162D01*
X145793833Y-74400838D01*
X145450057Y-74542883D01*
X145391838Y-74601000D01*
X141156419Y-74601000D01*
X141099327Y-74543808D01*
X140755799Y-74401162D01*
X140383833Y-74400838D01*
X140040057Y-74542883D01*
X139776808Y-74805673D01*
X139634162Y-75149201D01*
X139633838Y-75521167D01*
X139775883Y-75864943D01*
X140038673Y-76128192D01*
X140382201Y-76270838D01*
X140754167Y-76271162D01*
X141097943Y-76129117D01*
X141156162Y-76071000D01*
X145391581Y-76071000D01*
X145448673Y-76128192D01*
X145792201Y-76270838D01*
X146164167Y-76271162D01*
X146507943Y-76129117D01*
X146754000Y-75883489D01*
X146754000Y-76651553D01*
X146494645Y-76910908D01*
X146413833Y-76910838D01*
X146070057Y-77052883D01*
X145806808Y-77315673D01*
X145664162Y-77659201D01*
X145663838Y-78031167D01*
X145805883Y-78374943D01*
X146068673Y-78638192D01*
X146412201Y-78780838D01*
X146784167Y-78781162D01*
X147127943Y-78639117D01*
X147391192Y-78376327D01*
X147533838Y-78032799D01*
X147533910Y-77950537D01*
X148008723Y-77475724D01*
X148168051Y-77237272D01*
X148224000Y-76956000D01*
X148224000Y-69856000D01*
X148168051Y-69574728D01*
X148008724Y-69336277D01*
X146328723Y-67656277D01*
X146090272Y-67496949D01*
X145809000Y-67441000D01*
X141136419Y-67441000D01*
X141079327Y-67383808D01*
X140735799Y-67241162D01*
X140363833Y-67240838D01*
X140020057Y-67382883D01*
X139756808Y-67645673D01*
X139614162Y-67989201D01*
X139613838Y-68361167D01*
X116235000Y-68361167D01*
X116235000Y-63454446D01*
X116905000Y-62784446D01*
X116905000Y-66282581D01*
X116847808Y-66339673D01*
X116705162Y-66683201D01*
X116704838Y-67055167D01*
X116846883Y-67398943D01*
X117109673Y-67662192D01*
X117453201Y-67804838D01*
X117825167Y-67805162D01*
X118168943Y-67663117D01*
X118432192Y-67400327D01*
X118574838Y-67056799D01*
X118575162Y-66684833D01*
X118433117Y-66341057D01*
X118375000Y-66282838D01*
X118375000Y-65689501D01*
X124023691Y-65689501D01*
X124294868Y-66345800D01*
X124796559Y-66848367D01*
X125452384Y-67120689D01*
X126162501Y-67121309D01*
X126818800Y-66850132D01*
X127321367Y-66348441D01*
X127593689Y-65692616D01*
X127594309Y-64982499D01*
X127323132Y-64326200D01*
X127183177Y-64186000D01*
X141051560Y-64186000D01*
X141051560Y-65786000D01*
X141095838Y-66021317D01*
X141234910Y-66237441D01*
X141447110Y-66382431D01*
X141699000Y-66433440D01*
X143299000Y-66433440D01*
X143534317Y-66389162D01*
X143750441Y-66250090D01*
X143895431Y-66037890D01*
X143904370Y-65993745D01*
X144170861Y-65993745D01*
X144244995Y-66239864D01*
X144782223Y-66432965D01*
X145352454Y-66405778D01*
X145753005Y-66239864D01*
X145827139Y-65993745D01*
X144999000Y-65165605D01*
X144170861Y-65993745D01*
X143904370Y-65993745D01*
X143943646Y-65799799D01*
X143991255Y-65814139D01*
X144819395Y-64986000D01*
X145178605Y-64986000D01*
X146006745Y-65814139D01*
X146252864Y-65740005D01*
X146445965Y-65202777D01*
X146418778Y-64632546D01*
X146252864Y-64231995D01*
X146006745Y-64157861D01*
X145178605Y-64986000D01*
X144819395Y-64986000D01*
X143991255Y-64157861D01*
X143943833Y-64172145D01*
X143907351Y-63978255D01*
X144170861Y-63978255D01*
X144999000Y-64806395D01*
X145827139Y-63978255D01*
X145753005Y-63732136D01*
X145215777Y-63539035D01*
X144645546Y-63566222D01*
X144244995Y-63732136D01*
X144170861Y-63978255D01*
X143907351Y-63978255D01*
X143902162Y-63950683D01*
X143763090Y-63734559D01*
X143550890Y-63589569D01*
X143299000Y-63538560D01*
X141699000Y-63538560D01*
X141463683Y-63582838D01*
X141247559Y-63721910D01*
X141102569Y-63934110D01*
X141051560Y-64186000D01*
X127183177Y-64186000D01*
X126821441Y-63823633D01*
X126165616Y-63551311D01*
X125455499Y-63550691D01*
X124799200Y-63821868D01*
X124296633Y-64323559D01*
X124024311Y-64979384D01*
X124023691Y-65689501D01*
X118375000Y-65689501D01*
X118375000Y-60995167D01*
X132984838Y-60995167D01*
X133126883Y-61338943D01*
X133389673Y-61602192D01*
X133733201Y-61744838D01*
X134105167Y-61745162D01*
X134202367Y-61705000D01*
X139782581Y-61705000D01*
X139839673Y-61762192D01*
X140183201Y-61904838D01*
X140555167Y-61905162D01*
X140898943Y-61763117D01*
X141162192Y-61500327D01*
X141304838Y-61156799D01*
X141305162Y-60784833D01*
X141163117Y-60441057D01*
X140900327Y-60177808D01*
X140556799Y-60035162D01*
X140184833Y-60034838D01*
X139841057Y-60176883D01*
X139782838Y-60235000D01*
X137463267Y-60235000D01*
X137563838Y-59992799D01*
X137564162Y-59620833D01*
X137422117Y-59277057D01*
X137364000Y-59218838D01*
X137364000Y-56636000D01*
X137308051Y-56354728D01*
X137264234Y-56289151D01*
X137148724Y-56116277D01*
X136994092Y-55961645D01*
X136994162Y-55880833D01*
X136852117Y-55537057D01*
X136589327Y-55273808D01*
X136245799Y-55131162D01*
X135873833Y-55130838D01*
X135530057Y-55272883D01*
X135266808Y-55535673D01*
X135124162Y-55879201D01*
X135123838Y-56251167D01*
X135265883Y-56594943D01*
X135528673Y-56858192D01*
X135872201Y-57000838D01*
X135894000Y-57000857D01*
X135894000Y-59218581D01*
X135836808Y-59275673D01*
X135694162Y-59619201D01*
X135693838Y-59991167D01*
X135794587Y-60235000D01*
X134667140Y-60235000D01*
X134450327Y-60017808D01*
X134106799Y-59875162D01*
X133734833Y-59874838D01*
X133391057Y-60016883D01*
X133127808Y-60279673D01*
X132985162Y-60623201D01*
X132984838Y-60995167D01*
X118375000Y-60995167D01*
X118375000Y-60160000D01*
X118319051Y-59878728D01*
X118270456Y-59806000D01*
X118159723Y-59640276D01*
X117895092Y-59375645D01*
X117895162Y-59294833D01*
X117753117Y-58951057D01*
X117490327Y-58687808D01*
X117146799Y-58545162D01*
X116774833Y-58544838D01*
X116431057Y-58686883D01*
X116167808Y-58949673D01*
X116025162Y-59293201D01*
X116024838Y-59665167D01*
X116166883Y-60008943D01*
X116429673Y-60272192D01*
X116773201Y-60414838D01*
X116855463Y-60414910D01*
X116905000Y-60464447D01*
X116905000Y-61235000D01*
X116680000Y-61235000D01*
X116398728Y-61290949D01*
X116160277Y-61450277D01*
X114980277Y-62630277D01*
X114820949Y-62868728D01*
X114765000Y-63150000D01*
X113841600Y-63150000D01*
X113841600Y-55740000D01*
X120286887Y-55740000D01*
X120396120Y-56289151D01*
X120707189Y-56754698D01*
X121172736Y-57065767D01*
X121721887Y-57175000D01*
X121778113Y-57175000D01*
X122327264Y-57065767D01*
X122792811Y-56754698D01*
X122855000Y-56661626D01*
X122855000Y-56666310D01*
X122951673Y-56899699D01*
X123130302Y-57078327D01*
X123363691Y-57175000D01*
X124004250Y-57175000D01*
X124163000Y-57016250D01*
X124163000Y-55867000D01*
X124417000Y-55867000D01*
X124417000Y-57016250D01*
X124575750Y-57175000D01*
X125216309Y-57175000D01*
X125449698Y-57078327D01*
X125628327Y-56899699D01*
X125725000Y-56666310D01*
X125725000Y-56025750D01*
X125566250Y-55867000D01*
X124417000Y-55867000D01*
X124163000Y-55867000D01*
X124143000Y-55867000D01*
X124143000Y-55613000D01*
X124163000Y-55613000D01*
X124163000Y-54463750D01*
X124417000Y-54463750D01*
X124417000Y-55613000D01*
X125566250Y-55613000D01*
X125725000Y-55454250D01*
X125725000Y-54813690D01*
X125628327Y-54580301D01*
X125449698Y-54401673D01*
X125216309Y-54305000D01*
X124575750Y-54305000D01*
X124417000Y-54463750D01*
X124163000Y-54463750D01*
X124004250Y-54305000D01*
X123363691Y-54305000D01*
X123130302Y-54401673D01*
X122951673Y-54580301D01*
X122855000Y-54813690D01*
X122855000Y-54818374D01*
X122792811Y-54725302D01*
X122327264Y-54414233D01*
X121778113Y-54305000D01*
X121721887Y-54305000D01*
X121172736Y-54414233D01*
X120707189Y-54725302D01*
X120396120Y-55190849D01*
X120286887Y-55740000D01*
X113841600Y-55740000D01*
X113841600Y-50528172D01*
X115332538Y-50528172D01*
X115737709Y-51508761D01*
X116487293Y-52259655D01*
X117467173Y-52666536D01*
X118528172Y-52667462D01*
X119508761Y-52262291D01*
X120259655Y-51512707D01*
X120666536Y-50532827D01*
X120666540Y-50528172D01*
X151832538Y-50528172D01*
X152237709Y-51508761D01*
X152987293Y-52259655D01*
X153967173Y-52666536D01*
X155028172Y-52667462D01*
X156008761Y-52262291D01*
X156759655Y-51512707D01*
X157166536Y-50532827D01*
X157167462Y-49471828D01*
X156762291Y-48491239D01*
X156012707Y-47740345D01*
X155032827Y-47333464D01*
X153971828Y-47332538D01*
X152991239Y-47737709D01*
X152240345Y-48487293D01*
X151833464Y-49467173D01*
X151832538Y-50528172D01*
X120666540Y-50528172D01*
X120667462Y-49471828D01*
X120311723Y-48610873D01*
X132733812Y-48610873D01*
X132898646Y-49009800D01*
X133203595Y-49315282D01*
X133602233Y-49480811D01*
X134033873Y-49481188D01*
X134432800Y-49316354D01*
X134738282Y-49011405D01*
X134903811Y-48612767D01*
X134903812Y-48610873D01*
X137133812Y-48610873D01*
X137298646Y-49009800D01*
X137603595Y-49315282D01*
X138002233Y-49480811D01*
X138433873Y-49481188D01*
X138832800Y-49316354D01*
X139138282Y-49011405D01*
X139303811Y-48612767D01*
X139304188Y-48181127D01*
X139139354Y-47782200D01*
X138834405Y-47476718D01*
X138435767Y-47311189D01*
X138004127Y-47310812D01*
X137605200Y-47475646D01*
X137299718Y-47780595D01*
X137134189Y-48179233D01*
X137133812Y-48610873D01*
X134903812Y-48610873D01*
X134904188Y-48181127D01*
X134739354Y-47782200D01*
X134434405Y-47476718D01*
X134035767Y-47311189D01*
X133604127Y-47310812D01*
X133205200Y-47475646D01*
X132899718Y-47780595D01*
X132734189Y-48179233D01*
X132733812Y-48610873D01*
X120311723Y-48610873D01*
X120262291Y-48491239D01*
X119512707Y-47740345D01*
X118532827Y-47333464D01*
X117471828Y-47332538D01*
X116491239Y-47737709D01*
X115740345Y-48487293D01*
X115333464Y-49467173D01*
X115332538Y-50528172D01*
X113841600Y-50528172D01*
X113841600Y-44184640D01*
X158700400Y-44184640D01*
X158700400Y-133422320D01*
M02*
