G04 #@! TF.FileFunction,Legend,Top*
%FSLAX46Y46*%
G04 Gerber Fmt 4.6, Leading zero omitted, Abs format (unit mm)*
G04 Created by KiCad (PCBNEW 4.0.7) date 02/23/19 09:39:53*
%MOMM*%
%LPD*%
G01*
G04 APERTURE LIST*
%ADD10C,0.100000*%
%ADD11C,0.120000*%
%ADD12C,0.150000*%
%ADD13C,0.200000*%
G04 APERTURE END LIST*
D10*
D11*
X156786000Y-124000000D02*
G75*
G03X156786000Y-124000000I-2286000J0D01*
G01*
X120286000Y-124000000D02*
G75*
G03X120286000Y-124000000I-2286000J0D01*
G01*
X156786000Y-50000000D02*
G75*
G03X156786000Y-50000000I-2286000J0D01*
G01*
X120286000Y-50000000D02*
G75*
G03X120286000Y-50000000I-2286000J0D01*
G01*
X138049000Y-83086000D02*
X137349000Y-83086000D01*
X137349000Y-81886000D02*
X138049000Y-81886000D01*
X149829000Y-79566000D02*
X148829000Y-79566000D01*
X148829000Y-81266000D02*
X149829000Y-81266000D01*
X144079000Y-69806000D02*
X143079000Y-69806000D01*
X143079000Y-71506000D02*
X144079000Y-71506000D01*
X150049000Y-83256000D02*
X149049000Y-83256000D01*
X149049000Y-84956000D02*
X150049000Y-84956000D01*
X120139000Y-79526000D02*
X120139000Y-80526000D01*
X121839000Y-80526000D02*
X121839000Y-79526000D01*
X143119000Y-74776000D02*
X144119000Y-74776000D01*
X144119000Y-73076000D02*
X143119000Y-73076000D01*
X121829000Y-75786000D02*
X121829000Y-74786000D01*
X120129000Y-74786000D02*
X120129000Y-75786000D01*
X144039000Y-75746000D02*
X143039000Y-75746000D01*
X143039000Y-77446000D02*
X144039000Y-77446000D01*
X119299000Y-70826000D02*
X118599000Y-70826000D01*
X118599000Y-69626000D02*
X119299000Y-69626000D01*
X119249000Y-64926000D02*
X118549000Y-64926000D01*
X118549000Y-63726000D02*
X119249000Y-63726000D01*
X128306120Y-107752400D02*
X128306120Y-108452400D01*
X127106120Y-108452400D02*
X127106120Y-107752400D01*
X135966760Y-114828840D02*
X135966760Y-115528840D01*
X134766760Y-115528840D02*
X134766760Y-114828840D01*
X142669000Y-108426000D02*
X143369000Y-108426000D01*
X143369000Y-109626000D02*
X142669000Y-109626000D01*
X140355880Y-114828840D02*
X140355880Y-115528840D01*
X139155880Y-115528840D02*
X139155880Y-114828840D01*
X144623080Y-114839000D02*
X144623080Y-115539000D01*
X143423080Y-115539000D02*
X143423080Y-114839000D01*
X131703560Y-114526620D02*
X131003560Y-114526620D01*
X131003560Y-113326620D02*
X131703560Y-113326620D01*
X127985000Y-113642700D02*
X127285000Y-113642700D01*
X127285000Y-112442700D02*
X127985000Y-112442700D01*
X150309000Y-75656000D02*
X149309000Y-75656000D01*
X149309000Y-77356000D02*
X150309000Y-77356000D01*
X144679000Y-103126000D02*
X144679000Y-103826000D01*
X143479000Y-103826000D02*
X143479000Y-103126000D01*
X149259000Y-91726000D02*
X149959000Y-91726000D01*
X149959000Y-92926000D02*
X149259000Y-92926000D01*
X143809000Y-90046000D02*
X143109000Y-90046000D01*
X143109000Y-88846000D02*
X143809000Y-88846000D01*
X132719000Y-94706000D02*
X132019000Y-94706000D01*
X132019000Y-93506000D02*
X132719000Y-93506000D01*
X136399000Y-93456000D02*
X137099000Y-93456000D01*
X137099000Y-94656000D02*
X136399000Y-94656000D01*
X124790760Y-107772720D02*
X124790760Y-108472720D01*
X123590760Y-108472720D02*
X123590760Y-107772720D01*
X149279000Y-87696000D02*
X149979000Y-87696000D01*
X149979000Y-88896000D02*
X149279000Y-88896000D01*
X132729720Y-97018400D02*
X132029720Y-97018400D01*
X132029720Y-95818400D02*
X132729720Y-95818400D01*
X126061100Y-126068200D02*
X126061100Y-127068200D01*
X127761100Y-127068200D02*
X127761100Y-126068200D01*
X131821480Y-126225820D02*
X131821480Y-126925820D01*
X130621480Y-126925820D02*
X130621480Y-126225820D01*
X135984540Y-126002300D02*
X135984540Y-126702300D01*
X134784540Y-126702300D02*
X134784540Y-126002300D01*
X147494700Y-122536700D02*
X147494700Y-121836700D01*
X148694700Y-121836700D02*
X148694700Y-122536700D01*
X131709720Y-120945160D02*
X131709720Y-121645160D01*
X130509720Y-121645160D02*
X130509720Y-120945160D01*
X140009360Y-122398080D02*
X139309360Y-122398080D01*
X139309360Y-121198080D02*
X140009360Y-121198080D01*
X135761020Y-120889280D02*
X135761020Y-121589280D01*
X134561020Y-121589280D02*
X134561020Y-120889280D01*
X132100840Y-116979140D02*
X132800840Y-116979140D01*
X132800840Y-118179140D02*
X132100840Y-118179140D01*
X146054722Y-63806277D02*
G75*
G03X141443420Y-63806000I-2305722J-1179723D01*
G01*
X146054722Y-66165723D02*
G75*
G02X141443420Y-66166000I-2305722J1179723D01*
G01*
X146054722Y-66165723D02*
G75*
G03X146054580Y-63806000I-2305722J1179723D01*
G01*
X143749000Y-62436000D02*
X143749000Y-67536000D01*
X143789000Y-62436000D02*
X143789000Y-67536000D01*
X143829000Y-62437000D02*
X143829000Y-67535000D01*
X143869000Y-62438000D02*
X143869000Y-67534000D01*
X143909000Y-62440000D02*
X143909000Y-67532000D01*
X143949000Y-62443000D02*
X143949000Y-67529000D01*
X143989000Y-62447000D02*
X143989000Y-67525000D01*
X144029000Y-62451000D02*
X144029000Y-64006000D01*
X144029000Y-65966000D02*
X144029000Y-67521000D01*
X144069000Y-62455000D02*
X144069000Y-64006000D01*
X144069000Y-65966000D02*
X144069000Y-67517000D01*
X144109000Y-62461000D02*
X144109000Y-64006000D01*
X144109000Y-65966000D02*
X144109000Y-67511000D01*
X144149000Y-62467000D02*
X144149000Y-64006000D01*
X144149000Y-65966000D02*
X144149000Y-67505000D01*
X144189000Y-62473000D02*
X144189000Y-64006000D01*
X144189000Y-65966000D02*
X144189000Y-67499000D01*
X144229000Y-62480000D02*
X144229000Y-64006000D01*
X144229000Y-65966000D02*
X144229000Y-67492000D01*
X144269000Y-62488000D02*
X144269000Y-64006000D01*
X144269000Y-65966000D02*
X144269000Y-67484000D01*
X144309000Y-62497000D02*
X144309000Y-64006000D01*
X144309000Y-65966000D02*
X144309000Y-67475000D01*
X144349000Y-62506000D02*
X144349000Y-64006000D01*
X144349000Y-65966000D02*
X144349000Y-67466000D01*
X144389000Y-62516000D02*
X144389000Y-64006000D01*
X144389000Y-65966000D02*
X144389000Y-67456000D01*
X144429000Y-62526000D02*
X144429000Y-64006000D01*
X144429000Y-65966000D02*
X144429000Y-67446000D01*
X144470000Y-62538000D02*
X144470000Y-64006000D01*
X144470000Y-65966000D02*
X144470000Y-67434000D01*
X144510000Y-62550000D02*
X144510000Y-64006000D01*
X144510000Y-65966000D02*
X144510000Y-67422000D01*
X144550000Y-62562000D02*
X144550000Y-64006000D01*
X144550000Y-65966000D02*
X144550000Y-67410000D01*
X144590000Y-62576000D02*
X144590000Y-64006000D01*
X144590000Y-65966000D02*
X144590000Y-67396000D01*
X144630000Y-62590000D02*
X144630000Y-64006000D01*
X144630000Y-65966000D02*
X144630000Y-67382000D01*
X144670000Y-62604000D02*
X144670000Y-64006000D01*
X144670000Y-65966000D02*
X144670000Y-67368000D01*
X144710000Y-62620000D02*
X144710000Y-64006000D01*
X144710000Y-65966000D02*
X144710000Y-67352000D01*
X144750000Y-62636000D02*
X144750000Y-64006000D01*
X144750000Y-65966000D02*
X144750000Y-67336000D01*
X144790000Y-62653000D02*
X144790000Y-64006000D01*
X144790000Y-65966000D02*
X144790000Y-67319000D01*
X144830000Y-62671000D02*
X144830000Y-64006000D01*
X144830000Y-65966000D02*
X144830000Y-67301000D01*
X144870000Y-62690000D02*
X144870000Y-64006000D01*
X144870000Y-65966000D02*
X144870000Y-67282000D01*
X144910000Y-62710000D02*
X144910000Y-64006000D01*
X144910000Y-65966000D02*
X144910000Y-67262000D01*
X144950000Y-62730000D02*
X144950000Y-64006000D01*
X144950000Y-65966000D02*
X144950000Y-67242000D01*
X144990000Y-62752000D02*
X144990000Y-64006000D01*
X144990000Y-65966000D02*
X144990000Y-67220000D01*
X145030000Y-62774000D02*
X145030000Y-64006000D01*
X145030000Y-65966000D02*
X145030000Y-67198000D01*
X145070000Y-62797000D02*
X145070000Y-64006000D01*
X145070000Y-65966000D02*
X145070000Y-67175000D01*
X145110000Y-62821000D02*
X145110000Y-64006000D01*
X145110000Y-65966000D02*
X145110000Y-67151000D01*
X145150000Y-62846000D02*
X145150000Y-64006000D01*
X145150000Y-65966000D02*
X145150000Y-67126000D01*
X145190000Y-62873000D02*
X145190000Y-64006000D01*
X145190000Y-65966000D02*
X145190000Y-67099000D01*
X145230000Y-62900000D02*
X145230000Y-64006000D01*
X145230000Y-65966000D02*
X145230000Y-67072000D01*
X145270000Y-62928000D02*
X145270000Y-64006000D01*
X145270000Y-65966000D02*
X145270000Y-67044000D01*
X145310000Y-62958000D02*
X145310000Y-64006000D01*
X145310000Y-65966000D02*
X145310000Y-67014000D01*
X145350000Y-62989000D02*
X145350000Y-64006000D01*
X145350000Y-65966000D02*
X145350000Y-66983000D01*
X145390000Y-63021000D02*
X145390000Y-64006000D01*
X145390000Y-65966000D02*
X145390000Y-66951000D01*
X145430000Y-63054000D02*
X145430000Y-64006000D01*
X145430000Y-65966000D02*
X145430000Y-66918000D01*
X145470000Y-63089000D02*
X145470000Y-64006000D01*
X145470000Y-65966000D02*
X145470000Y-66883000D01*
X145510000Y-63125000D02*
X145510000Y-64006000D01*
X145510000Y-65966000D02*
X145510000Y-66847000D01*
X145550000Y-63163000D02*
X145550000Y-64006000D01*
X145550000Y-65966000D02*
X145550000Y-66809000D01*
X145590000Y-63203000D02*
X145590000Y-64006000D01*
X145590000Y-65966000D02*
X145590000Y-66769000D01*
X145630000Y-63244000D02*
X145630000Y-64006000D01*
X145630000Y-65966000D02*
X145630000Y-66728000D01*
X145670000Y-63287000D02*
X145670000Y-64006000D01*
X145670000Y-65966000D02*
X145670000Y-66685000D01*
X145710000Y-63332000D02*
X145710000Y-64006000D01*
X145710000Y-65966000D02*
X145710000Y-66640000D01*
X145750000Y-63380000D02*
X145750000Y-64006000D01*
X145750000Y-65966000D02*
X145750000Y-66592000D01*
X145790000Y-63430000D02*
X145790000Y-64006000D01*
X145790000Y-65966000D02*
X145790000Y-66542000D01*
X145830000Y-63482000D02*
X145830000Y-64006000D01*
X145830000Y-65966000D02*
X145830000Y-66490000D01*
X145870000Y-63538000D02*
X145870000Y-64006000D01*
X145870000Y-65966000D02*
X145870000Y-66434000D01*
X145910000Y-63596000D02*
X145910000Y-64006000D01*
X145910000Y-65966000D02*
X145910000Y-66376000D01*
X145950000Y-63659000D02*
X145950000Y-64006000D01*
X145950000Y-65966000D02*
X145950000Y-66313000D01*
X145990000Y-63725000D02*
X145990000Y-66247000D01*
X146030000Y-63797000D02*
X146030000Y-66175000D01*
X146070000Y-63874000D02*
X146070000Y-66098000D01*
X146110000Y-63958000D02*
X146110000Y-66014000D01*
X146150000Y-64052000D02*
X146150000Y-65920000D01*
X146190000Y-64157000D02*
X146190000Y-65815000D01*
X146230000Y-64279000D02*
X146230000Y-65693000D01*
X146270000Y-64427000D02*
X146270000Y-65545000D01*
X146310000Y-64632000D02*
X146310000Y-65340000D01*
X140299000Y-64986000D02*
X141499000Y-64986000D01*
X140899000Y-64336000D02*
X140899000Y-65636000D01*
X149299000Y-74776000D02*
X150299000Y-74776000D01*
X150299000Y-73076000D02*
X149299000Y-73076000D01*
X124575200Y-77224000D02*
X124575200Y-78224000D01*
X126275200Y-78224000D02*
X126275200Y-77224000D01*
X147459000Y-63636000D02*
X148459000Y-63636000D01*
X148459000Y-61936000D02*
X147459000Y-61936000D01*
X142109000Y-60616000D02*
X142109000Y-59016000D01*
X142109000Y-59016000D02*
X139509000Y-59016000D01*
X142109000Y-60616000D02*
X139509000Y-60616000D01*
X132789000Y-60606000D02*
X132789000Y-59006000D01*
X132789000Y-59006000D02*
X130189000Y-59006000D01*
X132789000Y-60606000D02*
X130189000Y-60606000D01*
X142079000Y-56076000D02*
X142079000Y-54476000D01*
X142079000Y-54476000D02*
X139479000Y-54476000D01*
X142079000Y-56076000D02*
X139479000Y-56076000D01*
X132999000Y-55926000D02*
X132999000Y-54326000D01*
X132999000Y-54326000D02*
X130399000Y-54326000D01*
X132999000Y-55926000D02*
X130399000Y-55926000D01*
X139869000Y-43946000D02*
X132169000Y-43946000D01*
X139869000Y-42946000D02*
X132169000Y-42946000D01*
X132169000Y-42946000D02*
X132169000Y-52146000D01*
X132169000Y-52146000D02*
X139869000Y-52146000D01*
X139869000Y-52146000D02*
X139869000Y-42946000D01*
X143480900Y-127434900D02*
X143480900Y-126234900D01*
X145240900Y-126234900D02*
X145240900Y-127434900D01*
X143442800Y-122824800D02*
X143442800Y-121624800D01*
X145202800Y-121624800D02*
X145202800Y-122824800D01*
X122210940Y-125192080D02*
X122210940Y-123992080D01*
X123970940Y-123992080D02*
X123970940Y-125192080D01*
X125916800Y-122862900D02*
X125916800Y-121662900D01*
X127676800Y-121662900D02*
X127676800Y-122862900D01*
X122155060Y-120554040D02*
X122155060Y-119354040D01*
X123915060Y-119354040D02*
X123915060Y-120554040D01*
X127059800Y-118405200D02*
X127059800Y-117205200D01*
X128819800Y-117205200D02*
X128819800Y-118405200D01*
X134469000Y-65886000D02*
X133469000Y-65886000D01*
X133469000Y-64526000D02*
X134469000Y-64526000D01*
X136517000Y-90270880D02*
X135517000Y-90270880D01*
X135517000Y-88910880D02*
X136517000Y-88910880D01*
D12*
X132904000Y-73941000D02*
X133429000Y-73941000D01*
X138154000Y-79191000D02*
X137629000Y-79191000D01*
X138154000Y-73941000D02*
X137629000Y-73941000D01*
X132904000Y-79191000D02*
X132904000Y-78666000D01*
X138154000Y-79191000D02*
X138154000Y-78666000D01*
X138154000Y-73941000D02*
X138154000Y-74466000D01*
X132904000Y-73941000D02*
X132904000Y-74466000D01*
X132209000Y-102276000D02*
X132734000Y-102276000D01*
X138509000Y-108576000D02*
X137984000Y-108576000D01*
X138509000Y-102276000D02*
X137984000Y-102276000D01*
X132209000Y-108576000D02*
X132209000Y-108051000D01*
X138509000Y-108576000D02*
X138509000Y-108051000D01*
X138509000Y-102276000D02*
X138509000Y-102801000D01*
X132209000Y-102276000D02*
X132209000Y-102801000D01*
X148144000Y-67376000D02*
X149594000Y-67376000D01*
X147419000Y-65176000D02*
X149594000Y-65176000D01*
D11*
X145189000Y-59256000D02*
X143989000Y-59256000D01*
X143989000Y-59256000D02*
X143989000Y-56556000D01*
X148789000Y-55256000D02*
X148789000Y-59256000D01*
X148789000Y-59256000D02*
X147589000Y-59256000D01*
X123284000Y-70986000D02*
X123284000Y-64586000D01*
X128334000Y-70986000D02*
X128334000Y-64586000D01*
X128334000Y-70986000D02*
G75*
G02X123284000Y-70986000I-2525000J0D01*
G01*
X128334000Y-64586000D02*
G75*
G03X123284000Y-64586000I-2525000J0D01*
G01*
X117999000Y-82606000D02*
X117999000Y-84506000D01*
X117999000Y-84506000D02*
X119849000Y-84506000D01*
X119849000Y-84506000D02*
X119849000Y-82656000D01*
X119849000Y-82656000D02*
X119849000Y-82606000D01*
X119849000Y-82606000D02*
X117999000Y-82606000D01*
X117979000Y-85206000D02*
X117979000Y-87106000D01*
X117979000Y-87106000D02*
X119829000Y-87106000D01*
X119829000Y-87106000D02*
X119829000Y-85256000D01*
X119829000Y-85256000D02*
X119829000Y-85206000D01*
X119829000Y-85206000D02*
X117979000Y-85206000D01*
X117919000Y-87796000D02*
X117919000Y-89696000D01*
X117919000Y-89696000D02*
X119769000Y-89696000D01*
X119769000Y-89696000D02*
X119769000Y-87846000D01*
X119769000Y-87846000D02*
X119769000Y-87796000D01*
X119769000Y-87796000D02*
X117919000Y-87796000D01*
X117949000Y-90386000D02*
X117949000Y-92286000D01*
X117949000Y-92286000D02*
X119799000Y-92286000D01*
X119799000Y-92286000D02*
X119799000Y-90436000D01*
X119799000Y-90436000D02*
X119799000Y-90386000D01*
X119799000Y-90386000D02*
X117949000Y-90386000D01*
X118029000Y-93016000D02*
X118029000Y-94916000D01*
X118029000Y-94916000D02*
X119879000Y-94916000D01*
X119879000Y-94916000D02*
X119879000Y-93066000D01*
X119879000Y-93066000D02*
X119879000Y-93016000D01*
X119879000Y-93016000D02*
X118029000Y-93016000D01*
D12*
X153166667Y-121404381D02*
X152833333Y-120928190D01*
X152595238Y-121404381D02*
X152595238Y-120404381D01*
X152976191Y-120404381D01*
X153071429Y-120452000D01*
X153119048Y-120499619D01*
X153166667Y-120594857D01*
X153166667Y-120737714D01*
X153119048Y-120832952D01*
X153071429Y-120880571D01*
X152976191Y-120928190D01*
X152595238Y-120928190D01*
X153595238Y-120880571D02*
X153928572Y-120880571D01*
X154071429Y-121404381D02*
X153595238Y-121404381D01*
X153595238Y-120404381D01*
X154071429Y-120404381D01*
X154833334Y-120880571D02*
X154500000Y-120880571D01*
X154500000Y-121404381D02*
X154500000Y-120404381D01*
X154976191Y-120404381D01*
X155500000Y-120404381D02*
X155500000Y-120642476D01*
X155261905Y-120547238D02*
X155500000Y-120642476D01*
X155738096Y-120547238D01*
X155357143Y-120832952D02*
X155500000Y-120642476D01*
X155642858Y-120832952D01*
X156261905Y-120404381D02*
X156261905Y-120642476D01*
X156023810Y-120547238D02*
X156261905Y-120642476D01*
X156500001Y-120547238D01*
X156119048Y-120832952D02*
X156261905Y-120642476D01*
X156404763Y-120832952D01*
X116666667Y-121404381D02*
X116333333Y-120928190D01*
X116095238Y-121404381D02*
X116095238Y-120404381D01*
X116476191Y-120404381D01*
X116571429Y-120452000D01*
X116619048Y-120499619D01*
X116666667Y-120594857D01*
X116666667Y-120737714D01*
X116619048Y-120832952D01*
X116571429Y-120880571D01*
X116476191Y-120928190D01*
X116095238Y-120928190D01*
X117095238Y-120880571D02*
X117428572Y-120880571D01*
X117571429Y-121404381D02*
X117095238Y-121404381D01*
X117095238Y-120404381D01*
X117571429Y-120404381D01*
X118333334Y-120880571D02*
X118000000Y-120880571D01*
X118000000Y-121404381D02*
X118000000Y-120404381D01*
X118476191Y-120404381D01*
X119000000Y-120404381D02*
X119000000Y-120642476D01*
X118761905Y-120547238D02*
X119000000Y-120642476D01*
X119238096Y-120547238D01*
X118857143Y-120832952D02*
X119000000Y-120642476D01*
X119142858Y-120832952D01*
X119761905Y-120404381D02*
X119761905Y-120642476D01*
X119523810Y-120547238D02*
X119761905Y-120642476D01*
X120000001Y-120547238D01*
X119619048Y-120832952D02*
X119761905Y-120642476D01*
X119904763Y-120832952D01*
X153166667Y-47404381D02*
X152833333Y-46928190D01*
X152595238Y-47404381D02*
X152595238Y-46404381D01*
X152976191Y-46404381D01*
X153071429Y-46452000D01*
X153119048Y-46499619D01*
X153166667Y-46594857D01*
X153166667Y-46737714D01*
X153119048Y-46832952D01*
X153071429Y-46880571D01*
X152976191Y-46928190D01*
X152595238Y-46928190D01*
X153595238Y-46880571D02*
X153928572Y-46880571D01*
X154071429Y-47404381D02*
X153595238Y-47404381D01*
X153595238Y-46404381D01*
X154071429Y-46404381D01*
X154833334Y-46880571D02*
X154500000Y-46880571D01*
X154500000Y-47404381D02*
X154500000Y-46404381D01*
X154976191Y-46404381D01*
X155500000Y-46404381D02*
X155500000Y-46642476D01*
X155261905Y-46547238D02*
X155500000Y-46642476D01*
X155738096Y-46547238D01*
X155357143Y-46832952D02*
X155500000Y-46642476D01*
X155642858Y-46832952D01*
X156261905Y-46404381D02*
X156261905Y-46642476D01*
X156023810Y-46547238D02*
X156261905Y-46642476D01*
X156500001Y-46547238D01*
X156119048Y-46832952D02*
X156261905Y-46642476D01*
X156404763Y-46832952D01*
X116666667Y-47404381D02*
X116333333Y-46928190D01*
X116095238Y-47404381D02*
X116095238Y-46404381D01*
X116476191Y-46404381D01*
X116571429Y-46452000D01*
X116619048Y-46499619D01*
X116666667Y-46594857D01*
X116666667Y-46737714D01*
X116619048Y-46832952D01*
X116571429Y-46880571D01*
X116476191Y-46928190D01*
X116095238Y-46928190D01*
X117095238Y-46880571D02*
X117428572Y-46880571D01*
X117571429Y-47404381D02*
X117095238Y-47404381D01*
X117095238Y-46404381D01*
X117571429Y-46404381D01*
X118333334Y-46880571D02*
X118000000Y-46880571D01*
X118000000Y-47404381D02*
X118000000Y-46404381D01*
X118476191Y-46404381D01*
X119000000Y-46404381D02*
X119000000Y-46642476D01*
X118761905Y-46547238D02*
X119000000Y-46642476D01*
X119238096Y-46547238D01*
X118857143Y-46832952D02*
X119000000Y-46642476D01*
X119142858Y-46832952D01*
X119761905Y-46404381D02*
X119761905Y-46642476D01*
X119523810Y-46547238D02*
X119761905Y-46642476D01*
X120000001Y-46547238D01*
X119619048Y-46832952D02*
X119761905Y-46642476D01*
X119904763Y-46832952D01*
X137532334Y-81343143D02*
X137484715Y-81390762D01*
X137341858Y-81438381D01*
X137246620Y-81438381D01*
X137103762Y-81390762D01*
X137008524Y-81295524D01*
X136960905Y-81200286D01*
X136913286Y-81009810D01*
X136913286Y-80866952D01*
X136960905Y-80676476D01*
X137008524Y-80581238D01*
X137103762Y-80486000D01*
X137246620Y-80438381D01*
X137341858Y-80438381D01*
X137484715Y-80486000D01*
X137532334Y-80533619D01*
X138484715Y-81438381D02*
X137913286Y-81438381D01*
X138199000Y-81438381D02*
X138199000Y-80438381D01*
X138103762Y-80581238D01*
X138008524Y-80676476D01*
X137913286Y-80724095D01*
X149162334Y-79273143D02*
X149114715Y-79320762D01*
X148971858Y-79368381D01*
X148876620Y-79368381D01*
X148733762Y-79320762D01*
X148638524Y-79225524D01*
X148590905Y-79130286D01*
X148543286Y-78939810D01*
X148543286Y-78796952D01*
X148590905Y-78606476D01*
X148638524Y-78511238D01*
X148733762Y-78416000D01*
X148876620Y-78368381D01*
X148971858Y-78368381D01*
X149114715Y-78416000D01*
X149162334Y-78463619D01*
X149543286Y-78463619D02*
X149590905Y-78416000D01*
X149686143Y-78368381D01*
X149924239Y-78368381D01*
X150019477Y-78416000D01*
X150067096Y-78463619D01*
X150114715Y-78558857D01*
X150114715Y-78654095D01*
X150067096Y-78796952D01*
X149495667Y-79368381D01*
X150114715Y-79368381D01*
X143412334Y-69513143D02*
X143364715Y-69560762D01*
X143221858Y-69608381D01*
X143126620Y-69608381D01*
X142983762Y-69560762D01*
X142888524Y-69465524D01*
X142840905Y-69370286D01*
X142793286Y-69179810D01*
X142793286Y-69036952D01*
X142840905Y-68846476D01*
X142888524Y-68751238D01*
X142983762Y-68656000D01*
X143126620Y-68608381D01*
X143221858Y-68608381D01*
X143364715Y-68656000D01*
X143412334Y-68703619D01*
X143745667Y-68608381D02*
X144364715Y-68608381D01*
X144031381Y-68989333D01*
X144174239Y-68989333D01*
X144269477Y-69036952D01*
X144317096Y-69084571D01*
X144364715Y-69179810D01*
X144364715Y-69417905D01*
X144317096Y-69513143D01*
X144269477Y-69560762D01*
X144174239Y-69608381D01*
X143888524Y-69608381D01*
X143793286Y-69560762D01*
X143745667Y-69513143D01*
X149382334Y-82963143D02*
X149334715Y-83010762D01*
X149191858Y-83058381D01*
X149096620Y-83058381D01*
X148953762Y-83010762D01*
X148858524Y-82915524D01*
X148810905Y-82820286D01*
X148763286Y-82629810D01*
X148763286Y-82486952D01*
X148810905Y-82296476D01*
X148858524Y-82201238D01*
X148953762Y-82106000D01*
X149096620Y-82058381D01*
X149191858Y-82058381D01*
X149334715Y-82106000D01*
X149382334Y-82153619D01*
X150239477Y-82391714D02*
X150239477Y-83058381D01*
X150001381Y-82010762D02*
X149763286Y-82725048D01*
X150382334Y-82725048D01*
X119846143Y-80192666D02*
X119893762Y-80240285D01*
X119941381Y-80383142D01*
X119941381Y-80478380D01*
X119893762Y-80621238D01*
X119798524Y-80716476D01*
X119703286Y-80764095D01*
X119512810Y-80811714D01*
X119369952Y-80811714D01*
X119179476Y-80764095D01*
X119084238Y-80716476D01*
X118989000Y-80621238D01*
X118941381Y-80478380D01*
X118941381Y-80383142D01*
X118989000Y-80240285D01*
X119036619Y-80192666D01*
X118941381Y-79287904D02*
X118941381Y-79764095D01*
X119417571Y-79811714D01*
X119369952Y-79764095D01*
X119322333Y-79668857D01*
X119322333Y-79430761D01*
X119369952Y-79335523D01*
X119417571Y-79287904D01*
X119512810Y-79240285D01*
X119750905Y-79240285D01*
X119846143Y-79287904D01*
X119893762Y-79335523D01*
X119941381Y-79430761D01*
X119941381Y-79668857D01*
X119893762Y-79764095D01*
X119846143Y-79811714D01*
X143452334Y-75783143D02*
X143404715Y-75830762D01*
X143261858Y-75878381D01*
X143166620Y-75878381D01*
X143023762Y-75830762D01*
X142928524Y-75735524D01*
X142880905Y-75640286D01*
X142833286Y-75449810D01*
X142833286Y-75306952D01*
X142880905Y-75116476D01*
X142928524Y-75021238D01*
X143023762Y-74926000D01*
X143166620Y-74878381D01*
X143261858Y-74878381D01*
X143404715Y-74926000D01*
X143452334Y-74973619D01*
X144309477Y-74878381D02*
X144119000Y-74878381D01*
X144023762Y-74926000D01*
X143976143Y-74973619D01*
X143880905Y-75116476D01*
X143833286Y-75306952D01*
X143833286Y-75687905D01*
X143880905Y-75783143D01*
X143928524Y-75830762D01*
X144023762Y-75878381D01*
X144214239Y-75878381D01*
X144309477Y-75830762D01*
X144357096Y-75783143D01*
X144404715Y-75687905D01*
X144404715Y-75449810D01*
X144357096Y-75354571D01*
X144309477Y-75306952D01*
X144214239Y-75259333D01*
X144023762Y-75259333D01*
X143928524Y-75306952D01*
X143880905Y-75354571D01*
X143833286Y-75449810D01*
X122836143Y-75452666D02*
X122883762Y-75500285D01*
X122931381Y-75643142D01*
X122931381Y-75738380D01*
X122883762Y-75881238D01*
X122788524Y-75976476D01*
X122693286Y-76024095D01*
X122502810Y-76071714D01*
X122359952Y-76071714D01*
X122169476Y-76024095D01*
X122074238Y-75976476D01*
X121979000Y-75881238D01*
X121931381Y-75738380D01*
X121931381Y-75643142D01*
X121979000Y-75500285D01*
X122026619Y-75452666D01*
X121931381Y-75119333D02*
X121931381Y-74452666D01*
X122931381Y-74881238D01*
X143372334Y-75453143D02*
X143324715Y-75500762D01*
X143181858Y-75548381D01*
X143086620Y-75548381D01*
X142943762Y-75500762D01*
X142848524Y-75405524D01*
X142800905Y-75310286D01*
X142753286Y-75119810D01*
X142753286Y-74976952D01*
X142800905Y-74786476D01*
X142848524Y-74691238D01*
X142943762Y-74596000D01*
X143086620Y-74548381D01*
X143181858Y-74548381D01*
X143324715Y-74596000D01*
X143372334Y-74643619D01*
X143943762Y-74976952D02*
X143848524Y-74929333D01*
X143800905Y-74881714D01*
X143753286Y-74786476D01*
X143753286Y-74738857D01*
X143800905Y-74643619D01*
X143848524Y-74596000D01*
X143943762Y-74548381D01*
X144134239Y-74548381D01*
X144229477Y-74596000D01*
X144277096Y-74643619D01*
X144324715Y-74738857D01*
X144324715Y-74786476D01*
X144277096Y-74881714D01*
X144229477Y-74929333D01*
X144134239Y-74976952D01*
X143943762Y-74976952D01*
X143848524Y-75024571D01*
X143800905Y-75072190D01*
X143753286Y-75167429D01*
X143753286Y-75357905D01*
X143800905Y-75453143D01*
X143848524Y-75500762D01*
X143943762Y-75548381D01*
X144134239Y-75548381D01*
X144229477Y-75500762D01*
X144277096Y-75453143D01*
X144324715Y-75357905D01*
X144324715Y-75167429D01*
X144277096Y-75072190D01*
X144229477Y-75024571D01*
X144134239Y-74976952D01*
X118782334Y-69083143D02*
X118734715Y-69130762D01*
X118591858Y-69178381D01*
X118496620Y-69178381D01*
X118353762Y-69130762D01*
X118258524Y-69035524D01*
X118210905Y-68940286D01*
X118163286Y-68749810D01*
X118163286Y-68606952D01*
X118210905Y-68416476D01*
X118258524Y-68321238D01*
X118353762Y-68226000D01*
X118496620Y-68178381D01*
X118591858Y-68178381D01*
X118734715Y-68226000D01*
X118782334Y-68273619D01*
X119258524Y-69178381D02*
X119449000Y-69178381D01*
X119544239Y-69130762D01*
X119591858Y-69083143D01*
X119687096Y-68940286D01*
X119734715Y-68749810D01*
X119734715Y-68368857D01*
X119687096Y-68273619D01*
X119639477Y-68226000D01*
X119544239Y-68178381D01*
X119353762Y-68178381D01*
X119258524Y-68226000D01*
X119210905Y-68273619D01*
X119163286Y-68368857D01*
X119163286Y-68606952D01*
X119210905Y-68702190D01*
X119258524Y-68749810D01*
X119353762Y-68797429D01*
X119544239Y-68797429D01*
X119639477Y-68749810D01*
X119687096Y-68702190D01*
X119734715Y-68606952D01*
X118256143Y-63183143D02*
X118208524Y-63230762D01*
X118065667Y-63278381D01*
X117970429Y-63278381D01*
X117827571Y-63230762D01*
X117732333Y-63135524D01*
X117684714Y-63040286D01*
X117637095Y-62849810D01*
X117637095Y-62706952D01*
X117684714Y-62516476D01*
X117732333Y-62421238D01*
X117827571Y-62326000D01*
X117970429Y-62278381D01*
X118065667Y-62278381D01*
X118208524Y-62326000D01*
X118256143Y-62373619D01*
X119208524Y-63278381D02*
X118637095Y-63278381D01*
X118922809Y-63278381D02*
X118922809Y-62278381D01*
X118827571Y-62421238D01*
X118732333Y-62516476D01*
X118637095Y-62564095D01*
X119827571Y-62278381D02*
X119922810Y-62278381D01*
X120018048Y-62326000D01*
X120065667Y-62373619D01*
X120113286Y-62468857D01*
X120160905Y-62659333D01*
X120160905Y-62897429D01*
X120113286Y-63087905D01*
X120065667Y-63183143D01*
X120018048Y-63230762D01*
X119922810Y-63278381D01*
X119827571Y-63278381D01*
X119732333Y-63230762D01*
X119684714Y-63183143D01*
X119637095Y-63087905D01*
X119589476Y-62897429D01*
X119589476Y-62659333D01*
X119637095Y-62468857D01*
X119684714Y-62373619D01*
X119732333Y-62326000D01*
X119827571Y-62278381D01*
X126563263Y-108745257D02*
X126610882Y-108792876D01*
X126658501Y-108935733D01*
X126658501Y-109030971D01*
X126610882Y-109173829D01*
X126515644Y-109269067D01*
X126420406Y-109316686D01*
X126229930Y-109364305D01*
X126087072Y-109364305D01*
X125896596Y-109316686D01*
X125801358Y-109269067D01*
X125706120Y-109173829D01*
X125658501Y-109030971D01*
X125658501Y-108935733D01*
X125706120Y-108792876D01*
X125753739Y-108745257D01*
X126658501Y-107792876D02*
X126658501Y-108364305D01*
X126658501Y-108078591D02*
X125658501Y-108078591D01*
X125801358Y-108173829D01*
X125896596Y-108269067D01*
X125944215Y-108364305D01*
X126658501Y-106840495D02*
X126658501Y-107411924D01*
X126658501Y-107126210D02*
X125658501Y-107126210D01*
X125801358Y-107221448D01*
X125896596Y-107316686D01*
X125944215Y-107411924D01*
X134223903Y-115821697D02*
X134271522Y-115869316D01*
X134319141Y-116012173D01*
X134319141Y-116107411D01*
X134271522Y-116250269D01*
X134176284Y-116345507D01*
X134081046Y-116393126D01*
X133890570Y-116440745D01*
X133747712Y-116440745D01*
X133557236Y-116393126D01*
X133461998Y-116345507D01*
X133366760Y-116250269D01*
X133319141Y-116107411D01*
X133319141Y-116012173D01*
X133366760Y-115869316D01*
X133414379Y-115821697D01*
X134319141Y-114869316D02*
X134319141Y-115440745D01*
X134319141Y-115155031D02*
X133319141Y-115155031D01*
X133461998Y-115250269D01*
X133557236Y-115345507D01*
X133604855Y-115440745D01*
X133414379Y-114488364D02*
X133366760Y-114440745D01*
X133319141Y-114345507D01*
X133319141Y-114107411D01*
X133366760Y-114012173D01*
X133414379Y-113964554D01*
X133509617Y-113916935D01*
X133604855Y-113916935D01*
X133747712Y-113964554D01*
X134319141Y-114535983D01*
X134319141Y-113916935D01*
X142376143Y-110883143D02*
X142328524Y-110930762D01*
X142185667Y-110978381D01*
X142090429Y-110978381D01*
X141947571Y-110930762D01*
X141852333Y-110835524D01*
X141804714Y-110740286D01*
X141757095Y-110549810D01*
X141757095Y-110406952D01*
X141804714Y-110216476D01*
X141852333Y-110121238D01*
X141947571Y-110026000D01*
X142090429Y-109978381D01*
X142185667Y-109978381D01*
X142328524Y-110026000D01*
X142376143Y-110073619D01*
X143328524Y-110978381D02*
X142757095Y-110978381D01*
X143042809Y-110978381D02*
X143042809Y-109978381D01*
X142947571Y-110121238D01*
X142852333Y-110216476D01*
X142757095Y-110264095D01*
X143661857Y-109978381D02*
X144280905Y-109978381D01*
X143947571Y-110359333D01*
X144090429Y-110359333D01*
X144185667Y-110406952D01*
X144233286Y-110454571D01*
X144280905Y-110549810D01*
X144280905Y-110787905D01*
X144233286Y-110883143D01*
X144185667Y-110930762D01*
X144090429Y-110978381D01*
X143804714Y-110978381D01*
X143709476Y-110930762D01*
X143661857Y-110883143D01*
X138613023Y-115821697D02*
X138660642Y-115869316D01*
X138708261Y-116012173D01*
X138708261Y-116107411D01*
X138660642Y-116250269D01*
X138565404Y-116345507D01*
X138470166Y-116393126D01*
X138279690Y-116440745D01*
X138136832Y-116440745D01*
X137946356Y-116393126D01*
X137851118Y-116345507D01*
X137755880Y-116250269D01*
X137708261Y-116107411D01*
X137708261Y-116012173D01*
X137755880Y-115869316D01*
X137803499Y-115821697D01*
X138708261Y-114869316D02*
X138708261Y-115440745D01*
X138708261Y-115155031D02*
X137708261Y-115155031D01*
X137851118Y-115250269D01*
X137946356Y-115345507D01*
X137993975Y-115440745D01*
X138041594Y-114012173D02*
X138708261Y-114012173D01*
X137660642Y-114250269D02*
X138374928Y-114488364D01*
X138374928Y-113869316D01*
X142880223Y-115831857D02*
X142927842Y-115879476D01*
X142975461Y-116022333D01*
X142975461Y-116117571D01*
X142927842Y-116260429D01*
X142832604Y-116355667D01*
X142737366Y-116403286D01*
X142546890Y-116450905D01*
X142404032Y-116450905D01*
X142213556Y-116403286D01*
X142118318Y-116355667D01*
X142023080Y-116260429D01*
X141975461Y-116117571D01*
X141975461Y-116022333D01*
X142023080Y-115879476D01*
X142070699Y-115831857D01*
X142975461Y-114879476D02*
X142975461Y-115450905D01*
X142975461Y-115165191D02*
X141975461Y-115165191D01*
X142118318Y-115260429D01*
X142213556Y-115355667D01*
X142261175Y-115450905D01*
X141975461Y-113974714D02*
X141975461Y-114450905D01*
X142451651Y-114498524D01*
X142404032Y-114450905D01*
X142356413Y-114355667D01*
X142356413Y-114117571D01*
X142404032Y-114022333D01*
X142451651Y-113974714D01*
X142546890Y-113927095D01*
X142784985Y-113927095D01*
X142880223Y-113974714D01*
X142927842Y-114022333D01*
X142975461Y-114117571D01*
X142975461Y-114355667D01*
X142927842Y-114450905D01*
X142880223Y-114498524D01*
X130710703Y-112783763D02*
X130663084Y-112831382D01*
X130520227Y-112879001D01*
X130424989Y-112879001D01*
X130282131Y-112831382D01*
X130186893Y-112736144D01*
X130139274Y-112640906D01*
X130091655Y-112450430D01*
X130091655Y-112307572D01*
X130139274Y-112117096D01*
X130186893Y-112021858D01*
X130282131Y-111926620D01*
X130424989Y-111879001D01*
X130520227Y-111879001D01*
X130663084Y-111926620D01*
X130710703Y-111974239D01*
X131663084Y-112879001D02*
X131091655Y-112879001D01*
X131377369Y-112879001D02*
X131377369Y-111879001D01*
X131282131Y-112021858D01*
X131186893Y-112117096D01*
X131091655Y-112164715D01*
X132520227Y-111879001D02*
X132329750Y-111879001D01*
X132234512Y-111926620D01*
X132186893Y-111974239D01*
X132091655Y-112117096D01*
X132044036Y-112307572D01*
X132044036Y-112688525D01*
X132091655Y-112783763D01*
X132139274Y-112831382D01*
X132234512Y-112879001D01*
X132424989Y-112879001D01*
X132520227Y-112831382D01*
X132567846Y-112783763D01*
X132615465Y-112688525D01*
X132615465Y-112450430D01*
X132567846Y-112355191D01*
X132520227Y-112307572D01*
X132424989Y-112259953D01*
X132234512Y-112259953D01*
X132139274Y-112307572D01*
X132091655Y-112355191D01*
X132044036Y-112450430D01*
X126992143Y-111899843D02*
X126944524Y-111947462D01*
X126801667Y-111995081D01*
X126706429Y-111995081D01*
X126563571Y-111947462D01*
X126468333Y-111852224D01*
X126420714Y-111756986D01*
X126373095Y-111566510D01*
X126373095Y-111423652D01*
X126420714Y-111233176D01*
X126468333Y-111137938D01*
X126563571Y-111042700D01*
X126706429Y-110995081D01*
X126801667Y-110995081D01*
X126944524Y-111042700D01*
X126992143Y-111090319D01*
X127944524Y-111995081D02*
X127373095Y-111995081D01*
X127658809Y-111995081D02*
X127658809Y-110995081D01*
X127563571Y-111137938D01*
X127468333Y-111233176D01*
X127373095Y-111280795D01*
X128277857Y-110995081D02*
X128944524Y-110995081D01*
X128515952Y-111995081D01*
X149166143Y-75363143D02*
X149118524Y-75410762D01*
X148975667Y-75458381D01*
X148880429Y-75458381D01*
X148737571Y-75410762D01*
X148642333Y-75315524D01*
X148594714Y-75220286D01*
X148547095Y-75029810D01*
X148547095Y-74886952D01*
X148594714Y-74696476D01*
X148642333Y-74601238D01*
X148737571Y-74506000D01*
X148880429Y-74458381D01*
X148975667Y-74458381D01*
X149118524Y-74506000D01*
X149166143Y-74553619D01*
X150118524Y-75458381D02*
X149547095Y-75458381D01*
X149832809Y-75458381D02*
X149832809Y-74458381D01*
X149737571Y-74601238D01*
X149642333Y-74696476D01*
X149547095Y-74744095D01*
X150689952Y-74886952D02*
X150594714Y-74839333D01*
X150547095Y-74791714D01*
X150499476Y-74696476D01*
X150499476Y-74648857D01*
X150547095Y-74553619D01*
X150594714Y-74506000D01*
X150689952Y-74458381D01*
X150880429Y-74458381D01*
X150975667Y-74506000D01*
X151023286Y-74553619D01*
X151070905Y-74648857D01*
X151070905Y-74696476D01*
X151023286Y-74791714D01*
X150975667Y-74839333D01*
X150880429Y-74886952D01*
X150689952Y-74886952D01*
X150594714Y-74934571D01*
X150547095Y-74982190D01*
X150499476Y-75077429D01*
X150499476Y-75267905D01*
X150547095Y-75363143D01*
X150594714Y-75410762D01*
X150689952Y-75458381D01*
X150880429Y-75458381D01*
X150975667Y-75410762D01*
X151023286Y-75363143D01*
X151070905Y-75267905D01*
X151070905Y-75077429D01*
X151023286Y-74982190D01*
X150975667Y-74934571D01*
X150880429Y-74886952D01*
X142936143Y-104118857D02*
X142983762Y-104166476D01*
X143031381Y-104309333D01*
X143031381Y-104404571D01*
X142983762Y-104547429D01*
X142888524Y-104642667D01*
X142793286Y-104690286D01*
X142602810Y-104737905D01*
X142459952Y-104737905D01*
X142269476Y-104690286D01*
X142174238Y-104642667D01*
X142079000Y-104547429D01*
X142031381Y-104404571D01*
X142031381Y-104309333D01*
X142079000Y-104166476D01*
X142126619Y-104118857D01*
X143031381Y-103166476D02*
X143031381Y-103737905D01*
X143031381Y-103452191D02*
X142031381Y-103452191D01*
X142174238Y-103547429D01*
X142269476Y-103642667D01*
X142317095Y-103737905D01*
X143031381Y-102690286D02*
X143031381Y-102499810D01*
X142983762Y-102404571D01*
X142936143Y-102356952D01*
X142793286Y-102261714D01*
X142602810Y-102214095D01*
X142221857Y-102214095D01*
X142126619Y-102261714D01*
X142079000Y-102309333D01*
X142031381Y-102404571D01*
X142031381Y-102595048D01*
X142079000Y-102690286D01*
X142126619Y-102737905D01*
X142221857Y-102785524D01*
X142459952Y-102785524D01*
X142555190Y-102737905D01*
X142602810Y-102690286D01*
X142650429Y-102595048D01*
X142650429Y-102404571D01*
X142602810Y-102309333D01*
X142555190Y-102261714D01*
X142459952Y-102214095D01*
X148966143Y-94183143D02*
X148918524Y-94230762D01*
X148775667Y-94278381D01*
X148680429Y-94278381D01*
X148537571Y-94230762D01*
X148442333Y-94135524D01*
X148394714Y-94040286D01*
X148347095Y-93849810D01*
X148347095Y-93706952D01*
X148394714Y-93516476D01*
X148442333Y-93421238D01*
X148537571Y-93326000D01*
X148680429Y-93278381D01*
X148775667Y-93278381D01*
X148918524Y-93326000D01*
X148966143Y-93373619D01*
X149347095Y-93373619D02*
X149394714Y-93326000D01*
X149489952Y-93278381D01*
X149728048Y-93278381D01*
X149823286Y-93326000D01*
X149870905Y-93373619D01*
X149918524Y-93468857D01*
X149918524Y-93564095D01*
X149870905Y-93706952D01*
X149299476Y-94278381D01*
X149918524Y-94278381D01*
X150537571Y-93278381D02*
X150632810Y-93278381D01*
X150728048Y-93326000D01*
X150775667Y-93373619D01*
X150823286Y-93468857D01*
X150870905Y-93659333D01*
X150870905Y-93897429D01*
X150823286Y-94087905D01*
X150775667Y-94183143D01*
X150728048Y-94230762D01*
X150632810Y-94278381D01*
X150537571Y-94278381D01*
X150442333Y-94230762D01*
X150394714Y-94183143D01*
X150347095Y-94087905D01*
X150299476Y-93897429D01*
X150299476Y-93659333D01*
X150347095Y-93468857D01*
X150394714Y-93373619D01*
X150442333Y-93326000D01*
X150537571Y-93278381D01*
X142816143Y-88303143D02*
X142768524Y-88350762D01*
X142625667Y-88398381D01*
X142530429Y-88398381D01*
X142387571Y-88350762D01*
X142292333Y-88255524D01*
X142244714Y-88160286D01*
X142197095Y-87969810D01*
X142197095Y-87826952D01*
X142244714Y-87636476D01*
X142292333Y-87541238D01*
X142387571Y-87446000D01*
X142530429Y-87398381D01*
X142625667Y-87398381D01*
X142768524Y-87446000D01*
X142816143Y-87493619D01*
X143197095Y-87493619D02*
X143244714Y-87446000D01*
X143339952Y-87398381D01*
X143578048Y-87398381D01*
X143673286Y-87446000D01*
X143720905Y-87493619D01*
X143768524Y-87588857D01*
X143768524Y-87684095D01*
X143720905Y-87826952D01*
X143149476Y-88398381D01*
X143768524Y-88398381D01*
X144720905Y-88398381D02*
X144149476Y-88398381D01*
X144435190Y-88398381D02*
X144435190Y-87398381D01*
X144339952Y-87541238D01*
X144244714Y-87636476D01*
X144149476Y-87684095D01*
X131726143Y-92963143D02*
X131678524Y-93010762D01*
X131535667Y-93058381D01*
X131440429Y-93058381D01*
X131297571Y-93010762D01*
X131202333Y-92915524D01*
X131154714Y-92820286D01*
X131107095Y-92629810D01*
X131107095Y-92486952D01*
X131154714Y-92296476D01*
X131202333Y-92201238D01*
X131297571Y-92106000D01*
X131440429Y-92058381D01*
X131535667Y-92058381D01*
X131678524Y-92106000D01*
X131726143Y-92153619D01*
X132107095Y-92153619D02*
X132154714Y-92106000D01*
X132249952Y-92058381D01*
X132488048Y-92058381D01*
X132583286Y-92106000D01*
X132630905Y-92153619D01*
X132678524Y-92248857D01*
X132678524Y-92344095D01*
X132630905Y-92486952D01*
X132059476Y-93058381D01*
X132678524Y-93058381D01*
X133059476Y-92153619D02*
X133107095Y-92106000D01*
X133202333Y-92058381D01*
X133440429Y-92058381D01*
X133535667Y-92106000D01*
X133583286Y-92153619D01*
X133630905Y-92248857D01*
X133630905Y-92344095D01*
X133583286Y-92486952D01*
X133011857Y-93058381D01*
X133630905Y-93058381D01*
X136106143Y-95913143D02*
X136058524Y-95960762D01*
X135915667Y-96008381D01*
X135820429Y-96008381D01*
X135677571Y-95960762D01*
X135582333Y-95865524D01*
X135534714Y-95770286D01*
X135487095Y-95579810D01*
X135487095Y-95436952D01*
X135534714Y-95246476D01*
X135582333Y-95151238D01*
X135677571Y-95056000D01*
X135820429Y-95008381D01*
X135915667Y-95008381D01*
X136058524Y-95056000D01*
X136106143Y-95103619D01*
X136487095Y-95103619D02*
X136534714Y-95056000D01*
X136629952Y-95008381D01*
X136868048Y-95008381D01*
X136963286Y-95056000D01*
X137010905Y-95103619D01*
X137058524Y-95198857D01*
X137058524Y-95294095D01*
X137010905Y-95436952D01*
X136439476Y-96008381D01*
X137058524Y-96008381D01*
X137391857Y-95008381D02*
X138010905Y-95008381D01*
X137677571Y-95389333D01*
X137820429Y-95389333D01*
X137915667Y-95436952D01*
X137963286Y-95484571D01*
X138010905Y-95579810D01*
X138010905Y-95817905D01*
X137963286Y-95913143D01*
X137915667Y-95960762D01*
X137820429Y-96008381D01*
X137534714Y-96008381D01*
X137439476Y-95960762D01*
X137391857Y-95913143D01*
X123047903Y-108765577D02*
X123095522Y-108813196D01*
X123143141Y-108956053D01*
X123143141Y-109051291D01*
X123095522Y-109194149D01*
X123000284Y-109289387D01*
X122905046Y-109337006D01*
X122714570Y-109384625D01*
X122571712Y-109384625D01*
X122381236Y-109337006D01*
X122285998Y-109289387D01*
X122190760Y-109194149D01*
X122143141Y-109051291D01*
X122143141Y-108956053D01*
X122190760Y-108813196D01*
X122238379Y-108765577D01*
X122238379Y-108384625D02*
X122190760Y-108337006D01*
X122143141Y-108241768D01*
X122143141Y-108003672D01*
X122190760Y-107908434D01*
X122238379Y-107860815D01*
X122333617Y-107813196D01*
X122428855Y-107813196D01*
X122571712Y-107860815D01*
X123143141Y-108432244D01*
X123143141Y-107813196D01*
X122476474Y-106956053D02*
X123143141Y-106956053D01*
X122095522Y-107194149D02*
X122809808Y-107432244D01*
X122809808Y-106813196D01*
X148986143Y-90153143D02*
X148938524Y-90200762D01*
X148795667Y-90248381D01*
X148700429Y-90248381D01*
X148557571Y-90200762D01*
X148462333Y-90105524D01*
X148414714Y-90010286D01*
X148367095Y-89819810D01*
X148367095Y-89676952D01*
X148414714Y-89486476D01*
X148462333Y-89391238D01*
X148557571Y-89296000D01*
X148700429Y-89248381D01*
X148795667Y-89248381D01*
X148938524Y-89296000D01*
X148986143Y-89343619D01*
X149367095Y-89343619D02*
X149414714Y-89296000D01*
X149509952Y-89248381D01*
X149748048Y-89248381D01*
X149843286Y-89296000D01*
X149890905Y-89343619D01*
X149938524Y-89438857D01*
X149938524Y-89534095D01*
X149890905Y-89676952D01*
X149319476Y-90248381D01*
X149938524Y-90248381D01*
X150843286Y-89248381D02*
X150367095Y-89248381D01*
X150319476Y-89724571D01*
X150367095Y-89676952D01*
X150462333Y-89629333D01*
X150700429Y-89629333D01*
X150795667Y-89676952D01*
X150843286Y-89724571D01*
X150890905Y-89819810D01*
X150890905Y-90057905D01*
X150843286Y-90153143D01*
X150795667Y-90200762D01*
X150700429Y-90248381D01*
X150462333Y-90248381D01*
X150367095Y-90200762D01*
X150319476Y-90153143D01*
X131736863Y-95275543D02*
X131689244Y-95323162D01*
X131546387Y-95370781D01*
X131451149Y-95370781D01*
X131308291Y-95323162D01*
X131213053Y-95227924D01*
X131165434Y-95132686D01*
X131117815Y-94942210D01*
X131117815Y-94799352D01*
X131165434Y-94608876D01*
X131213053Y-94513638D01*
X131308291Y-94418400D01*
X131451149Y-94370781D01*
X131546387Y-94370781D01*
X131689244Y-94418400D01*
X131736863Y-94466019D01*
X132117815Y-94466019D02*
X132165434Y-94418400D01*
X132260672Y-94370781D01*
X132498768Y-94370781D01*
X132594006Y-94418400D01*
X132641625Y-94466019D01*
X132689244Y-94561257D01*
X132689244Y-94656495D01*
X132641625Y-94799352D01*
X132070196Y-95370781D01*
X132689244Y-95370781D01*
X133546387Y-94370781D02*
X133355910Y-94370781D01*
X133260672Y-94418400D01*
X133213053Y-94466019D01*
X133117815Y-94608876D01*
X133070196Y-94799352D01*
X133070196Y-95180305D01*
X133117815Y-95275543D01*
X133165434Y-95323162D01*
X133260672Y-95370781D01*
X133451149Y-95370781D01*
X133546387Y-95323162D01*
X133594006Y-95275543D01*
X133641625Y-95180305D01*
X133641625Y-94942210D01*
X133594006Y-94846971D01*
X133546387Y-94799352D01*
X133451149Y-94751733D01*
X133260672Y-94751733D01*
X133165434Y-94799352D01*
X133117815Y-94846971D01*
X133070196Y-94942210D01*
X125768243Y-127211057D02*
X125815862Y-127258676D01*
X125863481Y-127401533D01*
X125863481Y-127496771D01*
X125815862Y-127639629D01*
X125720624Y-127734867D01*
X125625386Y-127782486D01*
X125434910Y-127830105D01*
X125292052Y-127830105D01*
X125101576Y-127782486D01*
X125006338Y-127734867D01*
X124911100Y-127639629D01*
X124863481Y-127496771D01*
X124863481Y-127401533D01*
X124911100Y-127258676D01*
X124958719Y-127211057D01*
X124958719Y-126830105D02*
X124911100Y-126782486D01*
X124863481Y-126687248D01*
X124863481Y-126449152D01*
X124911100Y-126353914D01*
X124958719Y-126306295D01*
X125053957Y-126258676D01*
X125149195Y-126258676D01*
X125292052Y-126306295D01*
X125863481Y-126877724D01*
X125863481Y-126258676D01*
X124863481Y-125925343D02*
X124863481Y-125258676D01*
X125863481Y-125687248D01*
X130078623Y-127218677D02*
X130126242Y-127266296D01*
X130173861Y-127409153D01*
X130173861Y-127504391D01*
X130126242Y-127647249D01*
X130031004Y-127742487D01*
X129935766Y-127790106D01*
X129745290Y-127837725D01*
X129602432Y-127837725D01*
X129411956Y-127790106D01*
X129316718Y-127742487D01*
X129221480Y-127647249D01*
X129173861Y-127504391D01*
X129173861Y-127409153D01*
X129221480Y-127266296D01*
X129269099Y-127218677D01*
X129269099Y-126837725D02*
X129221480Y-126790106D01*
X129173861Y-126694868D01*
X129173861Y-126456772D01*
X129221480Y-126361534D01*
X129269099Y-126313915D01*
X129364337Y-126266296D01*
X129459575Y-126266296D01*
X129602432Y-126313915D01*
X130173861Y-126885344D01*
X130173861Y-126266296D01*
X129602432Y-125694868D02*
X129554813Y-125790106D01*
X129507194Y-125837725D01*
X129411956Y-125885344D01*
X129364337Y-125885344D01*
X129269099Y-125837725D01*
X129221480Y-125790106D01*
X129173861Y-125694868D01*
X129173861Y-125504391D01*
X129221480Y-125409153D01*
X129269099Y-125361534D01*
X129364337Y-125313915D01*
X129411956Y-125313915D01*
X129507194Y-125361534D01*
X129554813Y-125409153D01*
X129602432Y-125504391D01*
X129602432Y-125694868D01*
X129650051Y-125790106D01*
X129697670Y-125837725D01*
X129792909Y-125885344D01*
X129983385Y-125885344D01*
X130078623Y-125837725D01*
X130126242Y-125790106D01*
X130173861Y-125694868D01*
X130173861Y-125504391D01*
X130126242Y-125409153D01*
X130078623Y-125361534D01*
X129983385Y-125313915D01*
X129792909Y-125313915D01*
X129697670Y-125361534D01*
X129650051Y-125409153D01*
X129602432Y-125504391D01*
X134241683Y-126995157D02*
X134289302Y-127042776D01*
X134336921Y-127185633D01*
X134336921Y-127280871D01*
X134289302Y-127423729D01*
X134194064Y-127518967D01*
X134098826Y-127566586D01*
X133908350Y-127614205D01*
X133765492Y-127614205D01*
X133575016Y-127566586D01*
X133479778Y-127518967D01*
X133384540Y-127423729D01*
X133336921Y-127280871D01*
X133336921Y-127185633D01*
X133384540Y-127042776D01*
X133432159Y-126995157D01*
X133432159Y-126614205D02*
X133384540Y-126566586D01*
X133336921Y-126471348D01*
X133336921Y-126233252D01*
X133384540Y-126138014D01*
X133432159Y-126090395D01*
X133527397Y-126042776D01*
X133622635Y-126042776D01*
X133765492Y-126090395D01*
X134336921Y-126661824D01*
X134336921Y-126042776D01*
X134336921Y-125566586D02*
X134336921Y-125376110D01*
X134289302Y-125280871D01*
X134241683Y-125233252D01*
X134098826Y-125138014D01*
X133908350Y-125090395D01*
X133527397Y-125090395D01*
X133432159Y-125138014D01*
X133384540Y-125185633D01*
X133336921Y-125280871D01*
X133336921Y-125471348D01*
X133384540Y-125566586D01*
X133432159Y-125614205D01*
X133527397Y-125661824D01*
X133765492Y-125661824D01*
X133860730Y-125614205D01*
X133908350Y-125566586D01*
X133955969Y-125471348D01*
X133955969Y-125280871D01*
X133908350Y-125185633D01*
X133860730Y-125138014D01*
X133765492Y-125090395D01*
X149951843Y-122829557D02*
X149999462Y-122877176D01*
X150047081Y-123020033D01*
X150047081Y-123115271D01*
X149999462Y-123258129D01*
X149904224Y-123353367D01*
X149808986Y-123400986D01*
X149618510Y-123448605D01*
X149475652Y-123448605D01*
X149285176Y-123400986D01*
X149189938Y-123353367D01*
X149094700Y-123258129D01*
X149047081Y-123115271D01*
X149047081Y-123020033D01*
X149094700Y-122877176D01*
X149142319Y-122829557D01*
X149047081Y-122496224D02*
X149047081Y-121877176D01*
X149428033Y-122210510D01*
X149428033Y-122067652D01*
X149475652Y-121972414D01*
X149523271Y-121924795D01*
X149618510Y-121877176D01*
X149856605Y-121877176D01*
X149951843Y-121924795D01*
X149999462Y-121972414D01*
X150047081Y-122067652D01*
X150047081Y-122353367D01*
X149999462Y-122448605D01*
X149951843Y-122496224D01*
X149047081Y-121258129D02*
X149047081Y-121162890D01*
X149094700Y-121067652D01*
X149142319Y-121020033D01*
X149237557Y-120972414D01*
X149428033Y-120924795D01*
X149666129Y-120924795D01*
X149856605Y-120972414D01*
X149951843Y-121020033D01*
X149999462Y-121067652D01*
X150047081Y-121162890D01*
X150047081Y-121258129D01*
X149999462Y-121353367D01*
X149951843Y-121400986D01*
X149856605Y-121448605D01*
X149666129Y-121496224D01*
X149428033Y-121496224D01*
X149237557Y-121448605D01*
X149142319Y-121400986D01*
X149094700Y-121353367D01*
X149047081Y-121258129D01*
X129966863Y-121938017D02*
X130014482Y-121985636D01*
X130062101Y-122128493D01*
X130062101Y-122223731D01*
X130014482Y-122366589D01*
X129919244Y-122461827D01*
X129824006Y-122509446D01*
X129633530Y-122557065D01*
X129490672Y-122557065D01*
X129300196Y-122509446D01*
X129204958Y-122461827D01*
X129109720Y-122366589D01*
X129062101Y-122223731D01*
X129062101Y-122128493D01*
X129109720Y-121985636D01*
X129157339Y-121938017D01*
X129062101Y-121604684D02*
X129062101Y-120985636D01*
X129443053Y-121318970D01*
X129443053Y-121176112D01*
X129490672Y-121080874D01*
X129538291Y-121033255D01*
X129633530Y-120985636D01*
X129871625Y-120985636D01*
X129966863Y-121033255D01*
X130014482Y-121080874D01*
X130062101Y-121176112D01*
X130062101Y-121461827D01*
X130014482Y-121557065D01*
X129966863Y-121604684D01*
X130062101Y-120033255D02*
X130062101Y-120604684D01*
X130062101Y-120318970D02*
X129062101Y-120318970D01*
X129204958Y-120414208D01*
X129300196Y-120509446D01*
X129347815Y-120604684D01*
X139016503Y-120655223D02*
X138968884Y-120702842D01*
X138826027Y-120750461D01*
X138730789Y-120750461D01*
X138587931Y-120702842D01*
X138492693Y-120607604D01*
X138445074Y-120512366D01*
X138397455Y-120321890D01*
X138397455Y-120179032D01*
X138445074Y-119988556D01*
X138492693Y-119893318D01*
X138587931Y-119798080D01*
X138730789Y-119750461D01*
X138826027Y-119750461D01*
X138968884Y-119798080D01*
X139016503Y-119845699D01*
X139349836Y-119750461D02*
X139968884Y-119750461D01*
X139635550Y-120131413D01*
X139778408Y-120131413D01*
X139873646Y-120179032D01*
X139921265Y-120226651D01*
X139968884Y-120321890D01*
X139968884Y-120559985D01*
X139921265Y-120655223D01*
X139873646Y-120702842D01*
X139778408Y-120750461D01*
X139492693Y-120750461D01*
X139397455Y-120702842D01*
X139349836Y-120655223D01*
X140349836Y-119845699D02*
X140397455Y-119798080D01*
X140492693Y-119750461D01*
X140730789Y-119750461D01*
X140826027Y-119798080D01*
X140873646Y-119845699D01*
X140921265Y-119940937D01*
X140921265Y-120036175D01*
X140873646Y-120179032D01*
X140302217Y-120750461D01*
X140921265Y-120750461D01*
X134018163Y-121882137D02*
X134065782Y-121929756D01*
X134113401Y-122072613D01*
X134113401Y-122167851D01*
X134065782Y-122310709D01*
X133970544Y-122405947D01*
X133875306Y-122453566D01*
X133684830Y-122501185D01*
X133541972Y-122501185D01*
X133351496Y-122453566D01*
X133256258Y-122405947D01*
X133161020Y-122310709D01*
X133113401Y-122167851D01*
X133113401Y-122072613D01*
X133161020Y-121929756D01*
X133208639Y-121882137D01*
X133113401Y-121548804D02*
X133113401Y-120929756D01*
X133494353Y-121263090D01*
X133494353Y-121120232D01*
X133541972Y-121024994D01*
X133589591Y-120977375D01*
X133684830Y-120929756D01*
X133922925Y-120929756D01*
X134018163Y-120977375D01*
X134065782Y-121024994D01*
X134113401Y-121120232D01*
X134113401Y-121405947D01*
X134065782Y-121501185D01*
X134018163Y-121548804D01*
X133113401Y-120596423D02*
X133113401Y-119977375D01*
X133494353Y-120310709D01*
X133494353Y-120167851D01*
X133541972Y-120072613D01*
X133589591Y-120024994D01*
X133684830Y-119977375D01*
X133922925Y-119977375D01*
X134018163Y-120024994D01*
X134065782Y-120072613D01*
X134113401Y-120167851D01*
X134113401Y-120453566D01*
X134065782Y-120548804D01*
X134018163Y-120596423D01*
X131807983Y-119436283D02*
X131760364Y-119483902D01*
X131617507Y-119531521D01*
X131522269Y-119531521D01*
X131379411Y-119483902D01*
X131284173Y-119388664D01*
X131236554Y-119293426D01*
X131188935Y-119102950D01*
X131188935Y-118960092D01*
X131236554Y-118769616D01*
X131284173Y-118674378D01*
X131379411Y-118579140D01*
X131522269Y-118531521D01*
X131617507Y-118531521D01*
X131760364Y-118579140D01*
X131807983Y-118626759D01*
X132141316Y-118531521D02*
X132760364Y-118531521D01*
X132427030Y-118912473D01*
X132569888Y-118912473D01*
X132665126Y-118960092D01*
X132712745Y-119007711D01*
X132760364Y-119102950D01*
X132760364Y-119341045D01*
X132712745Y-119436283D01*
X132665126Y-119483902D01*
X132569888Y-119531521D01*
X132284173Y-119531521D01*
X132188935Y-119483902D01*
X132141316Y-119436283D01*
X133617507Y-118864854D02*
X133617507Y-119531521D01*
X133379411Y-118483902D02*
X133141316Y-119198188D01*
X133760364Y-119198188D01*
X143106143Y-61533143D02*
X143058524Y-61580762D01*
X142915667Y-61628381D01*
X142820429Y-61628381D01*
X142677571Y-61580762D01*
X142582333Y-61485524D01*
X142534714Y-61390286D01*
X142487095Y-61199810D01*
X142487095Y-61056952D01*
X142534714Y-60866476D01*
X142582333Y-60771238D01*
X142677571Y-60676000D01*
X142820429Y-60628381D01*
X142915667Y-60628381D01*
X143058524Y-60676000D01*
X143106143Y-60723619D01*
X143439476Y-60628381D02*
X144058524Y-60628381D01*
X143725190Y-61009333D01*
X143868048Y-61009333D01*
X143963286Y-61056952D01*
X144010905Y-61104571D01*
X144058524Y-61199810D01*
X144058524Y-61437905D01*
X144010905Y-61533143D01*
X143963286Y-61580762D01*
X143868048Y-61628381D01*
X143582333Y-61628381D01*
X143487095Y-61580762D01*
X143439476Y-61533143D01*
X144963286Y-60628381D02*
X144487095Y-60628381D01*
X144439476Y-61104571D01*
X144487095Y-61056952D01*
X144582333Y-61009333D01*
X144820429Y-61009333D01*
X144915667Y-61056952D01*
X144963286Y-61104571D01*
X145010905Y-61199810D01*
X145010905Y-61437905D01*
X144963286Y-61533143D01*
X144915667Y-61580762D01*
X144820429Y-61628381D01*
X144582333Y-61628381D01*
X144487095Y-61580762D01*
X144439476Y-61533143D01*
X149156143Y-75783143D02*
X149108524Y-75830762D01*
X148965667Y-75878381D01*
X148870429Y-75878381D01*
X148727571Y-75830762D01*
X148632333Y-75735524D01*
X148584714Y-75640286D01*
X148537095Y-75449810D01*
X148537095Y-75306952D01*
X148584714Y-75116476D01*
X148632333Y-75021238D01*
X148727571Y-74926000D01*
X148870429Y-74878381D01*
X148965667Y-74878381D01*
X149108524Y-74926000D01*
X149156143Y-74973619D01*
X149489476Y-74878381D02*
X150108524Y-74878381D01*
X149775190Y-75259333D01*
X149918048Y-75259333D01*
X150013286Y-75306952D01*
X150060905Y-75354571D01*
X150108524Y-75449810D01*
X150108524Y-75687905D01*
X150060905Y-75783143D01*
X150013286Y-75830762D01*
X149918048Y-75878381D01*
X149632333Y-75878381D01*
X149537095Y-75830762D01*
X149489476Y-75783143D01*
X150965667Y-74878381D02*
X150775190Y-74878381D01*
X150679952Y-74926000D01*
X150632333Y-74973619D01*
X150537095Y-75116476D01*
X150489476Y-75306952D01*
X150489476Y-75687905D01*
X150537095Y-75783143D01*
X150584714Y-75830762D01*
X150679952Y-75878381D01*
X150870429Y-75878381D01*
X150965667Y-75830762D01*
X151013286Y-75783143D01*
X151060905Y-75687905D01*
X151060905Y-75449810D01*
X151013286Y-75354571D01*
X150965667Y-75306952D01*
X150870429Y-75259333D01*
X150679952Y-75259333D01*
X150584714Y-75306952D01*
X150537095Y-75354571D01*
X150489476Y-75449810D01*
X124282343Y-78366857D02*
X124329962Y-78414476D01*
X124377581Y-78557333D01*
X124377581Y-78652571D01*
X124329962Y-78795429D01*
X124234724Y-78890667D01*
X124139486Y-78938286D01*
X123949010Y-78985905D01*
X123806152Y-78985905D01*
X123615676Y-78938286D01*
X123520438Y-78890667D01*
X123425200Y-78795429D01*
X123377581Y-78652571D01*
X123377581Y-78557333D01*
X123425200Y-78414476D01*
X123472819Y-78366857D01*
X123377581Y-78033524D02*
X123377581Y-77414476D01*
X123758533Y-77747810D01*
X123758533Y-77604952D01*
X123806152Y-77509714D01*
X123853771Y-77462095D01*
X123949010Y-77414476D01*
X124187105Y-77414476D01*
X124282343Y-77462095D01*
X124329962Y-77509714D01*
X124377581Y-77604952D01*
X124377581Y-77890667D01*
X124329962Y-77985905D01*
X124282343Y-78033524D01*
X123377581Y-77081143D02*
X123377581Y-76414476D01*
X124377581Y-76843048D01*
X147316143Y-64643143D02*
X147268524Y-64690762D01*
X147125667Y-64738381D01*
X147030429Y-64738381D01*
X146887571Y-64690762D01*
X146792333Y-64595524D01*
X146744714Y-64500286D01*
X146697095Y-64309810D01*
X146697095Y-64166952D01*
X146744714Y-63976476D01*
X146792333Y-63881238D01*
X146887571Y-63786000D01*
X147030429Y-63738381D01*
X147125667Y-63738381D01*
X147268524Y-63786000D01*
X147316143Y-63833619D01*
X147649476Y-63738381D02*
X148268524Y-63738381D01*
X147935190Y-64119333D01*
X148078048Y-64119333D01*
X148173286Y-64166952D01*
X148220905Y-64214571D01*
X148268524Y-64309810D01*
X148268524Y-64547905D01*
X148220905Y-64643143D01*
X148173286Y-64690762D01*
X148078048Y-64738381D01*
X147792333Y-64738381D01*
X147697095Y-64690762D01*
X147649476Y-64643143D01*
X148839952Y-64166952D02*
X148744714Y-64119333D01*
X148697095Y-64071714D01*
X148649476Y-63976476D01*
X148649476Y-63928857D01*
X148697095Y-63833619D01*
X148744714Y-63786000D01*
X148839952Y-63738381D01*
X149030429Y-63738381D01*
X149125667Y-63786000D01*
X149173286Y-63833619D01*
X149220905Y-63928857D01*
X149220905Y-63976476D01*
X149173286Y-64071714D01*
X149125667Y-64119333D01*
X149030429Y-64166952D01*
X148839952Y-64166952D01*
X148744714Y-64214571D01*
X148697095Y-64262190D01*
X148649476Y-64357429D01*
X148649476Y-64547905D01*
X148697095Y-64643143D01*
X148744714Y-64690762D01*
X148839952Y-64738381D01*
X149030429Y-64738381D01*
X149125667Y-64690762D01*
X149173286Y-64643143D01*
X149220905Y-64547905D01*
X149220905Y-64357429D01*
X149173286Y-64262190D01*
X149125667Y-64214571D01*
X149030429Y-64166952D01*
X139770905Y-61868381D02*
X139770905Y-60868381D01*
X140009000Y-60868381D01*
X140151858Y-60916000D01*
X140247096Y-61011238D01*
X140294715Y-61106476D01*
X140342334Y-61296952D01*
X140342334Y-61439810D01*
X140294715Y-61630286D01*
X140247096Y-61725524D01*
X140151858Y-61820762D01*
X140009000Y-61868381D01*
X139770905Y-61868381D01*
X141294715Y-61868381D02*
X140723286Y-61868381D01*
X141009000Y-61868381D02*
X141009000Y-60868381D01*
X140913762Y-61011238D01*
X140818524Y-61106476D01*
X140723286Y-61154095D01*
X130450905Y-61858381D02*
X130450905Y-60858381D01*
X130689000Y-60858381D01*
X130831858Y-60906000D01*
X130927096Y-61001238D01*
X130974715Y-61096476D01*
X131022334Y-61286952D01*
X131022334Y-61429810D01*
X130974715Y-61620286D01*
X130927096Y-61715524D01*
X130831858Y-61810762D01*
X130689000Y-61858381D01*
X130450905Y-61858381D01*
X131403286Y-60953619D02*
X131450905Y-60906000D01*
X131546143Y-60858381D01*
X131784239Y-60858381D01*
X131879477Y-60906000D01*
X131927096Y-60953619D01*
X131974715Y-61048857D01*
X131974715Y-61144095D01*
X131927096Y-61286952D01*
X131355667Y-61858381D01*
X131974715Y-61858381D01*
X139740905Y-57328381D02*
X139740905Y-56328381D01*
X139979000Y-56328381D01*
X140121858Y-56376000D01*
X140217096Y-56471238D01*
X140264715Y-56566476D01*
X140312334Y-56756952D01*
X140312334Y-56899810D01*
X140264715Y-57090286D01*
X140217096Y-57185524D01*
X140121858Y-57280762D01*
X139979000Y-57328381D01*
X139740905Y-57328381D01*
X140645667Y-56328381D02*
X141264715Y-56328381D01*
X140931381Y-56709333D01*
X141074239Y-56709333D01*
X141169477Y-56756952D01*
X141217096Y-56804571D01*
X141264715Y-56899810D01*
X141264715Y-57137905D01*
X141217096Y-57233143D01*
X141169477Y-57280762D01*
X141074239Y-57328381D01*
X140788524Y-57328381D01*
X140693286Y-57280762D01*
X140645667Y-57233143D01*
X130660905Y-57178381D02*
X130660905Y-56178381D01*
X130899000Y-56178381D01*
X131041858Y-56226000D01*
X131137096Y-56321238D01*
X131184715Y-56416476D01*
X131232334Y-56606952D01*
X131232334Y-56749810D01*
X131184715Y-56940286D01*
X131137096Y-57035524D01*
X131041858Y-57130762D01*
X130899000Y-57178381D01*
X130660905Y-57178381D01*
X132089477Y-56511714D02*
X132089477Y-57178381D01*
X131851381Y-56130762D02*
X131613286Y-56845048D01*
X132232334Y-56845048D01*
D13*
X132757571Y-132476000D02*
X133829000Y-132476000D01*
X134043286Y-132533142D01*
X134186143Y-132647428D01*
X134257571Y-132818857D01*
X134257571Y-132933142D01*
X132757571Y-131390285D02*
X132757571Y-131618856D01*
X132829000Y-131733142D01*
X132900429Y-131790285D01*
X133114714Y-131904571D01*
X133400429Y-131961714D01*
X133971857Y-131961714D01*
X134114714Y-131904571D01*
X134186143Y-131847428D01*
X134257571Y-131733142D01*
X134257571Y-131504571D01*
X134186143Y-131390285D01*
X134114714Y-131333142D01*
X133971857Y-131275999D01*
X133614714Y-131275999D01*
X133471857Y-131333142D01*
X133400429Y-131390285D01*
X133329000Y-131504571D01*
X133329000Y-131733142D01*
X133400429Y-131847428D01*
X133471857Y-131904571D01*
X133614714Y-131961714D01*
X149228891Y-132494600D02*
X150300320Y-132494600D01*
X150514606Y-132551742D01*
X150657463Y-132666028D01*
X150728891Y-132837457D01*
X150728891Y-132951742D01*
X149228891Y-132037456D02*
X149228891Y-131237456D01*
X150728891Y-131751742D01*
X124634071Y-132469200D02*
X125705500Y-132469200D01*
X125919786Y-132526342D01*
X126062643Y-132640628D01*
X126134071Y-132812057D01*
X126134071Y-132926342D01*
X125276929Y-131726342D02*
X125205500Y-131840628D01*
X125134071Y-131897771D01*
X124991214Y-131954914D01*
X124919786Y-131954914D01*
X124776929Y-131897771D01*
X124705500Y-131840628D01*
X124634071Y-131726342D01*
X124634071Y-131497771D01*
X124705500Y-131383485D01*
X124776929Y-131326342D01*
X124919786Y-131269199D01*
X124991214Y-131269199D01*
X125134071Y-131326342D01*
X125205500Y-131383485D01*
X125276929Y-131497771D01*
X125276929Y-131726342D01*
X125348357Y-131840628D01*
X125419786Y-131897771D01*
X125562643Y-131954914D01*
X125848357Y-131954914D01*
X125991214Y-131897771D01*
X126062643Y-131840628D01*
X126134071Y-131726342D01*
X126134071Y-131497771D01*
X126062643Y-131383485D01*
X125991214Y-131326342D01*
X125848357Y-131269199D01*
X125562643Y-131269199D01*
X125419786Y-131326342D01*
X125348357Y-131383485D01*
X125276929Y-131497771D01*
X141131371Y-132469200D02*
X142202800Y-132469200D01*
X142417086Y-132526342D01*
X142559943Y-132640628D01*
X142631371Y-132812057D01*
X142631371Y-132926342D01*
X142631371Y-131840628D02*
X142631371Y-131612056D01*
X142559943Y-131497771D01*
X142488514Y-131440628D01*
X142274229Y-131326342D01*
X141988514Y-131269199D01*
X141417086Y-131269199D01*
X141274229Y-131326342D01*
X141202800Y-131383485D01*
X141131371Y-131497771D01*
X141131371Y-131726342D01*
X141202800Y-131840628D01*
X141274229Y-131897771D01*
X141417086Y-131954914D01*
X141774229Y-131954914D01*
X141917086Y-131897771D01*
X141988514Y-131840628D01*
X142059943Y-131726342D01*
X142059943Y-131497771D01*
X141988514Y-131383485D01*
X141917086Y-131326342D01*
X141774229Y-131269199D01*
X156968271Y-133093969D02*
X158039700Y-133093969D01*
X158253986Y-133151111D01*
X158396843Y-133265397D01*
X158468271Y-133436826D01*
X158468271Y-133551111D01*
X158468271Y-131893968D02*
X158468271Y-132579683D01*
X158468271Y-132236825D02*
X156968271Y-132236825D01*
X157182557Y-132351111D01*
X157325414Y-132465397D01*
X157396843Y-132579683D01*
X156968271Y-131151111D02*
X156968271Y-131036826D01*
X157039700Y-130922540D01*
X157111129Y-130865397D01*
X157253986Y-130808254D01*
X157539700Y-130751111D01*
X157896843Y-130751111D01*
X158182557Y-130808254D01*
X158325414Y-130865397D01*
X158396843Y-130922540D01*
X158468271Y-131036826D01*
X158468271Y-131151111D01*
X158396843Y-131265397D01*
X158325414Y-131322540D01*
X158182557Y-131379683D01*
X157896843Y-131436826D01*
X157539700Y-131436826D01*
X157253986Y-131379683D01*
X157111129Y-131322540D01*
X157039700Y-131265397D01*
X156968271Y-131151111D01*
D12*
X128571381Y-48355523D02*
X129285667Y-48355523D01*
X129428524Y-48403143D01*
X129523762Y-48498381D01*
X129571381Y-48641238D01*
X129571381Y-48736476D01*
X129571381Y-47355523D02*
X129571381Y-47926952D01*
X129571381Y-47641238D02*
X128571381Y-47641238D01*
X128714238Y-47736476D01*
X128809476Y-47831714D01*
X128857095Y-47926952D01*
X129571381Y-46403142D02*
X129571381Y-46974571D01*
X129571381Y-46688857D02*
X128571381Y-46688857D01*
X128714238Y-46784095D01*
X128809476Y-46879333D01*
X128857095Y-46974571D01*
X146913281Y-127001566D02*
X146913281Y-127477757D01*
X145913281Y-127477757D01*
X146913281Y-126144423D02*
X146913281Y-126715852D01*
X146913281Y-126430138D02*
X145913281Y-126430138D01*
X146056138Y-126525376D01*
X146151376Y-126620614D01*
X146198995Y-126715852D01*
X146875181Y-122391466D02*
X146875181Y-122867657D01*
X145875181Y-122867657D01*
X145970419Y-122105752D02*
X145922800Y-122058133D01*
X145875181Y-121962895D01*
X145875181Y-121724799D01*
X145922800Y-121629561D01*
X145970419Y-121581942D01*
X146065657Y-121534323D01*
X146160895Y-121534323D01*
X146303752Y-121581942D01*
X146875181Y-122153371D01*
X146875181Y-121534323D01*
X125643321Y-124758746D02*
X125643321Y-125234937D01*
X124643321Y-125234937D01*
X124643321Y-124520651D02*
X124643321Y-123901603D01*
X125024273Y-124234937D01*
X125024273Y-124092079D01*
X125071892Y-123996841D01*
X125119511Y-123949222D01*
X125214750Y-123901603D01*
X125452845Y-123901603D01*
X125548083Y-123949222D01*
X125595702Y-123996841D01*
X125643321Y-124092079D01*
X125643321Y-124377794D01*
X125595702Y-124473032D01*
X125548083Y-124520651D01*
X129349181Y-122429566D02*
X129349181Y-122905757D01*
X128349181Y-122905757D01*
X128682514Y-121667661D02*
X129349181Y-121667661D01*
X128301562Y-121905757D02*
X129015848Y-122143852D01*
X129015848Y-121524804D01*
X125587441Y-120120706D02*
X125587441Y-120596897D01*
X124587441Y-120596897D01*
X124587441Y-119311182D02*
X124587441Y-119787373D01*
X125063631Y-119834992D01*
X125016012Y-119787373D01*
X124968393Y-119692135D01*
X124968393Y-119454039D01*
X125016012Y-119358801D01*
X125063631Y-119311182D01*
X125158870Y-119263563D01*
X125396965Y-119263563D01*
X125492203Y-119311182D01*
X125539822Y-119358801D01*
X125587441Y-119454039D01*
X125587441Y-119692135D01*
X125539822Y-119787373D01*
X125492203Y-119834992D01*
X130492181Y-117971866D02*
X130492181Y-118448057D01*
X129492181Y-118448057D01*
X129492181Y-117209961D02*
X129492181Y-117400438D01*
X129539800Y-117495676D01*
X129587419Y-117543295D01*
X129730276Y-117638533D01*
X129920752Y-117686152D01*
X130301705Y-117686152D01*
X130396943Y-117638533D01*
X130444562Y-117590914D01*
X130492181Y-117495676D01*
X130492181Y-117305199D01*
X130444562Y-117209961D01*
X130396943Y-117162342D01*
X130301705Y-117114723D01*
X130063610Y-117114723D01*
X129968371Y-117162342D01*
X129920752Y-117209961D01*
X129873133Y-117305199D01*
X129873133Y-117495676D01*
X129920752Y-117590914D01*
X129968371Y-117638533D01*
X130063610Y-117686152D01*
X133802334Y-64208381D02*
X133469000Y-63732190D01*
X133230905Y-64208381D02*
X133230905Y-63208381D01*
X133611858Y-63208381D01*
X133707096Y-63256000D01*
X133754715Y-63303619D01*
X133802334Y-63398857D01*
X133802334Y-63541714D01*
X133754715Y-63636952D01*
X133707096Y-63684571D01*
X133611858Y-63732190D01*
X133230905Y-63732190D01*
X134754715Y-64208381D02*
X134183286Y-64208381D01*
X134469000Y-64208381D02*
X134469000Y-63208381D01*
X134373762Y-63351238D01*
X134278524Y-63446476D01*
X134183286Y-63494095D01*
X135850334Y-88593261D02*
X135517000Y-88117070D01*
X135278905Y-88593261D02*
X135278905Y-87593261D01*
X135659858Y-87593261D01*
X135755096Y-87640880D01*
X135802715Y-87688499D01*
X135850334Y-87783737D01*
X135850334Y-87926594D01*
X135802715Y-88021832D01*
X135755096Y-88069451D01*
X135659858Y-88117070D01*
X135278905Y-88117070D01*
X136231286Y-87688499D02*
X136278905Y-87640880D01*
X136374143Y-87593261D01*
X136612239Y-87593261D01*
X136707477Y-87640880D01*
X136755096Y-87688499D01*
X136802715Y-87783737D01*
X136802715Y-87878975D01*
X136755096Y-88021832D01*
X136183667Y-88593261D01*
X136802715Y-88593261D01*
X131231381Y-77327905D02*
X132040905Y-77327905D01*
X132136143Y-77280286D01*
X132183762Y-77232667D01*
X132231381Y-77137429D01*
X132231381Y-76946952D01*
X132183762Y-76851714D01*
X132136143Y-76804095D01*
X132040905Y-76756476D01*
X131231381Y-76756476D01*
X132231381Y-75756476D02*
X132231381Y-76327905D01*
X132231381Y-76042191D02*
X131231381Y-76042191D01*
X131374238Y-76137429D01*
X131469476Y-76232667D01*
X131517095Y-76327905D01*
X130561381Y-106187905D02*
X131370905Y-106187905D01*
X131466143Y-106140286D01*
X131513762Y-106092667D01*
X131561381Y-105997429D01*
X131561381Y-105806952D01*
X131513762Y-105711714D01*
X131466143Y-105664095D01*
X131370905Y-105616476D01*
X130561381Y-105616476D01*
X130656619Y-105187905D02*
X130609000Y-105140286D01*
X130561381Y-105045048D01*
X130561381Y-104806952D01*
X130609000Y-104711714D01*
X130656619Y-104664095D01*
X130751857Y-104616476D01*
X130847095Y-104616476D01*
X130989952Y-104664095D01*
X131561381Y-105235524D01*
X131561381Y-104616476D01*
X148107095Y-63703381D02*
X148107095Y-64512905D01*
X148154714Y-64608143D01*
X148202333Y-64655762D01*
X148297571Y-64703381D01*
X148488048Y-64703381D01*
X148583286Y-64655762D01*
X148630905Y-64608143D01*
X148678524Y-64512905D01*
X148678524Y-63703381D01*
X149059476Y-63703381D02*
X149678524Y-63703381D01*
X149345190Y-64084333D01*
X149488048Y-64084333D01*
X149583286Y-64131952D01*
X149630905Y-64179571D01*
X149678524Y-64274810D01*
X149678524Y-64512905D01*
X149630905Y-64608143D01*
X149583286Y-64655762D01*
X149488048Y-64703381D01*
X149202333Y-64703381D01*
X149107095Y-64655762D01*
X149059476Y-64608143D01*
X149041381Y-58687905D02*
X149850905Y-58687905D01*
X149946143Y-58640286D01*
X149993762Y-58592667D01*
X150041381Y-58497429D01*
X150041381Y-58306952D01*
X149993762Y-58211714D01*
X149946143Y-58164095D01*
X149850905Y-58116476D01*
X149041381Y-58116476D01*
X149374714Y-57211714D02*
X150041381Y-57211714D01*
X148993762Y-57449810D02*
X149708048Y-57687905D01*
X149708048Y-57068857D01*
X122260190Y-68262191D02*
X122736381Y-68262191D01*
X121736381Y-68595524D02*
X122260190Y-68262191D01*
X121736381Y-67928857D01*
X122736381Y-67071714D02*
X122736381Y-67643143D01*
X122736381Y-67357429D02*
X121736381Y-67357429D01*
X121879238Y-67452667D01*
X121974476Y-67547905D01*
X122022095Y-67643143D01*
X118615667Y-84808381D02*
X118615667Y-85522667D01*
X118568047Y-85665524D01*
X118472809Y-85760762D01*
X118329952Y-85808381D01*
X118234714Y-85808381D01*
X119615667Y-85808381D02*
X119044238Y-85808381D01*
X119329952Y-85808381D02*
X119329952Y-84808381D01*
X119234714Y-84951238D01*
X119139476Y-85046476D01*
X119044238Y-85094095D01*
X118595667Y-87408381D02*
X118595667Y-88122667D01*
X118548047Y-88265524D01*
X118452809Y-88360762D01*
X118309952Y-88408381D01*
X118214714Y-88408381D01*
X119024238Y-87503619D02*
X119071857Y-87456000D01*
X119167095Y-87408381D01*
X119405191Y-87408381D01*
X119500429Y-87456000D01*
X119548048Y-87503619D01*
X119595667Y-87598857D01*
X119595667Y-87694095D01*
X119548048Y-87836952D01*
X118976619Y-88408381D01*
X119595667Y-88408381D01*
X118535667Y-89998381D02*
X118535667Y-90712667D01*
X118488047Y-90855524D01*
X118392809Y-90950762D01*
X118249952Y-90998381D01*
X118154714Y-90998381D01*
X118916619Y-89998381D02*
X119535667Y-89998381D01*
X119202333Y-90379333D01*
X119345191Y-90379333D01*
X119440429Y-90426952D01*
X119488048Y-90474571D01*
X119535667Y-90569810D01*
X119535667Y-90807905D01*
X119488048Y-90903143D01*
X119440429Y-90950762D01*
X119345191Y-90998381D01*
X119059476Y-90998381D01*
X118964238Y-90950762D01*
X118916619Y-90903143D01*
X118565667Y-92588381D02*
X118565667Y-93302667D01*
X118518047Y-93445524D01*
X118422809Y-93540762D01*
X118279952Y-93588381D01*
X118184714Y-93588381D01*
X119470429Y-92921714D02*
X119470429Y-93588381D01*
X119232333Y-92540762D02*
X118994238Y-93255048D01*
X119613286Y-93255048D01*
X118645667Y-95218381D02*
X118645667Y-95932667D01*
X118598047Y-96075524D01*
X118502809Y-96170762D01*
X118359952Y-96218381D01*
X118264714Y-96218381D01*
X119598048Y-95218381D02*
X119121857Y-95218381D01*
X119074238Y-95694571D01*
X119121857Y-95646952D01*
X119217095Y-95599333D01*
X119455191Y-95599333D01*
X119550429Y-95646952D01*
X119598048Y-95694571D01*
X119645667Y-95789810D01*
X119645667Y-96027905D01*
X119598048Y-96123143D01*
X119550429Y-96170762D01*
X119455191Y-96218381D01*
X119217095Y-96218381D01*
X119121857Y-96170762D01*
X119074238Y-96123143D01*
M02*
